  0
SECTION
  2
BLOCKS
  0
ENDSEC
  0
SECTION
  2
ENTITIES
  0
LINE
  8
0
 10
55.5127
 20
5.40137
 11
63.5996
 21
5.4082
  0
LINE
  8
0
 10
63.5996
 20
5.4082
 11
67.0088
 21
5.41504
  0
LINE
  8
0
 10
67.0088
 20
5.41504
 11
70.9219
 21
5.42969
  0
LINE
  8
0
 10
70.9219
 20
5.42969
 11
72.5186
 21
5.44238
  0
LINE
  8
0
 10
72.5186
 20
5.44238
 11
72.958
 21
5.4502
  0
LINE
  8
0
 10
72.958
 20
5.4502
 11
73.1348
 21
5.45801
  0
LINE
  8
0
 10
73.1348
 20
5.45801
 11
73.2256
 21
5.47852
  0
LINE
  8
0
 10
73.2256
 20
5.47852
 11
73.3145
 21
5.50293
  0
LINE
  8
0
 10
73.3145
 20
5.50293
 11
73.4033
 21
5.53125
  0
LINE
  8
0
 10
73.4033
 20
5.53125
 11
73.4902
 21
5.5625
  0
LINE
  8
0
 10
73.4902
 20
5.5625
 11
73.5762
 21
5.59766
  0
LINE
  8
0
 10
73.5762
 20
5.59766
 11
73.7441
 21
5.67773
  0
LINE
  8
0
 10
73.7441
 20
5.67773
 11
73.8252
 21
5.72266
  0
LINE
  8
0
 10
73.8252
 20
5.72266
 11
73.9053
 21
5.77051
  0
LINE
  8
0
 10
73.9053
 20
5.77051
 11
73.9844
 21
5.82031
  0
LINE
  8
0
 10
73.9844
 20
5.82031
 11
74.0605
 21
5.87402
  0
LINE
  8
0
 10
74.0605
 20
5.87402
 11
74.1348
 21
5.93066
  0
LINE
  8
0
 10
74.1348
 20
5.93066
 11
74.208
 21
5.98926
  0
LINE
  8
0
 10
74.208
 20
5.98926
 11
74.2783
 21
6.05078
  0
LINE
  8
0
 10
74.2783
 20
6.05078
 11
74.3467
 21
6.11426
  0
LINE
  8
0
 10
74.3467
 20
6.11426
 11
74.4131
 21
6.18066
  0
LINE
  8
0
 10
74.4131
 20
6.18066
 11
74.4775
 21
6.24902
  0
LINE
  8
0
 10
74.4775
 20
6.24902
 11
74.5381
 21
6.31934
  0
LINE
  8
0
 10
74.5381
 20
6.31934
 11
74.5977
 21
6.39258
  0
LINE
  8
0
 10
74.5977
 20
6.39258
 11
74.6533
 21
6.4668
  0
LINE
  8
0
 10
74.6533
 20
6.4668
 11
74.707
 21
6.54395
  0
LINE
  8
0
 10
74.707
 20
6.54395
 11
74.7578
 21
6.62207
  0
LINE
  8
0
 10
74.7578
 20
6.62207
 11
74.8057
 21
6.70215
  0
LINE
  8
0
 10
74.8057
 20
6.70215
 11
74.8496
 21
6.78418
  0
LINE
  8
0
 10
74.8496
 20
6.78418
 11
74.8916
 21
6.86719
  0
LINE
  8
0
 10
74.8916
 20
6.86719
 11
74.9297
 21
6.95215
  0
LINE
  8
0
 10
74.9297
 20
6.95215
 11
74.9648
 21
7.03809
  0
LINE
  8
0
 10
74.9648
 20
7.03809
 11
74.9961
 21
7.125
  0
LINE
  8
0
 10
74.9961
 20
7.125
 11
75.0244
 21
7.21289
  0
LINE
  8
0
 10
75.0244
 20
7.21289
 11
75.0488
 21
7.30273
  0
LINE
  8
0
 10
75.0488
 20
7.30273
 11
75.0693
 21
7.39258
  0
LINE
  8
0
 10
75.0693
 20
7.39258
 11
75.0771
 21
7.56641
  0
LINE
  8
0
 10
75.0771
 20
7.56641
 11
75.084
 21
8.00293
  0
LINE
  8
0
 10
75.084
 20
8.00293
 11
75.0908
 21
8.68457
  0
LINE
  8
0
 10
75.0908
 20
8.68457
 11
75.0967
 21
9.59277
  0
LINE
  8
0
 10
75.0967
 20
9.59277
 11
75.1113
 21
13.4941
  0
LINE
  8
0
 10
75.1113
 20
13.4941
 11
75.124
 21
20.7676
  0
LINE
  8
0
 10
75.124
 20
20.7676
 11
75.1289
 21
29.3467
  0
LINE
  8
0
 10
75.1289
 20
29.3467
 11
75.126
 21
38.0703
  0
LINE
  8
0
 10
75.126
 20
38.0703
 11
75.1152
 21
45.7793
  0
LINE
  8
0
 10
75.1152
 20
45.7793
 11
75.1016
 21
50.1963
  0
LINE
  8
0
 10
75.1016
 20
50.1963
 11
75.0967
 21
51.3135
  0
LINE
  8
0
 10
75.0967
 20
51.3135
 11
75.0908
 21
52.2207
  0
LINE
  8
0
 10
75.0908
 20
52.2207
 11
75.084
 21
52.9023
  0
LINE
  8
0
 10
75.084
 20
52.9023
 11
75.0771
 21
53.3389
  0
LINE
  8
0
 10
75.0771
 20
53.3389
 11
75.0693
 21
53.5127
  0
LINE
  8
0
 10
75.0693
 20
53.5127
 11
75.0488
 21
53.6035
  0
LINE
  8
0
 10
75.0488
 20
53.6035
 11
75.0244
 21
53.6924
  0
LINE
  8
0
 10
75.0244
 20
53.6924
 11
74.9961
 21
53.7803
  0
LINE
  8
0
 10
74.9961
 20
53.7803
 11
74.9648
 21
53.8682
  0
LINE
  8
0
 10
74.9648
 20
53.8682
 11
74.9297
 21
53.9541
  0
LINE
  8
0
 10
74.9297
 20
53.9541
 11
74.8916
 21
54.0381
  0
LINE
  8
0
 10
74.8916
 20
54.0381
 11
74.8496
 21
54.1211
  0
LINE
  8
0
 10
74.8496
 20
54.1211
 11
74.8057
 21
54.2031
  0
LINE
  8
0
 10
74.8057
 20
54.2031
 11
74.7578
 21
54.2832
  0
LINE
  8
0
 10
74.7578
 20
54.2832
 11
74.707
 21
54.3613
  0
LINE
  8
0
 10
74.707
 20
54.3613
 11
74.6533
 21
54.4385
  0
LINE
  8
0
 10
74.6533
 20
54.4385
 11
74.5977
 21
54.5127
  0
LINE
  8
0
 10
74.5977
 20
54.5127
 11
74.5381
 21
54.5859
  0
LINE
  8
0
 10
74.5381
 20
54.5859
 11
74.4775
 21
54.6562
  0
LINE
  8
0
 10
74.4775
 20
54.6562
 11
74.4131
 21
54.7246
  0
LINE
  8
0
 10
74.4131
 20
54.7246
 11
74.3467
 21
54.791
  0
LINE
  8
0
 10
74.3467
 20
54.791
 11
74.2783
 21
54.8545
  0
LINE
  8
0
 10
74.2783
 20
54.8545
 11
74.208
 21
54.916
  0
LINE
  8
0
 10
74.208
 20
54.916
 11
74.1348
 21
54.9756
  0
LINE
  8
0
 10
74.1348
 20
54.9756
 11
74.0605
 21
55.0312
  0
LINE
  8
0
 10
74.0605
 20
55.0312
 11
73.9844
 21
55.085
  0
LINE
  8
0
 10
73.9844
 20
55.085
 11
73.9053
 21
55.1357
  0
LINE
  8
0
 10
73.9053
 20
55.1357
 11
73.8252
 21
55.1836
  0
LINE
  8
0
 10
73.8252
 20
55.1836
 11
73.7441
 21
55.2275
  0
LINE
  8
0
 10
73.7441
 20
55.2275
 11
73.6602
 21
55.2695
  0
LINE
  8
0
 10
73.6602
 20
55.2695
 11
73.5762
 21
55.3076
  0
LINE
  8
0
 10
73.5762
 20
55.3076
 11
73.4902
 21
55.3428
  0
LINE
  8
0
 10
73.4902
 20
55.3428
 11
73.4033
 21
55.374
  0
LINE
  8
0
 10
73.4033
 20
55.374
 11
73.3145
 21
55.4023
  0
LINE
  8
0
 10
73.3145
 20
55.4023
 11
73.2256
 21
55.4268
  0
LINE
  8
0
 10
73.2256
 20
55.4268
 11
73.1348
 21
55.4473
  0
LINE
  8
0
 10
73.1348
 20
55.4473
 11
72.9609
 21
55.4551
  0
LINE
  8
0
 10
72.9609
 20
55.4551
 11
72.5244
 21
55.4619
  0
LINE
  8
0
 10
72.5244
 20
55.4619
 11
70.9355
 21
55.4736
  0
LINE
  8
0
 10
70.9355
 20
55.4736
 11
68.5127
 21
55.4844
  0
LINE
  8
0
 10
68.5127
 20
55.4844
 11
65.4014
 21
55.4932
  0
LINE
  8
0
 10
65.4014
 20
55.4932
 11
57.6924
 21
55.5039
  0
LINE
  8
0
 10
57.6924
 20
55.5039
 11
48.9688
 21
55.5068
  0
LINE
  8
0
 10
48.9688
 20
55.5068
 11
40.3896
 21
55.502
  0
LINE
  8
0
 10
40.3896
 20
55.502
 11
34.749
 21
55.4932
  0
LINE
  8
0
 10
34.749
 20
55.4932
 11
30.3311
 21
55.4795
  0
LINE
  8
0
 10
30.3311
 20
55.4795
 11
28.3066
 21
55.4678
  0
LINE
  8
0
 10
28.3066
 20
55.4678
 11
27.626
 21
55.4619
  0
LINE
  8
0
 10
27.626
 20
55.4619
 11
27.1885
 21
55.4551
  0
LINE
  8
0
 10
27.1885
 20
55.4551
 11
27.0146
 21
55.4473
  0
LINE
  8
0
 10
27.0146
 20
55.4473
 11
26.9248
 21
55.4268
  0
LINE
  8
0
 10
26.9248
 20
55.4268
 11
26.835
 21
55.4023
  0
LINE
  8
0
 10
26.835
 20
55.4023
 11
26.7471
 21
55.374
  0
LINE
  8
0
 10
26.7471
 20
55.374
 11
26.6602
 21
55.3428
  0
LINE
  8
0
 10
26.6602
 20
55.3428
 11
26.5742
 21
55.3076
  0
LINE
  8
0
 10
26.5742
 20
55.3076
 11
26.4893
 21
55.2695
  0
LINE
  8
0
 10
26.4893
 20
55.2695
 11
26.4062
 21
55.2275
  0
LINE
  8
0
 10
26.4062
 20
55.2275
 11
26.3242
 21
55.1836
  0
LINE
  8
0
 10
26.3242
 20
55.1836
 11
26.2441
 21
55.1357
  0
LINE
  8
0
 10
26.2441
 20
55.1357
 11
26.166
 21
55.085
  0
LINE
  8
0
 10
26.166
 20
55.085
 11
26.0898
 21
55.0312
  0
LINE
  8
0
 10
26.0898
 20
55.0312
 11
26.0146
 21
54.9756
  0
LINE
  8
0
 10
26.0146
 20
54.9756
 11
25.9424
 21
54.916
  0
LINE
  8
0
 10
25.9424
 20
54.916
 11
25.8711
 21
54.8545
  0
LINE
  8
0
 10
25.8711
 20
54.8545
 11
25.8027
 21
54.791
  0
LINE
  8
0
 10
25.8027
 20
54.791
 11
25.7363
 21
54.7246
  0
LINE
  8
0
 10
25.7363
 20
54.7246
 11
25.6729
 21
54.6562
  0
LINE
  8
0
 10
25.6729
 20
54.6562
 11
25.6113
 21
54.5859
  0
LINE
  8
0
 10
25.6113
 20
54.5859
 11
25.5527
 21
54.5127
  0
LINE
  8
0
 10
25.5527
 20
54.5127
 11
25.4961
 21
54.4385
  0
LINE
  8
0
 10
25.4961
 20
54.4385
 11
25.4434
 21
54.3613
  0
LINE
  8
0
 10
25.4434
 20
54.3613
 11
25.3926
 21
54.2832
  0
LINE
  8
0
 10
25.3926
 20
54.2832
 11
25.3447
 21
54.2031
  0
LINE
  8
0
 10
25.3447
 20
54.2031
 11
25.2998
 21
54.1211
  0
LINE
  8
0
 10
25.2998
 20
54.1211
 11
25.2588
 21
54.0381
  0
LINE
  8
0
 10
25.2588
 20
54.0381
 11
25.2197
 21
53.9541
  0
LINE
  8
0
 10
25.2197
 20
53.9541
 11
25.1855
 21
53.8682
  0
LINE
  8
0
 10
25.1855
 20
53.8682
 11
25.1533
 21
53.7803
  0
LINE
  8
0
 10
25.1533
 20
53.7803
 11
25.126
 21
53.6924
  0
LINE
  8
0
 10
25.126
 20
53.6924
 11
25.1006
 21
53.6035
  0
LINE
  8
0
 10
25.1006
 20
53.6035
 11
25.0801
 21
53.5127
  0
LINE
  8
0
 10
25.0801
 20
53.5127
 11
25.0732
 21
53.3389
  0
LINE
  8
0
 10
25.0732
 20
53.3389
 11
25.0664
 21
52.9023
  0
LINE
  8
0
 10
25.0664
 20
52.9023
 11
25.0596
 21
52.2207
  0
LINE
  8
0
 10
25.0596
 20
52.2207
 11
25.0537
 21
51.3135
  0
LINE
  8
0
 10
25.0537
 20
51.3135
 11
25.043
 21
48.8906
  0
LINE
  8
0
 10
25.043
 20
48.8906
 11
25.0312
 21
44.0098
  0
LINE
  8
0
 10
25.0312
 20
44.0098
 11
25.0225
 21
35.9395
  0
LINE
  8
0
 10
25.0225
 20
35.9395
 11
25.0225
 21
24.9668
  0
LINE
  8
0
 10
25.0225
 20
24.9668
 11
25.0312
 21
16.8955
  0
LINE
  8
0
 10
25.0312
 20
16.8955
 11
25.043
 21
12.0156
  0
LINE
  8
0
 10
25.043
 20
12.0156
 11
25.0537
 21
9.59277
  0
LINE
  8
0
 10
25.0537
 20
9.59277
 11
25.0596
 21
8.68457
  0
LINE
  8
0
 10
25.0596
 20
8.68457
 11
25.0664
 21
8.00293
  0
LINE
  8
0
 10
25.0664
 20
8.00293
 11
25.0732
 21
7.56641
  0
LINE
  8
0
 10
25.0732
 20
7.56641
 11
25.0801
 21
7.39258
  0
LINE
  8
0
 10
25.0801
 20
7.39258
 11
25.1006
 21
7.30469
  0
LINE
  8
0
 10
25.1006
 20
7.30469
 11
25.124
 21
7.21777
  0
LINE
  8
0
 10
25.124
 20
7.21777
 11
25.1514
 21
7.13184
  0
LINE
  8
0
 10
25.1514
 20
7.13184
 11
25.1816
 21
7.04688
  0
LINE
  8
0
 10
25.1816
 20
7.04688
 11
25.2148
 21
6.96387
  0
LINE
  8
0
 10
25.2148
 20
6.96387
 11
25.252
 21
6.88086
  0
LINE
  8
0
 10
25.252
 20
6.88086
 11
25.292
 21
6.7998
  0
LINE
  8
0
 10
25.292
 20
6.7998
 11
25.335
 21
6.71973
  0
LINE
  8
0
 10
25.335
 20
6.71973
 11
25.3809
 21
6.6416
  0
LINE
  8
0
 10
25.3809
 20
6.6416
 11
25.4287
 21
6.56445
  0
LINE
  8
0
 10
25.4287
 20
6.56445
 11
25.4805
 21
6.48926
  0
LINE
  8
0
 10
25.4805
 20
6.48926
 11
25.5342
 21
6.41602
  0
LINE
  8
0
 10
25.5342
 20
6.41602
 11
25.5908
 21
6.34473
  0
LINE
  8
0
 10
25.5908
 20
6.34473
 11
25.6494
 21
6.27441
  0
LINE
  8
0
 10
25.6494
 20
6.27441
 11
25.7109
 21
6.20703
  0
LINE
  8
0
 10
25.7109
 20
6.20703
 11
25.7744
 21
6.1416
  0
LINE
  8
0
 10
25.7744
 20
6.1416
 11
25.8398
 21
6.07812
  0
LINE
  8
0
 10
25.8398
 20
6.07812
 11
25.9082
 21
6.01758
  0
LINE
  8
0
 10
25.9082
 20
6.01758
 11
25.9775
 21
5.95898
  0
LINE
  8
0
 10
25.9775
 20
5.95898
 11
26.0498
 21
5.90234
  0
LINE
  8
0
 10
26.0498
 20
5.90234
 11
26.1982
 21
5.79785
  0
LINE
  8
0
 10
26.1982
 20
5.79785
 11
26.2754
 21
5.75
  0
LINE
  8
0
 10
26.2754
 20
5.75
 11
26.3545
 21
5.70508
  0
LINE
  8
0
 10
26.3545
 20
5.70508
 11
26.4346
 21
5.66211
  0
LINE
  8
0
 10
26.4346
 20
5.66211
 11
26.5166
 21
5.62305
  0
LINE
  8
0
 10
26.5166
 20
5.62305
 11
26.5996
 21
5.58594
  0
LINE
  8
0
 10
26.5996
 20
5.58594
 11
26.6836
 21
5.55371
  0
LINE
  8
0
 10
26.6836
 20
5.55371
 11
26.7686
 21
5.52344
  0
LINE
  8
0
 10
26.7686
 20
5.52344
 11
26.8555
 21
5.49707
  0
LINE
  8
0
 10
26.8555
 20
5.49707
 11
26.9424
 21
5.47363
  0
LINE
  8
0
 10
26.9424
 20
5.47363
 11
27.1143
 21
5.46582
  0
LINE
  8
0
 10
27.1143
 20
5.46582
 11
27.5488
 21
5.45801
  0
LINE
  8
0
 10
27.5488
 20
5.45801
 11
29.1367
 21
5.44434
  0
LINE
  8
0
 10
29.1367
 20
5.44434
 11
33.0391
 21
5.42676
  0
LINE
  8
0
 10
33.0391
 20
5.42676
 11
38.3311
 21
5.41406
  0
LINE
  8
0
 10
38.3311
 20
5.41406
 11
46.7031
 21
5.40332
  0
LINE
  8
0
 10
46.7031
 20
5.40332
 11
55.5127
 21
5.40137
  0
LINE
  8
0
 10
26.8867
 20
40.3662
 11
26.8232
 21
40.3682
  0
LINE
  8
0
 10
26.8232
 20
40.3682
 11
26.7598
 21
40.376
  0
LINE
  8
0
 10
26.7598
 20
40.376
 11
26.6982
 21
40.3896
  0
LINE
  8
0
 10
26.6982
 20
40.3896
 11
26.6377
 21
40.4102
  0
LINE
  8
0
 10
26.6377
 20
40.4102
 11
26.6074
 21
40.4229
  0
LINE
  8
0
 10
26.6074
 20
40.4229
 11
26.5547
 21
40.4502
  0
LINE
  8
0
 10
26.5547
 20
40.4502
 11
26.5098
 21
40.4775
  0
LINE
  8
0
 10
26.5098
 20
40.4775
 11
26.4492
 21
40.5195
  0
LINE
  8
0
 10
26.4492
 20
40.5195
 11
26.3955
 21
40.5654
  0
LINE
  8
0
 10
26.3955
 20
40.5654
 11
26.3643
 21
40.5986
  0
LINE
  8
0
 10
26.3643
 20
40.5986
 11
26.335
 21
40.6338
  0
LINE
  8
0
 10
26.335
 20
40.6338
 11
26.2969
 21
40.6914
  0
LINE
  8
0
 10
26.2969
 20
40.6914
 11
26.2559
 21
40.7773
  0
LINE
  8
0
 10
26.2559
 20
40.7773
 11
26.2314
 21
40.8496
  0
LINE
  8
0
 10
26.2314
 20
40.8496
 11
26.207
 21
40.958
  0
LINE
  8
0
 10
26.207
 20
40.958
 11
26.1787
 21
41.1777
  0
LINE
  8
0
 10
26.1787
 20
41.1777
 11
26.1553
 21
41.3076
  0
LINE
  8
0
 10
26.1553
 20
41.3076
 11
26.1191
 21
41.4463
  0
LINE
  8
0
 10
26.1191
 20
41.4463
 11
26.1006
 21
41.4971
  0
LINE
  8
0
 10
26.1006
 20
41.4971
 11
26.0781
 21
41.5488
  0
LINE
  8
0
 10
26.0781
 20
41.5488
 11
26.0596
 21
41.6172
  0
LINE
  8
0
 10
26.0596
 20
41.6172
 11
26.0371
 21
41.7627
  0
LINE
  8
0
 10
26.0371
 20
41.7627
 11
26.0283
 21
41.8984
  0
LINE
  8
0
 10
26.0283
 20
41.8984
 11
26.0293
 21
42.1123
  0
LINE
  8
0
 10
26.0293
 20
42.1123
 11
26.04
 21
42.251
  0
LINE
  8
0
 10
26.04
 20
42.251
 11
26.0586
 21
42.374
  0
LINE
  8
0
 10
26.0586
 20
42.374
 11
26.0986
 21
42.5352
  0
LINE
  8
0
 10
26.0986
 20
42.5352
 11
26.124
 21
42.6934
  0
LINE
  8
0
 10
26.124
 20
42.6934
 11
26.1396
 21
42.835
  0
LINE
  8
0
 10
26.1396
 20
42.835
 11
26.1533
 21
43.0381
  0
LINE
  8
0
 10
26.1533
 20
43.0381
 11
26.1641
 21
43.1182
  0
LINE
  8
0
 10
26.1641
 20
43.1182
 11
26.1807
 21
43.2041
  0
LINE
  8
0
 10
26.1807
 20
43.2041
 11
26.2041
 21
43.2842
  0
LINE
  8
0
 10
26.2041
 20
43.2842
 11
26.2148
 21
43.3096
  0
LINE
  8
0
 10
26.2148
 20
43.3096
 11
26.2402
 21
43.3486
  0
LINE
  8
0
 10
26.2402
 20
43.3486
 11
26.2529
 21
43.3789
  0
LINE
  8
0
 10
26.2529
 20
43.3789
 11
26.2725
 21
43.459
  0
LINE
  8
0
 10
26.2725
 20
43.459
 11
26.29
 21
43.6084
  0
LINE
  8
0
 10
26.29
 20
43.6084
 11
26.3086
 21
43.9648
  0
LINE
  8
0
 10
26.3086
 20
43.9648
 11
26.3164
 21
44.3057
  0
LINE
  8
0
 10
26.3164
 20
44.3057
 11
26.333
 21
45.1943
  0
LINE
  8
0
 10
26.333
 20
45.1943
 11
26.5264
 21
45.2754
  0
LINE
  8
0
 10
26.5264
 20
45.2754
 11
26.5947
 21
45.3125
  0
LINE
  8
0
 10
26.5947
 20
45.3125
 11
26.6357
 21
45.3398
  0
LINE
  8
0
 10
26.6357
 20
45.3398
 11
26.6719
 21
45.3701
  0
LINE
  8
0
 10
26.6719
 20
45.3701
 11
26.7051
 21
45.4053
  0
LINE
  8
0
 10
26.7051
 20
45.4053
 11
26.7354
 21
45.4463
  0
LINE
  8
0
 10
26.7354
 20
45.4463
 11
26.7764
 21
45.5176
  0
LINE
  8
0
 10
26.7764
 20
45.5176
 11
26.8008
 21
45.5742
  0
LINE
  8
0
 10
26.8008
 20
45.5742
 11
26.8242
 21
45.6396
  0
LINE
  8
0
 10
26.8242
 20
45.6396
 11
26.8467
 21
45.7139
  0
LINE
  8
0
 10
26.8467
 20
45.7139
 11
26.9014
 21
45.9443
  0
LINE
  8
0
 10
26.9014
 20
45.9443
 11
26.9912
 21
46.416
  0
LINE
  8
0
 10
26.9912
 20
46.416
 11
27.0195
 21
46.5547
  0
LINE
  8
0
 10
27.0195
 20
46.5547
 11
27.0615
 21
46.7383
  0
LINE
  8
0
 10
27.0615
 20
46.7383
 11
27.1045
 21
46.8975
  0
LINE
  8
0
 10
27.1045
 20
46.8975
 11
27.1494
 21
47.0361
  0
LINE
  8
0
 10
27.1494
 20
47.0361
 11
27.2148
 21
47.1924
  0
LINE
  8
0
 10
27.2148
 20
47.1924
 11
27.251
 21
47.2607
  0
LINE
  8
0
 10
27.251
 20
47.2607
 11
27.29
 21
47.3252
  0
LINE
  8
0
 10
27.29
 20
47.3252
 11
27.3311
 21
47.3848
  0
LINE
  8
0
 10
27.3311
 20
47.3848
 11
27.4004
 21
47.4697
  0
LINE
  8
0
 10
27.4004
 20
47.4697
 11
27.4795
 21
47.5508
  0
LINE
  8
0
 10
27.4795
 20
47.5508
 11
27.5381
 21
47.6055
  0
LINE
  8
0
 10
27.5381
 20
47.6055
 11
27.6367
 21
47.6904
  0
LINE
  8
0
 10
27.6367
 20
47.6904
 11
27.707
 21
47.748
  0
LINE
  8
0
 10
27.707
 20
47.748
 11
27.9346
 21
47.918
  0
LINE
  8
0
 10
27.9346
 20
47.918
 11
28.0527
 21
47.999
  0
LINE
  8
0
 10
28.0527
 20
47.999
 11
28.1689
 21
48.0742
  0
LINE
  8
0
 10
28.1689
 20
48.0742
 11
28.2451
 21
48.1211
  0
LINE
  8
0
 10
28.2451
 20
48.1211
 11
28.4229
 21
48.2207
  0
LINE
  8
0
 10
28.4229
 20
48.2207
 11
28.5469
 21
48.2783
  0
LINE
  8
0
 10
28.5469
 20
48.2783
 11
28.7832
 21
48.3721
  0
LINE
  8
0
 10
28.7832
 20
48.3721
 11
28.9258
 21
48.4336
  0
LINE
  8
0
 10
28.9258
 20
48.4336
 11
29.1924
 21
48.5547
  0
LINE
  8
0
 10
29.1924
 20
48.5547
 11
29.4092
 21
48.6572
  0
LINE
  8
0
 10
29.4092
 20
48.6572
 11
29.7178
 21
48.792
  0
LINE
  8
0
 10
29.7178
 20
48.792
 11
30.001
 21
48.9014
  0
LINE
  8
0
 10
30.001
 20
48.9014
 11
30.1719
 21
48.9561
  0
LINE
  8
0
 10
30.1719
 20
48.9561
 11
30.2969
 21
49.0039
  0
LINE
  8
0
 10
30.2969
 20
49.0039
 11
30.4482
 21
49.0732
  0
LINE
  8
0
 10
30.4482
 20
49.0732
 11
30.6045
 21
49.1562
  0
LINE
  8
0
 10
30.6045
 20
49.1562
 11
30.832
 21
49.25
  0
LINE
  8
0
 10
30.832
 20
49.25
 11
31.0029
 21
49.3125
  0
LINE
  8
0
 10
31.0029
 20
49.3125
 11
31.2773
 21
49.4053
  0
LINE
  8
0
 10
31.2773
 20
49.4053
 11
31.4004
 21
49.4531
  0
LINE
  8
0
 10
31.4004
 20
49.4531
 11
31.5986
 21
49.54
  0
LINE
  8
0
 10
31.5986
 20
49.54
 11
31.7285
 21
49.6104
  0
LINE
  8
0
 10
31.7285
 20
49.6104
 11
31.8057
 21
49.6631
  0
LINE
  8
0
 10
31.8057
 20
49.6631
 11
31.8477
 21
49.6885
  0
LINE
  8
0
 10
31.8477
 20
49.6885
 11
31.9922
 21
49.7617
  0
LINE
  8
0
 10
31.9922
 20
49.7617
 11
32.208
 21
49.8545
  0
LINE
  8
0
 10
32.208
 20
49.8545
 11
32.3408
 21
49.9033
  0
LINE
  8
0
 10
32.3408
 20
49.9033
 11
32.5547
 21
49.9785
  0
LINE
  8
0
 10
32.5547
 20
49.9785
 11
32.918
 21
50.1191
  0
LINE
  8
0
 10
32.918
 20
50.1191
 11
33.1211
 21
50.2051
  0
LINE
  8
0
 10
33.1211
 20
50.2051
 11
33.2988
 21
50.2705
  0
LINE
  8
0
 10
33.2988
 20
50.2705
 11
33.5791
 21
50.3574
  0
LINE
  8
0
 10
33.5791
 20
50.3574
 11
33.7275
 21
50.3975
  0
LINE
  8
0
 10
33.7275
 20
50.3975
 11
33.8721
 21
50.4326
  0
LINE
  8
0
 10
33.8721
 20
50.4326
 11
34.0654
 21
50.4922
  0
LINE
  8
0
 10
34.0654
 20
50.4922
 11
34.2227
 21
50.5527
  0
LINE
  8
0
 10
34.2227
 20
50.5527
 11
34.374
 21
50.623
  0
LINE
  8
0
 10
34.374
 20
50.623
 11
34.5322
 21
50.7178
  0
LINE
  8
0
 10
34.5322
 20
50.7178
 11
34.6387
 21
50.7744
  0
LINE
  8
0
 10
34.6387
 20
50.7744
 11
34.752
 21
50.8281
  0
LINE
  8
0
 10
34.752
 20
50.8281
 11
34.9541
 21
50.9102
  0
LINE
  8
0
 10
34.9541
 20
50.9102
 11
35.082
 21
50.9541
  0
LINE
  8
0
 10
35.082
 20
50.9541
 11
35.2578
 21
51.0068
  0
LINE
  8
0
 10
35.2578
 20
51.0068
 11
35.4375
 21
51.0518
  0
LINE
  8
0
 10
35.4375
 20
51.0518
 11
35.5732
 21
51.0791
  0
LINE
  8
0
 10
35.5732
 20
51.0791
 11
36.6699
 21
51.2422
  0
LINE
  8
0
 10
36.6699
 20
51.2422
 11
37.5615
 21
51.3896
  0
LINE
  8
0
 10
37.5615
 20
51.3896
 11
38.1035
 21
51.4697
  0
LINE
  8
0
 10
38.1035
 20
51.4697
 11
38.5889
 21
51.5322
  0
LINE
  8
0
 10
38.5889
 20
51.5322
 11
38.8115
 21
51.5645
  0
LINE
  8
0
 10
38.8115
 20
51.5645
 11
39.1475
 21
51.6221
  0
LINE
  8
0
 10
39.1475
 20
51.6221
 11
39.3818
 21
51.6719
  0
LINE
  8
0
 10
39.3818
 20
51.6719
 11
39.585
 21
51.7236
  0
LINE
  8
0
 10
39.585
 20
51.7236
 11
39.7168
 21
51.7646
  0
LINE
  8
0
 10
39.7168
 20
51.7646
 11
39.8291
 21
51.8057
  0
LINE
  8
0
 10
39.8291
 20
51.8057
 11
39.9219
 21
51.8486
  0
LINE
  8
0
 10
39.9219
 20
51.8486
 11
39.9727
 21
51.877
  0
LINE
  8
0
 10
39.9727
 20
51.877
 11
40.0771
 21
51.9453
  0
LINE
  8
0
 10
40.0771
 20
51.9453
 11
40.123
 21
51.9697
  0
LINE
  8
0
 10
40.123
 20
51.9697
 11
40.1709
 21
51.9893
  0
LINE
  8
0
 10
40.1709
 20
51.9893
 11
40.2256
 21
52.0039
  0
LINE
  8
0
 10
40.2256
 20
52.0039
 11
40.3145
 21
52.0176
  0
LINE
  8
0
 10
40.3145
 20
52.0176
 11
40.4316
 21
52.0264
  0
LINE
  8
0
 10
40.4316
 20
52.0264
 11
40.6318
 21
52.0322
  0
LINE
  8
0
 10
40.6318
 20
52.0322
 11
41.0723
 21
52.0391
  0
LINE
  8
0
 10
41.0723
 20
52.0391
 11
41.5322
 21
52.0586
  0
LINE
  8
0
 10
41.5322
 20
52.0586
 11
42.0195
 21
52.0938
  0
LINE
  8
0
 10
42.0195
 20
52.0938
 11
42.2705
 21
52.1172
  0
LINE
  8
0
 10
42.2705
 20
52.1172
 11
42.6709
 21
52.1436
  0
LINE
  8
0
 10
42.6709
 20
52.1436
 11
42.9551
 21
52.1543
  0
LINE
  8
0
 10
42.9551
 20
52.1543
 11
43.0664
 21
52.1553
  0
LINE
  8
0
 10
43.0664
 20
52.1553
 11
43.2119
 21
52.1631
  0
LINE
  8
0
 10
43.2119
 20
52.1631
 11
43.3906
 21
52.1777
  0
LINE
  8
0
 10
43.3906
 20
52.1777
 11
43.6494
 21
52.2129
  0
LINE
  8
0
 10
43.6494
 20
52.2129
 11
43.7529
 21
52.2334
  0
LINE
  8
0
 10
43.7529
 20
52.2334
 11
43.8252
 21
52.2441
  0
LINE
  8
0
 10
43.8252
 20
52.2441
 11
44.0449
 21
52.2617
  0
LINE
  8
0
 10
44.0449
 20
52.2617
 11
44.6309
 21
52.2803
  0
LINE
  8
0
 10
44.6309
 20
52.2803
 11
45.4326
 21
52.291
  0
LINE
  8
0
 10
45.4326
 20
52.291
 11
47.4932
 21
52.2998
  0
LINE
  8
0
 10
47.4932
 20
52.2998
 11
52.8867
 21
52.3076
  0
LINE
  8
0
 10
52.8867
 20
52.3076
 11
53.9365
 21
52.3184
  0
LINE
  8
0
 10
53.9365
 20
52.3184
 11
54.4551
 21
52.332
  0
LINE
  8
0
 10
54.4551
 20
52.332
 11
54.6416
 21
52.3428
  0
LINE
  8
0
 10
54.6416
 20
52.3428
 11
54.7227
 21
52.3516
  0
LINE
  8
0
 10
54.7227
 20
52.3516
 11
54.7744
 21
52.3613
  0
LINE
  8
0
 10
54.7744
 20
52.3613
 11
54.8018
 21
52.3711
  0
LINE
  8
0
 10
54.8018
 20
52.3711
 11
54.8623
 21
52.4111
  0
LINE
  8
0
 10
54.8623
 20
52.4111
 11
54.9375
 21
52.4521
  0
LINE
  8
0
 10
54.9375
 20
52.4521
 11
55.124
 21
52.542
  0
LINE
  8
0
 10
55.124
 20
52.542
 11
55.2891
 21
52.6113
  0
LINE
  8
0
 10
55.2891
 20
52.6113
 11
55.4727
 21
52.6826
  0
LINE
  8
0
 10
55.4727
 20
52.6826
 11
55.7373
 21
52.7764
  0
LINE
  8
0
 10
55.7373
 20
52.7764
 11
55.9453
 21
52.8438
  0
LINE
  8
0
 10
55.9453
 20
52.8438
 11
56.1562
 21
52.9072
  0
LINE
  8
0
 10
56.1562
 20
52.9072
 11
56.3662
 21
52.9648
  0
LINE
  8
0
 10
56.3662
 20
52.9648
 11
56.5703
 21
53.0146
  0
LINE
  8
0
 10
56.5703
 20
53.0146
 11
56.7646
 21
53.0557
  0
LINE
  8
0
 10
56.7646
 20
53.0557
 11
56.916
 21
53.0781
  0
LINE
  8
0
 10
56.916
 20
53.0781
 11
56.9854
 21
53.084
  0
LINE
  8
0
 10
56.9854
 20
53.084
 11
57.0801
 21
53.0859
  0
LINE
  8
0
 10
57.0801
 20
53.0859
 11
57.166
 21
53.0801
  0
LINE
  8
0
 10
57.166
 20
53.0801
 11
57.2451
 21
53.0664
  0
LINE
  8
0
 10
57.2451
 20
53.0664
 11
57.3193
 21
53.0439
  0
LINE
  8
0
 10
57.3193
 20
53.0439
 11
57.3652
 21
53.0234
  0
LINE
  8
0
 10
57.3652
 20
53.0234
 11
57.4102
 21
53
  0
LINE
  8
0
 10
57.4102
 20
53
 11
57.4541
 21
52.9717
  0
LINE
  8
0
 10
57.4541
 20
52.9717
 11
57.4971
 21
52.9404
  0
LINE
  8
0
 10
57.4971
 20
52.9404
 11
57.54
 21
52.9043
  0
LINE
  8
0
 10
57.54
 20
52.9043
 11
57.7002
 21
52.7607
  0
LINE
  8
0
 10
57.7002
 20
52.7607
 11
57.6963
 21
51.8682
  0
LINE
  8
0
 10
57.6963
 20
51.8682
 11
57.6924
 21
51.7393
  0
LINE
  8
0
 10
57.6924
 20
51.7393
 11
57.6807
 21
51.5732
  0
LINE
  8
0
 10
57.6807
 20
51.5732
 11
57.6748
 21
51.5244
  0
LINE
  8
0
 10
57.6748
 20
51.5244
 11
57.6592
 21
51.4365
  0
LINE
  8
0
 10
57.6592
 20
51.4365
 11
57.6387
 21
51.3584
  0
LINE
  8
0
 10
57.6387
 20
51.3584
 11
57.627
 21
51.3223
  0
LINE
  8
0
 10
57.627
 20
51.3223
 11
57.6133
 21
51.2891
  0
LINE
  8
0
 10
57.6133
 20
51.2891
 11
57.5977
 21
51.2578
  0
LINE
  8
0
 10
57.5977
 20
51.2578
 11
57.5615
 21
51.1992
  0
LINE
  8
0
 10
57.5615
 20
51.1992
 11
57.5176
 21
51.1455
  0
LINE
  8
0
 10
57.5176
 20
51.1455
 11
57.4648
 21
51.0967
  0
LINE
  8
0
 10
57.4648
 20
51.0967
 11
57.4355
 21
51.0723
  0
LINE
  8
0
 10
57.4355
 20
51.0723
 11
57.3691
 21
51.0254
  0
LINE
  8
0
 10
57.3691
 20
51.0254
 11
57.292
 21
50.9785
  0
LINE
  8
0
 10
57.292
 20
50.9785
 11
56.9727
 21
50.8076
  0
LINE
  8
0
 10
56.9727
 20
50.8076
 11
56.8555
 21
50.7354
  0
LINE
  8
0
 10
56.8555
 20
50.7354
 11
56.79
 21
50.6895
  0
LINE
  8
0
 10
56.79
 20
50.6895
 11
56.6836
 21
50.6035
  0
LINE
  8
0
 10
56.6836
 20
50.6035
 11
56.5742
 21
50.502
  0
LINE
  8
0
 10
56.5742
 20
50.502
 11
56.4053
 21
50.3232
  0
LINE
  8
0
 10
56.4053
 20
50.3232
 11
56.3027
 21
50.207
  0
LINE
  8
0
 10
56.3027
 20
50.207
 11
56.1064
 21
49.9658
  0
LINE
  8
0
 10
56.1064
 20
49.9658
 11
56.0312
 21
49.8662
  0
LINE
  8
0
 10
56.0312
 20
49.8662
 11
55.9932
 21
49.8125
  0
LINE
  8
0
 10
55.9932
 20
49.8125
 11
55.9434
 21
49.7363
  0
LINE
  8
0
 10
55.9434
 20
49.7363
 11
55.8936
 21
49.6475
  0
LINE
  8
0
 10
55.8936
 20
49.6475
 11
55.8398
 21
49.5742
  0
LINE
  8
0
 10
55.8398
 20
49.5742
 11
55.7881
 21
49.5166
  0
LINE
  8
0
 10
55.7881
 20
49.5166
 11
55.7441
 21
49.4756
  0
LINE
  8
0
 10
55.7441
 20
49.4756
 11
55.6934
 21
49.4375
  0
LINE
  8
0
 10
55.6934
 20
49.4375
 11
55.6338
 21
49.4092
  0
LINE
  8
0
 10
55.6338
 20
49.4092
 11
55.5869
 21
49.3926
  0
LINE
  8
0
 10
55.5869
 20
49.3926
 11
55.5107
 21
49.373
  0
LINE
  8
0
 10
55.5107
 20
49.373
 11
55.4014
 21
49.3574
  0
LINE
  8
0
 10
55.4014
 20
49.3574
 11
55.3447
 21
49.3535
  0
LINE
  8
0
 10
55.3447
 20
49.3535
 11
55.2607
 21
49.3535
  0
LINE
  8
0
 10
55.2607
 20
49.3535
 11
55.1514
 21
49.3633
  0
LINE
  8
0
 10
55.1514
 20
49.3633
 11
55.0518
 21
49.3848
  0
LINE
  8
0
 10
55.0518
 20
49.3848
 11
55.0078
 21
49.3994
  0
LINE
  8
0
 10
55.0078
 20
49.3994
 11
54.9678
 21
49.417
  0
LINE
  8
0
 10
54.9678
 20
49.417
 11
54.9326
 21
49.4365
  0
LINE
  8
0
 10
54.9326
 20
49.4365
 11
54.8701
 21
49.4795
  0
LINE
  8
0
 10
54.8701
 20
49.4795
 11
54.8086
 21
49.5137
  0
LINE
  8
0
 10
54.8086
 20
49.5137
 11
54.7256
 21
49.5508
  0
LINE
  8
0
 10
54.7256
 20
49.5508
 11
54.6143
 21
49.5918
  0
LINE
  8
0
 10
54.6143
 20
49.5918
 11
54.416
 21
49.6553
  0
LINE
  8
0
 10
54.416
 20
49.6553
 11
54.291
 21
49.7041
  0
LINE
  8
0
 10
54.291
 20
49.7041
 11
54.1104
 21
49.7822
  0
LINE
  8
0
 10
54.1104
 20
49.7822
 11
53.9727
 21
49.8467
  0
LINE
  8
0
 10
53.9727
 20
49.8467
 11
53.8721
 21
49.8896
  0
LINE
  8
0
 10
53.8721
 20
49.8896
 11
53.5254
 21
50.0186
  0
LINE
  8
0
 10
53.5254
 20
50.0186
 11
52.9131
 21
50.208
  0
LINE
  8
0
 10
52.9131
 20
50.208
 11
52.8018
 21
50.2441
  0
LINE
  8
0
 10
52.8018
 20
50.2441
 11
52.5762
 21
50.3086
  0
LINE
  8
0
 10
52.5762
 20
50.3086
 11
52.4629
 21
50.3369
  0
LINE
  8
0
 10
52.4629
 20
50.3369
 11
52.3115
 21
50.3711
  0
LINE
  8
0
 10
52.3115
 20
50.3711
 11
52.123
 21
50.4082
  0
LINE
  8
0
 10
52.123
 20
50.4082
 11
51.8984
 21
50.4424
  0
LINE
  8
0
 10
51.8984
 20
50.4424
 11
51.7227
 21
50.4619
  0
LINE
  8
0
 10
51.7227
 20
50.4619
 11
51.5156
 21
50.4922
  0
LINE
  8
0
 10
51.5156
 20
50.4922
 11
51.3525
 21
50.5254
  0
LINE
  8
0
 10
51.3525
 20
50.5254
 11
51.251
 21
50.5615
  0
LINE
  8
0
 10
51.251
 20
50.5615
 11
51.1396
 21
50.583
  0
LINE
  8
0
 10
51.1396
 20
50.583
 11
50.9648
 21
50.5986
  0
LINE
  8
0
 10
50.9648
 20
50.5986
 11
50.8662
 21
50.6025
  0
LINE
  8
0
 10
50.8662
 20
50.6025
 11
50.6855
 21
50.6055
  0
LINE
  8
0
 10
50.6855
 20
50.6055
 11
50.4912
 21
50.6201
  0
LINE
  8
0
 10
50.4912
 20
50.6201
 11
50.3398
 21
50.6436
  0
LINE
  8
0
 10
50.3398
 20
50.6436
 11
50.2725
 21
50.6641
  0
LINE
  8
0
 10
50.2725
 20
50.6641
 11
50.1777
 21
50.6816
  0
LINE
  8
0
 10
50.1777
 20
50.6816
 11
50.0059
 21
50.7002
  0
LINE
  8
0
 10
50.0059
 20
50.7002
 11
49.7188
 21
50.7188
  0
LINE
  8
0
 10
49.7188
 20
50.7188
 11
49.2168
 21
50.7354
  0
LINE
  8
0
 10
49.2168
 20
50.7354
 11
48.8887
 21
50.7588
  0
LINE
  8
0
 10
48.8887
 20
50.7588
 11
48.7324
 21
50.7764
  0
LINE
  8
0
 10
48.7324
 20
50.7764
 11
48.623
 21
50.7959
  0
LINE
  8
0
 10
48.623
 20
50.7959
 11
48.5039
 21
50.8291
  0
LINE
  8
0
 10
48.5039
 20
50.8291
 11
48.4658
 21
50.8359
  0
LINE
  8
0
 10
48.4658
 20
50.8359
 11
48.3867
 21
50.8408
  0
LINE
  8
0
 10
48.3867
 20
50.8408
 11
48.3154
 21
50.8359
  0
LINE
  8
0
 10
48.3154
 20
50.8359
 11
48.2334
 21
50.8242
  0
LINE
  8
0
 10
48.2334
 20
50.8242
 11
48.0713
 21
50.792
  0
LINE
  8
0
 10
48.0713
 20
50.792
 11
48.0352
 21
50.7861
  0
LINE
  8
0
 10
48.0352
 20
50.7861
 11
47.9189
 21
50.7744
  0
LINE
  8
0
 10
47.9189
 20
50.7744
 11
47.791
 21
50.7686
  0
LINE
  8
0
 10
47.791
 20
50.7686
 11
47.6543
 21
50.7686
  0
LINE
  8
0
 10
47.6543
 20
50.7686
 11
47.4639
 21
50.7773
  0
LINE
  8
0
 10
47.4639
 20
50.7773
 11
47.2725
 21
50.7949
  0
LINE
  8
0
 10
47.2725
 20
50.7949
 11
47.1328
 21
50.8145
  0
LINE
  8
0
 10
47.1328
 20
50.8145
 11
46.999
 21
50.8379
  0
LINE
  8
0
 10
46.999
 20
50.8379
 11
46.915
 21
50.8564
  0
LINE
  8
0
 10
46.915
 20
50.8564
 11
46.8369
 21
50.877
  0
LINE
  8
0
 10
46.8369
 20
50.877
 11
46.7627
 21
50.8994
  0
LINE
  8
0
 10
46.7627
 20
50.8994
 11
46.6436
 21
50.9277
  0
LINE
  8
0
 10
46.6436
 20
50.9277
 11
46.5586
 21
50.9434
  0
LINE
  8
0
 10
46.5586
 20
50.9434
 11
46.4258
 21
50.9609
  0
LINE
  8
0
 10
46.4258
 20
50.9609
 11
46.2871
 21
50.9727
  0
LINE
  8
0
 10
46.2871
 20
50.9727
 11
46.1475
 21
50.9775
  0
LINE
  8
0
 10
46.1475
 20
50.9775
 11
46.0107
 21
50.9766
  0
LINE
  8
0
 10
46.0107
 20
50.9766
 11
45.8779
 21
50.9688
  0
LINE
  8
0
 10
45.8779
 20
50.9688
 11
45.7539
 21
50.9551
  0
LINE
  8
0
 10
45.7539
 20
50.9551
 11
45.6777
 21
50.9424
  0
LINE
  8
0
 10
45.6777
 20
50.9424
 11
45.5742
 21
50.917
  0
LINE
  8
0
 10
45.5742
 20
50.917
 11
45.5146
 21
50.8975
  0
LINE
  8
0
 10
45.5146
 20
50.8975
 11
45.46
 21
50.877
  0
LINE
  8
0
 10
45.46
 20
50.877
 11
45.3506
 21
50.8438
  0
LINE
  8
0
 10
45.3506
 20
50.8438
 11
45.293
 21
50.8301
  0
LINE
  8
0
 10
45.293
 20
50.8301
 11
45.2324
 21
50.8193
  0
LINE
  8
0
 10
45.2324
 20
50.8193
 11
45.167
 21
50.8105
  0
LINE
  8
0
 10
45.167
 20
50.8105
 11
44.9795
 21
50.7979
  0
LINE
  8
0
 10
44.9795
 20
50.7979
 11
44.6846
 21
50.7988
  0
LINE
  8
0
 10
44.6846
 20
50.7988
 11
44.207
 21
50.8203
  0
LINE
  8
0
 10
44.207
 20
50.8203
 11
43.8848
 21
50.8379
  0
LINE
  8
0
 10
43.8848
 20
50.8379
 11
43.625
 21
50.8438
  0
LINE
  8
0
 10
43.625
 20
50.8438
 11
43.5068
 21
50.8408
  0
LINE
  8
0
 10
43.5068
 20
50.8408
 11
43.3545
 21
50.8271
  0
LINE
  8
0
 10
43.3545
 20
50.8271
 11
43.2373
 21
50.8066
  0
LINE
  8
0
 10
43.2373
 20
50.8066
 11
43.0547
 21
50.7627
  0
LINE
  8
0
 10
43.0547
 20
50.7627
 11
42.9355
 21
50.7402
  0
LINE
  8
0
 10
42.9355
 20
50.7402
 11
42.75
 21
50.7148
  0
LINE
  8
0
 10
42.75
 20
50.7148
 11
42.6172
 21
50.7041
  0
LINE
  8
0
 10
42.6172
 20
50.7041
 11
42.4043
 21
50.6982
  0
LINE
  8
0
 10
42.4043
 20
50.6982
 11
42.2646
 21
50.6865
  0
LINE
  8
0
 10
42.2646
 20
50.6865
 11
42.1367
 21
50.6709
  0
LINE
  8
0
 10
42.1367
 20
50.6709
 11
41.624
 21
50.5742
  0
LINE
  8
0
 10
41.624
 20
50.5742
 11
41.3574
 21
50.5293
  0
LINE
  8
0
 10
41.3574
 20
50.5293
 11
41.1055
 21
50.4727
  0
LINE
  8
0
 10
41.1055
 20
50.4727
 11
41.0117
 21
50.4463
  0
LINE
  8
0
 10
41.0117
 20
50.4463
 11
40.8584
 21
50.3916
  0
LINE
  8
0
 10
40.8584
 20
50.3916
 11
40.7422
 21
50.3633
  0
LINE
  8
0
 10
40.7422
 20
50.3633
 11
40.6846
 21
50.3564
  0
LINE
  8
0
 10
40.6846
 20
50.3564
 11
40.6348
 21
50.3555
  0
LINE
  8
0
 10
40.6348
 20
50.3555
 11
40.5576
 21
50.3457
  0
LINE
  8
0
 10
40.5576
 20
50.3457
 11
40.3799
 21
50.3105
  0
LINE
  8
0
 10
40.3799
 20
50.3105
 11
39.8096
 21
50.168
  0
LINE
  8
0
 10
39.8096
 20
50.168
 11
39.6875
 21
50.1416
  0
LINE
  8
0
 10
39.6875
 20
50.1416
 11
39.4746
 21
50.1045
  0
LINE
  8
0
 10
39.4746
 20
50.1045
 11
39.3271
 21
50.0889
  0
LINE
  8
0
 10
39.3271
 20
50.0889
 11
39.2744
 21
50.0859
  0
LINE
  8
0
 10
39.2744
 20
50.0859
 11
39.1807
 21
50.0869
  0
LINE
  8
0
 10
39.1807
 20
50.0869
 11
39.0781
 21
50.0947
  0
LINE
  8
0
 10
39.0781
 20
50.0947
 11
38.9473
 21
50.0898
  0
LINE
  8
0
 10
38.9473
 20
50.0898
 11
38.8584
 21
50.0781
  0
LINE
  8
0
 10
38.8584
 20
50.0781
 11
38.7812
 21
50.0596
  0
LINE
  8
0
 10
38.7812
 20
50.0596
 11
38.6904
 21
50.0342
  0
LINE
  8
0
 10
38.6904
 20
50.0342
 11
38.5625
 21
50.0127
  0
LINE
  8
0
 10
38.5625
 20
50.0127
 11
38.4268
 21
49.9951
  0
LINE
  8
0
 10
38.4268
 20
49.9951
 11
38.2266
 21
49.9775
  0
LINE
  8
0
 10
38.2266
 20
49.9775
 11
38.084
 21
49.9697
  0
LINE
  8
0
 10
38.084
 20
49.9697
 11
37.8936
 21
49.9512
  0
LINE
  8
0
 10
37.8936
 20
49.9512
 11
37.7324
 21
49.9287
  0
LINE
  8
0
 10
37.7324
 20
49.9287
 11
37.5615
 21
49.9014
  0
LINE
  8
0
 10
37.5615
 20
49.9014
 11
37.2734
 21
49.8467
  0
LINE
  8
0
 10
37.2734
 20
49.8467
 11
36.9609
 21
49.7744
  0
LINE
  8
0
 10
36.9609
 20
49.7744
 11
36.834
 21
49.7383
  0
LINE
  8
0
 10
36.834
 20
49.7383
 11
36.7344
 21
49.7051
  0
LINE
  8
0
 10
36.7344
 20
49.7051
 11
36.6875
 21
49.6846
  0
LINE
  8
0
 10
36.6875
 20
49.6846
 11
36.667
 21
49.6729
  0
LINE
  8
0
 10
36.667
 20
49.6729
 11
36.6152
 21
49.6562
  0
LINE
  8
0
 10
36.6152
 20
49.6562
 11
36.4111
 21
49.6113
  0
LINE
  8
0
 10
36.4111
 20
49.6113
 11
35.3174
 21
49.4209
  0
LINE
  8
0
 10
35.3174
 20
49.4209
 11
35.1719
 21
49.3887
  0
LINE
  8
0
 10
35.1719
 20
49.3887
 11
35.0459
 21
49.3545
  0
LINE
  8
0
 10
35.0459
 20
49.3545
 11
34.873
 21
49.2998
  0
LINE
  8
0
 10
34.873
 20
49.2998
 11
34.7207
 21
49.2422
  0
LINE
  8
0
 10
34.7207
 20
49.2422
 11
34.6494
 21
49.21
  0
LINE
  8
0
 10
34.6494
 20
49.21
 11
34.6172
 21
49.1934
  0
LINE
  8
0
 10
34.6172
 20
49.1934
 11
34.5107
 21
49.1465
  0
LINE
  8
0
 10
34.5107
 20
49.1465
 11
34.4346
 21
49.1152
  0
LINE
  8
0
 10
34.4346
 20
49.1152
 11
34.2383
 21
49.0439
  0
LINE
  8
0
 10
34.2383
 20
49.0439
 11
34.0449
 21
48.9844
  0
LINE
  8
0
 10
34.0449
 20
48.9844
 11
33.9062
 21
48.9492
  0
LINE
  8
0
 10
33.9062
 20
48.9492
 11
33.79
 21
48.9277
  0
LINE
  8
0
 10
33.79
 20
48.9277
 11
33.7236
 21
48.9219
  0
LINE
  8
0
 10
33.7236
 20
48.9219
 11
33.6924
 21
48.9229
  0
LINE
  8
0
 10
33.6924
 20
48.9229
 11
33.6797
 21
48.9258
  0
LINE
  8
0
 10
33.6797
 20
48.9258
 11
33.6631
 21
48.9326
  0
LINE
  8
0
 10
33.6631
 20
48.9326
 11
33.6172
 21
48.9258
  0
LINE
  8
0
 10
33.6172
 20
48.9258
 11
33.5264
 21
48.8955
  0
LINE
  8
0
 10
33.5264
 20
48.8955
 11
33.4053
 21
48.8447
  0
LINE
  8
0
 10
33.4053
 20
48.8447
 11
33.2012
 21
48.7471
  0
LINE
  8
0
 10
33.2012
 20
48.7471
 11
33.1797
 21
48.7354
  0
LINE
  8
0
 10
33.1797
 20
48.7354
 11
32.9053
 21
48.6104
  0
LINE
  8
0
 10
32.9053
 20
48.6104
 11
32.6963
 21
48.5293
  0
LINE
  8
0
 10
32.6963
 20
48.5293
 11
32.6006
 21
48.499
  0
LINE
  8
0
 10
32.6006
 20
48.499
 11
32.4619
 21
48.4609
  0
LINE
  8
0
 10
32.4619
 20
48.4609
 11
32.3838
 21
48.4336
  0
LINE
  8
0
 10
32.3838
 20
48.4336
 11
32.3369
 21
48.415
  0
LINE
  8
0
 10
32.3369
 20
48.415
 11
32.3008
 21
48.3975
  0
LINE
  8
0
 10
32.3008
 20
48.3975
 11
32.1768
 21
48.3125
  0
LINE
  8
0
 10
32.1768
 20
48.3125
 11
32.0381
 21
48.2314
  0
LINE
  8
0
 10
32.0381
 20
48.2314
 11
31.9463
 21
48.1826
  0
LINE
  8
0
 10
31.9463
 20
48.1826
 11
31.8223
 21
48.1211
  0
LINE
  8
0
 10
31.8223
 20
48.1211
 11
31.6279
 21
48.0361
  0
LINE
  8
0
 10
31.6279
 20
48.0361
 11
31.5303
 21
48.0059
  0
LINE
  8
0
 10
31.5303
 20
48.0059
 11
31.5166
 21
48.0029
  0
LINE
  8
0
 10
31.5166
 20
48.0029
 11
31.4814
 21
48.001
  0
LINE
  8
0
 10
31.4814
 20
48.001
 11
31.4473
 21
47.9912
  0
LINE
  8
0
 10
31.4473
 20
47.9912
 11
31.4111
 21
47.9688
  0
LINE
  8
0
 10
31.4111
 20
47.9688
 11
31.3994
 21
47.9551
  0
LINE
  8
0
 10
31.3994
 20
47.9551
 11
31.3564
 21
47.9375
  0
LINE
  8
0
 10
31.3564
 20
47.9375
 11
31.2617
 21
47.9131
  0
LINE
  8
0
 10
31.2617
 20
47.9131
 11
31.0879
 21
47.8799
  0
LINE
  8
0
 10
31.0879
 20
47.8799
 11
30.7871
 21
47.835
  0
LINE
  8
0
 10
30.7871
 20
47.835
 11
30.5459
 21
47.7871
  0
LINE
  8
0
 10
30.5459
 20
47.7871
 11
30.4707
 21
47.7646
  0
LINE
  8
0
 10
30.4707
 20
47.7646
 11
30.4512
 21
47.7539
  0
LINE
  8
0
 10
30.4512
 20
47.7539
 11
30.4346
 21
47.7354
  0
LINE
  8
0
 10
30.4346
 20
47.7354
 11
30.3955
 21
47.7061
  0
LINE
  8
0
 10
30.3955
 20
47.7061
 11
30.3359
 21
47.6719
  0
LINE
  8
0
 10
30.3359
 20
47.6719
 11
30.2617
 21
47.6338
  0
LINE
  8
0
 10
30.2617
 20
47.6338
 11
30.0469
 21
47.54
  0
LINE
  8
0
 10
30.0469
 20
47.54
 11
29.8457
 21
47.4658
  0
LINE
  8
0
 10
29.8457
 20
47.4658
 11
29.7178
 21
47.4248
  0
LINE
  8
0
 10
29.7178
 20
47.4248
 11
29.5244
 21
47.374
  0
LINE
  8
0
 10
29.5244
 20
47.374
 11
29.4863
 21
47.3604
  0
LINE
  8
0
 10
29.4863
 20
47.3604
 11
29.4492
 21
47.3447
  0
LINE
  8
0
 10
29.4492
 20
47.3447
 11
29.3945
 21
47.3154
  0
LINE
  8
0
 10
29.3945
 20
47.3154
 11
29.3369
 21
47.2783
  0
LINE
  8
0
 10
29.3369
 20
47.2783
 11
29.2529
 21
47.2129
  0
LINE
  8
0
 10
29.2529
 20
47.2129
 11
29.125
 21
47.0977
  0
LINE
  8
0
 10
29.125
 20
47.0977
 11
28.8301
 21
46.8057
  0
LINE
  8
0
 10
28.8301
 20
46.8057
 11
28.7539
 21
46.7266
  0
LINE
  8
0
 10
28.7539
 20
46.7266
 11
28.5654
 21
46.5195
  0
LINE
  8
0
 10
28.5654
 20
46.5195
 11
28.4297
 21
46.3564
  0
LINE
  8
0
 10
28.4297
 20
46.3564
 11
28.3457
 21
46.2432
  0
LINE
  8
0
 10
28.3457
 20
46.2432
 11
28.3057
 21
46.1758
  0
LINE
  8
0
 10
28.3057
 20
46.1758
 11
28.0566
 21
45.668
  0
LINE
  8
0
 10
28.0566
 20
45.668
 11
28.04
 21
45.6279
  0
LINE
  8
0
 10
28.04
 20
45.6279
 11
27.9961
 21
45.4951
  0
LINE
  8
0
 10
27.9961
 20
45.4951
 11
27.9785
 21
45.415
  0
LINE
  8
0
 10
27.9785
 20
45.415
 11
27.9746
 21
45.3779
  0
LINE
  8
0
 10
27.9746
 20
45.3779
 11
27.9746
 21
45.3486
  0
LINE
  8
0
 10
27.9746
 20
45.3486
 11
27.9619
 21
45.2383
  0
LINE
  8
0
 10
27.9619
 20
45.2383
 11
27.9258
 21
45.0586
  0
LINE
  8
0
 10
27.9258
 20
45.0586
 11
27.8848
 21
44.8965
  0
LINE
  8
0
 10
27.8848
 20
44.8965
 11
27.8369
 21
44.7285
  0
LINE
  8
0
 10
27.8369
 20
44.7285
 11
27.7578
 21
44.4922
  0
LINE
  8
0
 10
27.7578
 20
44.4922
 11
27.6924
 21
44.333
  0
LINE
  8
0
 10
27.6924
 20
44.333
 11
27.6357
 21
44.2227
  0
LINE
  8
0
 10
27.6357
 20
44.2227
 11
27.6172
 21
44.1777
  0
LINE
  8
0
 10
27.6172
 20
44.1777
 11
27.6064
 21
44.1465
  0
LINE
  8
0
 10
27.6064
 20
44.1465
 11
27.5938
 21
44.0967
  0
LINE
  8
0
 10
27.5938
 20
44.0967
 11
27.584
 21
44.042
  0
LINE
  8
0
 10
27.584
 20
44.042
 11
27.5771
 21
43.9795
  0
LINE
  8
0
 10
27.5771
 20
43.9795
 11
27.5723
 21
43.8799
  0
LINE
  8
0
 10
27.5723
 20
43.8799
 11
27.5742
 21
43.5596
  0
LINE
  8
0
 10
27.5742
 20
43.5596
 11
27.585
 21
42.9795
  0
LINE
  8
0
 10
27.585
 20
42.9795
 11
27.5811
 21
42.7314
  0
LINE
  8
0
 10
27.5811
 20
42.7314
 11
27.5732
 21
42.6465
  0
LINE
  8
0
 10
27.5732
 20
42.6465
 11
27.5674
 21
42.6152
  0
LINE
  8
0
 10
27.5674
 20
42.6152
 11
27.5566
 21
42.5791
  0
LINE
  8
0
 10
27.5566
 20
42.5791
 11
27.5371
 21
42.543
  0
LINE
  8
0
 10
27.5371
 20
42.543
 11
27.5049
 21
42.5
  0
LINE
  8
0
 10
27.5049
 20
42.5
 11
27.4922
 21
42.4717
  0
LINE
  8
0
 10
27.4922
 20
42.4717
 11
27.4873
 21
42.4346
  0
LINE
  8
0
 10
27.4873
 20
42.4346
 11
27.498
 21
42.375
  0
LINE
  8
0
 10
27.498
 20
42.375
 11
27.5322
 21
42.2793
  0
LINE
  8
0
 10
27.5322
 20
42.2793
 11
27.541
 21
42.248
  0
LINE
  8
0
 10
27.541
 20
42.248
 11
27.5547
 21
42.1699
  0
LINE
  8
0
 10
27.5547
 20
42.1699
 11
27.5645
 21
42.0742
  0
LINE
  8
0
 10
27.5645
 20
42.0742
 11
27.5742
 21
41.9033
  0
LINE
  8
0
 10
27.5742
 20
41.9033
 11
27.5762
 21
41.7773
  0
LINE
  8
0
 10
27.5762
 20
41.7773
 11
27.5752
 21
41.5762
  0
LINE
  8
0
 10
27.5752
 20
41.5762
 11
27.5674
 21
41.3711
  0
LINE
  8
0
 10
27.5674
 20
41.3711
 11
27.5537
 21
41.1738
  0
LINE
  8
0
 10
27.5537
 20
41.1738
 11
27.5273
 21
40.9404
  0
LINE
  8
0
 10
27.5273
 20
40.9404
 11
27.5107
 21
40.8447
  0
LINE
  8
0
 10
27.5107
 20
40.8447
 11
27.502
 21
40.8027
  0
LINE
  8
0
 10
27.502
 20
40.8027
 11
27.4824
 21
40.7344
  0
LINE
  8
0
 10
27.4824
 20
40.7344
 11
27.4727
 21
40.708
  0
LINE
  8
0
 10
27.4727
 20
40.708
 11
27.4619
 21
40.6885
  0
LINE
  8
0
 10
27.4619
 20
40.6885
 11
27.4219
 21
40.6328
  0
LINE
  8
0
 10
27.4219
 20
40.6328
 11
27.377
 21
40.583
  0
LINE
  8
0
 10
27.377
 20
40.583
 11
27.3535
 21
40.5596
  0
LINE
  8
0
 10
27.3535
 20
40.5596
 11
27.2764
 21
40.4961
  0
LINE
  8
0
 10
27.2764
 20
40.4961
 11
27.2217
 21
40.4609
  0
LINE
  8
0
 10
27.2217
 20
40.4609
 11
27.1934
 21
40.4453
  0
LINE
  8
0
 10
27.1934
 20
40.4453
 11
27.1348
 21
40.418
  0
LINE
  8
0
 10
27.1348
 20
40.418
 11
27.0742
 21
40.3965
  0
LINE
  8
0
 10
27.0742
 20
40.3965
 11
27.0439
 21
40.3877
  0
LINE
  8
0
 10
27.0439
 20
40.3877
 11
26.9502
 21
40.3701
  0
LINE
  8
0
 10
26.9502
 20
40.3701
 11
26.8867
 21
40.3662
  0
LINE
  8
0
 10
72.3555
 20
39.1602
 11
72.2793
 21
39.167
  0
LINE
  8
0
 10
72.2793
 20
39.167
 11
72.2031
 21
39.1807
  0
LINE
  8
0
 10
72.2031
 20
39.1807
 11
72.1641
 21
39.1904
  0
LINE
  8
0
 10
72.1641
 20
39.1904
 11
72.0732
 21
39.2178
  0
LINE
  8
0
 10
72.0732
 20
39.2178
 11
71.8096
 21
39.2656
  0
LINE
  8
0
 10
71.8096
 20
39.2656
 11
71.6387
 21
39.2881
  0
LINE
  8
0
 10
71.6387
 20
39.2881
 11
71.582
 21
39.2988
  0
LINE
  8
0
 10
71.582
 20
39.2988
 11
71.4531
 21
39.3359
  0
LINE
  8
0
 10
71.4531
 20
39.3359
 11
71.416
 21
39.3496
  0
LINE
  8
0
 10
71.416
 20
39.3496
 11
71.3223
 21
39.3906
  0
LINE
  8
0
 10
71.3223
 20
39.3906
 11
71.2441
 21
39.4316
  0
LINE
  8
0
 10
71.2441
 20
39.4316
 11
70.9492
 21
39.6074
  0
LINE
  8
0
 10
70.9492
 20
39.6074
 11
70.6738
 21
39.7588
  0
LINE
  8
0
 10
70.6738
 20
39.7588
 11
70.4902
 21
39.8496
  0
LINE
  8
0
 10
70.4902
 20
39.8496
 11
70.4209
 21
39.8896
  0
LINE
  8
0
 10
70.4209
 20
39.8896
 11
70.3164
 21
39.9619
  0
LINE
  8
0
 10
70.3164
 20
39.9619
 11
70.2402
 21
40.0264
  0
LINE
  8
0
 10
70.2402
 20
40.0264
 11
70.1934
 21
40.0771
  0
LINE
  8
0
 10
70.1934
 20
40.0771
 11
70.167
 21
40.1113
  0
LINE
  8
0
 10
70.167
 20
40.1113
 11
70.0908
 21
40.1885
  0
LINE
  8
0
 10
70.0908
 20
40.1885
 11
69.9668
 21
40.2959
  0
LINE
  8
0
 10
69.9668
 20
40.2959
 11
69.7812
 21
40.4385
  0
LINE
  8
0
 10
69.7812
 20
40.4385
 11
69.3613
 21
40.7275
  0
LINE
  8
0
 10
69.3613
 20
40.7275
 11
67.7773
 21
40.6914
  0
LINE
  8
0
 10
67.7773
 20
40.6914
 11
67.5713
 21
40.6758
  0
LINE
  8
0
 10
67.5713
 20
40.6758
 11
67.4365
 21
40.6533
  0
LINE
  8
0
 10
67.4365
 20
40.6533
 11
67.376
 21
40.6338
  0
LINE
  8
0
 10
67.376
 20
40.6338
 11
67.2793
 21
40.583
  0
LINE
  8
0
 10
67.2793
 20
40.583
 11
67.2314
 21
40.5654
  0
LINE
  8
0
 10
67.2314
 20
40.5654
 11
67.1738
 21
40.5527
  0
LINE
  8
0
 10
67.1738
 20
40.5527
 11
67.085
 21
40.543
  0
LINE
  8
0
 10
67.085
 20
40.543
 11
66.9717
 21
40.5381
  0
LINE
  8
0
 10
66.9717
 20
40.5381
 11
66.7275
 21
40.541
  0
LINE
  8
0
 10
66.7275
 20
40.541
 11
66.418
 21
40.5557
  0
LINE
  8
0
 10
66.418
 20
40.5557
 11
66.2598
 21
40.5742
  0
LINE
  8
0
 10
66.2598
 20
40.5742
 11
66.1602
 21
40.5957
  0
LINE
  8
0
 10
66.1602
 20
40.5957
 11
66.1016
 21
40.6133
  0
LINE
  8
0
 10
66.1016
 20
40.6133
 11
66.0459
 21
40.6348
  0
LINE
  8
0
 10
66.0459
 20
40.6348
 11
65.9697
 21
40.6748
  0
LINE
  8
0
 10
65.9697
 20
40.6748
 11
65.9443
 21
40.6904
  0
LINE
  8
0
 10
65.9443
 20
40.6904
 11
65.8721
 21
40.7451
  0
LINE
  8
0
 10
65.8721
 20
40.7451
 11
65.7988
 21
40.8115
  0
LINE
  8
0
 10
65.7988
 20
40.8115
 11
65.6602
 21
40.957
  0
LINE
  8
0
 10
65.6602
 20
40.957
 11
65.4951
 21
41.1445
  0
LINE
  8
0
 10
65.4951
 20
41.1445
 11
65.3955
 21
41.2607
  0
LINE
  8
0
 10
65.3955
 20
41.2607
 11
65.0703
 21
41.666
  0
LINE
  8
0
 10
65.0703
 20
41.666
 11
64.9609
 21
41.8154
  0
LINE
  8
0
 10
64.9609
 20
41.8154
 11
64.8799
 21
41.9434
  0
LINE
  8
0
 10
64.8799
 20
41.9434
 11
64.8564
 21
41.9863
  0
LINE
  8
0
 10
64.8564
 20
41.9863
 11
64.7012
 21
42.2061
  0
LINE
  8
0
 10
64.7012
 20
42.2061
 11
64.5068
 21
42.4482
  0
LINE
  8
0
 10
64.5068
 20
42.4482
 11
64.4316
 21
42.5576
  0
LINE
  8
0
 10
64.4316
 20
42.5576
 11
64.4238
 21
42.5771
  0
LINE
  8
0
 10
64.4238
 20
42.5771
 11
64.3555
 21
42.6553
  0
LINE
  8
0
 10
64.3555
 20
42.6553
 11
63.877
 21
43.1504
  0
LINE
  8
0
 10
63.877
 20
43.1504
 11
63.1533
 21
43.877
  0
LINE
  8
0
 10
63.1533
 20
43.877
 11
62.7607
 21
44.2588
  0
LINE
  8
0
 10
62.7607
 20
44.2588
 11
62.4658
 21
44.5332
  0
LINE
  8
0
 10
62.4658
 20
44.5332
 11
62.3154
 21
44.6621
  0
LINE
  8
0
 10
62.3154
 20
44.6621
 11
62.2324
 21
44.7246
  0
LINE
  8
0
 10
62.2324
 20
44.7246
 11
62.1904
 21
44.748
  0
LINE
  8
0
 10
62.1904
 20
44.748
 11
62.1807
 21
44.752
  0
LINE
  8
0
 10
62.1807
 20
44.752
 11
62.1035
 21
44.7588
  0
LINE
  8
0
 10
62.1035
 20
44.7588
 11
62.0566
 21
44.7695
  0
LINE
  8
0
 10
62.0566
 20
44.7695
 11
62.0088
 21
44.7861
  0
LINE
  8
0
 10
62.0088
 20
44.7861
 11
61.9385
 21
44.8184
  0
LINE
  8
0
 10
61.9385
 20
44.8184
 11
61.8701
 21
44.8604
  0
LINE
  8
0
 10
61.8701
 20
44.8604
 11
61.8047
 21
44.9102
  0
LINE
  8
0
 10
61.8047
 20
44.9102
 11
61.7432
 21
44.9678
  0
LINE
  8
0
 10
61.7432
 20
44.9678
 11
61.6875
 21
45.0312
  0
LINE
  8
0
 10
61.6875
 20
45.0312
 11
61.6543
 21
45.0762
  0
LINE
  8
0
 10
61.6543
 20
45.0762
 11
61.6113
 21
45.1475
  0
LINE
  8
0
 10
61.6113
 20
45.1475
 11
61.5879
 21
45.1973
  0
LINE
  8
0
 10
61.5879
 20
45.1973
 11
61.5488
 21
45.2998
  0
LINE
  8
0
 10
61.5488
 20
45.2998
 11
61.5195
 21
45.3594
  0
LINE
  8
0
 10
61.5195
 20
45.3594
 11
61.4844
 21
45.4238
  0
LINE
  8
0
 10
61.4844
 20
45.4238
 11
61.4365
 21
45.5
  0
LINE
  8
0
 10
61.4365
 20
45.5
 11
61.3848
 21
45.5723
  0
LINE
  8
0
 10
61.3848
 20
45.5723
 11
61.29
 21
45.6943
  0
LINE
  8
0
 10
61.29
 20
45.6943
 11
61.2471
 21
45.7607
  0
LINE
  8
0
 10
61.2471
 20
45.7607
 11
61.1787
 21
45.8867
  0
LINE
  8
0
 10
61.1787
 20
45.8867
 11
61.1436
 21
45.9668
  0
LINE
  8
0
 10
61.1436
 20
45.9668
 11
61.1064
 21
46.0762
  0
LINE
  8
0
 10
61.1064
 20
46.0762
 11
61.0713
 21
46.1582
  0
LINE
  8
0
 10
61.0713
 20
46.1582
 11
61.0137
 21
46.2744
  0
LINE
  8
0
 10
61.0137
 20
46.2744
 11
60.9512
 21
46.3818
  0
LINE
  8
0
 10
60.9512
 20
46.3818
 11
60.8857
 21
46.4785
  0
LINE
  8
0
 10
60.8857
 20
46.4785
 11
60.8545
 21
46.5303
  0
LINE
  8
0
 10
60.8545
 20
46.5303
 11
60.8281
 21
46.583
  0
LINE
  8
0
 10
60.8281
 20
46.583
 11
60.8047
 21
46.6387
  0
LINE
  8
0
 10
60.8047
 20
46.6387
 11
60.7852
 21
46.6963
  0
LINE
  8
0
 10
60.7852
 20
46.6963
 11
60.7627
 21
46.79
  0
LINE
  8
0
 10
60.7627
 20
46.79
 11
60.752
 21
46.8574
  0
LINE
  8
0
 10
60.752
 20
46.8574
 11
60.7422
 21
46.9697
  0
LINE
  8
0
 10
60.7422
 20
46.9697
 11
60.7402
 21
47.0107
  0
LINE
  8
0
 10
60.7402
 20
47.0107
 11
60.7402
 21
47.1426
  0
LINE
  8
0
 10
60.7402
 20
47.1426
 11
60.7471
 21
47.292
  0
LINE
  8
0
 10
60.7471
 20
47.292
 11
60.7666
 21
47.5225
  0
LINE
  8
0
 10
60.7666
 20
47.5225
 11
60.791
 21
47.748
  0
LINE
  8
0
 10
60.791
 20
47.748
 11
60.8125
 21
47.9893
  0
LINE
  8
0
 10
60.8125
 20
47.9893
 11
60.8389
 21
48.4033
  0
LINE
  8
0
 10
60.8389
 20
48.4033
 11
60.8457
 21
48.6523
  0
LINE
  8
0
 10
60.8457
 20
48.6523
 11
60.8369
 21
48.8936
  0
LINE
  8
0
 10
60.8369
 20
48.8936
 11
60.8057
 21
49.2471
  0
LINE
  8
0
 10
60.8057
 20
49.2471
 11
60.7676
 21
49.5596
  0
LINE
  8
0
 10
60.7676
 20
49.5596
 11
60.7412
 21
49.7402
  0
LINE
  8
0
 10
60.7412
 20
49.7402
 11
60.7139
 21
49.9082
  0
LINE
  8
0
 10
60.7139
 20
49.9082
 11
60.667
 21
50.1387
  0
LINE
  8
0
 10
60.667
 20
50.1387
 11
60.6289
 21
50.2676
  0
LINE
  8
0
 10
60.6289
 20
50.2676
 11
60.6035
 21
50.3115
  0
LINE
  8
0
 10
60.6035
 20
50.3115
 11
60.5615
 21
50.3711
  0
LINE
  8
0
 10
60.5615
 20
50.3711
 11
60.4531
 21
50.5039
  0
LINE
  8
0
 10
60.4531
 20
50.5039
 11
60.3799
 21
50.585
  0
LINE
  8
0
 10
60.3799
 20
50.585
 11
60.1367
 21
50.8398
  0
LINE
  8
0
 10
60.1367
 20
50.8398
 11
60.0771
 21
50.9121
  0
LINE
  8
0
 10
60.0771
 20
50.9121
 11
60.041
 21
50.9619
  0
LINE
  8
0
 10
60.041
 20
50.9619
 11
60.0039
 21
51.0273
  0
LINE
  8
0
 10
60.0039
 20
51.0273
 11
59.9814
 21
51.0771
  0
LINE
  8
0
 10
59.9814
 20
51.0771
 11
59.9688
 21
51.1123
  0
LINE
  8
0
 10
59.9688
 20
51.1123
 11
59.9375
 21
51.2344
  0
LINE
  8
0
 10
59.9375
 20
51.2344
 11
59.8828
 21
51.4883
  0
LINE
  8
0
 10
59.8828
 20
51.4883
 11
59.8311
 21
51.6709
  0
LINE
  8
0
 10
59.8311
 20
51.6709
 11
59.8105
 21
51.7236
  0
LINE
  8
0
 10
59.8105
 20
51.7236
 11
59.792
 21
51.7861
  0
LINE
  8
0
 10
59.792
 20
51.7861
 11
59.7803
 21
51.8516
  0
LINE
  8
0
 10
59.7803
 20
51.8516
 11
59.7744
 21
51.918
  0
LINE
  8
0
 10
59.7744
 20
51.918
 11
59.7744
 21
51.9844
  0
LINE
  8
0
 10
59.7744
 20
51.9844
 11
59.7803
 21
52.0508
  0
LINE
  8
0
 10
59.7803
 20
52.0508
 11
59.792
 21
52.1162
  0
LINE
  8
0
 10
59.792
 20
52.1162
 11
59.8096
 21
52.1807
  0
LINE
  8
0
 10
59.8096
 20
52.1807
 11
59.832
 21
52.2432
  0
LINE
  8
0
 10
59.832
 20
52.2432
 11
59.8594
 21
52.3027
  0
LINE
  8
0
 10
59.8594
 20
52.3027
 11
59.875
 21
52.332
  0
LINE
  8
0
 10
59.875
 20
52.332
 11
59.9102
 21
52.3867
  0
LINE
  8
0
 10
59.9102
 20
52.3867
 11
59.9492
 21
52.4375
  0
LINE
  8
0
 10
59.9492
 20
52.4375
 11
59.9932
 21
52.4844
  0
LINE
  8
0
 10
59.9932
 20
52.4844
 11
60.041
 21
52.5254
  0
LINE
  8
0
 10
60.041
 20
52.5254
 11
60.0928
 21
52.5605
  0
LINE
  8
0
 10
60.0928
 20
52.5605
 11
60.1426
 21
52.5859
  0
LINE
  8
0
 10
60.1426
 20
52.5859
 11
60.2188
 21
52.6133
  0
LINE
  8
0
 10
60.2188
 20
52.6133
 11
60.3086
 21
52.6328
  0
LINE
  8
0
 10
60.3086
 20
52.6328
 11
60.376
 21
52.6416
  0
LINE
  8
0
 10
60.376
 20
52.6416
 11
60.4873
 21
52.6494
  0
LINE
  8
0
 10
60.4873
 20
52.6494
 11
60.6104
 21
52.6494
  0
LINE
  8
0
 10
60.6104
 20
52.6494
 11
60.6992
 21
52.6455
  0
LINE
  8
0
 10
60.6992
 20
52.6455
 11
60.8418
 21
52.6328
  0
LINE
  8
0
 10
60.8418
 20
52.6328
 11
60.9434
 21
52.6211
  0
LINE
  8
0
 10
60.9434
 20
52.6211
 11
61.2148
 21
52.5771
  0
LINE
  8
0
 10
61.2148
 20
52.5771
 11
61.6279
 21
52.4863
  0
LINE
  8
0
 10
61.6279
 20
52.4863
 11
62.3457
 21
52.3252
  0
LINE
  8
0
 10
62.3457
 20
52.3252
 11
62.5
 21
52.3047
  0
LINE
  8
0
 10
62.5
 20
52.3047
 11
62.5713
 21
52.3008
  0
LINE
  8
0
 10
62.5713
 20
52.3008
 11
62.5977
 21
52.2939
  0
LINE
  8
0
 10
62.5977
 20
52.2939
 11
62.6152
 21
52.2871
  0
LINE
  8
0
 10
62.6152
 20
52.2871
 11
62.6543
 21
52.2666
  0
LINE
  8
0
 10
62.6543
 20
52.2666
 11
62.7178
 21
52.2197
  0
LINE
  8
0
 10
62.7178
 20
52.2197
 11
62.7646
 21
52.1777
  0
LINE
  8
0
 10
62.7646
 20
52.1777
 11
62.8418
 21
52.0967
  0
LINE
  8
0
 10
62.8418
 20
52.0967
 11
63.3711
 21
51.4756
  0
LINE
  8
0
 10
63.3711
 20
51.4756
 11
63.4756
 21
51.3281
  0
LINE
  8
0
 10
63.4756
 20
51.3281
 11
63.54
 21
51.2227
  0
LINE
  8
0
 10
63.54
 20
51.2227
 11
63.5762
 21
51.1592
  0
LINE
  8
0
 10
63.5762
 20
51.1592
 11
63.6396
 21
51.0723
  0
LINE
  8
0
 10
63.6396
 20
51.0723
 11
63.7266
 21
50.9668
  0
LINE
  8
0
 10
63.7266
 20
50.9668
 11
63.8115
 21
50.8711
  0
LINE
  8
0
 10
63.8115
 20
50.8711
 11
63.9424
 21
50.7344
  0
LINE
  8
0
 10
63.9424
 20
50.7344
 11
64.2139
 21
50.4658
  0
LINE
  8
0
 10
64.2139
 20
50.4658
 11
64.2803
 21
50.3896
  0
LINE
  8
0
 10
64.2803
 20
50.3896
 11
64.3154
 21
50.3389
  0
LINE
  8
0
 10
64.3154
 20
50.3389
 11
64.334
 21
50.3066
  0
LINE
  8
0
 10
64.334
 20
50.3066
 11
64.3486
 21
50.2734
  0
LINE
  8
0
 10
64.3486
 20
50.2734
 11
64.3701
 21
50.2002
  0
LINE
  8
0
 10
64.3701
 20
50.2002
 11
64.3848
 21
50.1133
  0
LINE
  8
0
 10
64.3848
 20
50.1133
 11
64.4199
 21
49.8203
  0
LINE
  8
0
 10
64.4199
 20
49.8203
 11
64.4482
 21
49.6445
  0
LINE
  8
0
 10
64.4482
 20
49.6445
 11
64.4736
 21
49.5156
  0
LINE
  8
0
 10
64.4736
 20
49.5156
 11
64.5234
 21
49.3057
  0
LINE
  8
0
 10
64.5234
 20
49.3057
 11
64.5713
 21
49.1396
  0
LINE
  8
0
 10
64.5713
 20
49.1396
 11
64.6416
 21
48.9307
  0
LINE
  8
0
 10
64.6416
 20
48.9307
 11
64.7246
 21
48.7178
  0
LINE
  8
0
 10
64.7246
 20
48.7178
 11
64.7607
 21
48.6328
  0
LINE
  8
0
 10
64.7607
 20
48.6328
 11
64.8115
 21
48.501
  0
LINE
  8
0
 10
64.8115
 20
48.501
 11
64.875
 21
48.3135
  0
LINE
  8
0
 10
64.875
 20
48.3135
 11
64.9189
 21
48.167
  0
LINE
  8
0
 10
64.9189
 20
48.167
 11
64.959
 21
48.0205
  0
LINE
  8
0
 10
64.959
 20
48.0205
 11
65.0234
 21
47.7354
  0
LINE
  8
0
 10
65.0234
 20
47.7354
 11
65.0469
 21
47.6035
  0
LINE
  8
0
 10
65.0469
 20
47.6035
 11
65.0635
 21
47.4814
  0
LINE
  8
0
 10
65.0635
 20
47.4814
 11
65.0723
 21
47.373
  0
LINE
  8
0
 10
65.0723
 20
47.373
 11
65.0723
 21
47.2803
  0
LINE
  8
0
 10
65.0723
 20
47.2803
 11
65.0596
 21
47.1826
  0
LINE
  8
0
 10
65.0596
 20
47.1826
 11
65.0527
 21
47.1504
  0
LINE
  8
0
 10
65.0527
 20
47.1504
 11
65.0322
 21
47.0771
  0
LINE
  8
0
 10
65.0322
 20
47.0771
 11
65.0078
 21
47.0166
  0
LINE
  8
0
 10
65.0078
 20
47.0166
 11
64.9775
 21
46.9609
  0
LINE
  8
0
 10
64.9775
 20
46.9609
 11
64.9521
 21
46.8975
  0
LINE
  8
0
 10
64.9521
 20
46.8975
 11
64.9365
 21
46.833
  0
LINE
  8
0
 10
64.9365
 20
46.833
 11
64.9316
 21
46.7871
  0
LINE
  8
0
 10
64.9316
 20
46.7871
 11
64.9326
 21
46.7158
  0
LINE
  8
0
 10
64.9326
 20
46.7158
 11
64.9443
 21
46.6377
  0
LINE
  8
0
 10
64.9443
 20
46.6377
 11
64.958
 21
46.582
  0
LINE
  8
0
 10
64.958
 20
46.582
 11
64.9766
 21
46.5215
  0
LINE
  8
0
 10
64.9766
 20
46.5215
 11
65.0137
 21
46.4229
  0
LINE
  8
0
 10
65.0137
 20
46.4229
 11
65.0625
 21
46.3115
  0
LINE
  8
0
 10
65.0625
 20
46.3115
 11
65.123
 21
46.1865
  0
LINE
  8
0
 10
65.123
 20
46.1865
 11
65.2588
 21
45.9307
  0
LINE
  8
0
 10
65.2588
 20
45.9307
 11
65.3662
 21
45.7441
  0
LINE
  8
0
 10
65.3662
 20
45.7441
 11
65.4414
 21
45.626
  0
LINE
  8
0
 10
65.4414
 20
45.626
 11
65.5391
 21
45.4922
  0
LINE
  8
0
 10
65.5391
 20
45.4922
 11
65.6133
 21
45.4072
  0
LINE
  8
0
 10
65.6133
 20
45.4072
 11
65.6641
 21
45.3564
  0
LINE
  8
0
 10
65.6641
 20
45.3564
 11
65.7441
 21
45.2871
  0
LINE
  8
0
 10
65.7441
 20
45.2871
 11
65.8008
 21
45.2441
  0
LINE
  8
0
 10
65.8008
 20
45.2441
 11
65.8613
 21
45.2031
  0
LINE
  8
0
 10
65.8613
 20
45.2031
 11
66.0488
 21
45.0957
  0
LINE
  8
0
 10
66.0488
 20
45.0957
 11
66.3398
 21
44.9336
  0
LINE
  8
0
 10
66.3398
 20
44.9336
 11
66.6582
 21
44.7363
  0
LINE
  8
0
 10
66.6582
 20
44.7363
 11
67.1299
 21
44.4824
  0
LINE
  8
0
 10
67.1299
 20
44.4824
 11
67.2998
 21
44.4023
  0
LINE
  8
0
 10
67.2998
 20
44.4023
 11
67.4502
 21
44.3428
  0
LINE
  8
0
 10
67.4502
 20
44.3428
 11
67.5234
 21
44.3193
  0
LINE
  8
0
 10
67.5234
 20
44.3193
 11
67.6719
 21
44.2822
  0
LINE
  8
0
 10
67.6719
 20
44.2822
 11
67.835
 21
44.2549
  0
LINE
  8
0
 10
67.835
 20
44.2549
 11
68.2285
 21
44.2021
  0
LINE
  8
0
 10
68.2285
 20
44.2021
 11
68.6328
 21
44.1377
  0
LINE
  8
0
 10
68.6328
 20
44.1377
 11
68.877
 21
44.0957
  0
LINE
  8
0
 10
68.877
 20
44.0957
 11
69.0928
 21
44.0674
  0
LINE
  8
0
 10
69.0928
 20
44.0674
 11
69.25
 21
44.0527
  0
LINE
  8
0
 10
69.25
 20
44.0527
 11
69.3584
 21
44.0498
  0
LINE
  8
0
 10
69.3584
 20
44.0498
 11
69.5215
 21
44.0342
  0
LINE
  8
0
 10
69.5215
 20
44.0342
 11
69.9375
 21
43.958
  0
LINE
  8
0
 10
69.9375
 20
43.958
 11
70.46
 21
43.8867
  0
LINE
  8
0
 10
70.46
 20
43.8867
 11
70.6484
 21
43.8506
  0
LINE
  8
0
 10
70.6484
 20
43.8506
 11
70.7881
 21
43.8145
  0
LINE
  8
0
 10
70.7881
 20
43.8145
 11
70.9131
 21
43.7744
  0
LINE
  8
0
 10
70.9131
 20
43.7744
 11
71.0205
 21
43.7305
  0
LINE
  8
0
 10
71.0205
 20
43.7305
 11
71.0879
 21
43.6953
  0
LINE
  8
0
 10
71.0879
 20
43.6953
 11
71.1426
 21
43.6602
  0
LINE
  8
0
 10
71.1426
 20
43.6602
 11
71.1582
 21
43.6484
  0
LINE
  8
0
 10
71.1582
 20
43.6484
 11
71.1836
 21
43.624
  0
LINE
  8
0
 10
71.1836
 20
43.624
 11
71.2061
 21
43.5938
  0
LINE
  8
0
 10
71.2061
 20
43.5938
 11
71.2627
 21
43.5439
  0
LINE
  8
0
 10
71.2627
 20
43.5439
 11
71.4902
 21
43.377
  0
LINE
  8
0
 10
71.4902
 20
43.377
 11
71.8936
 21
43.1064
  0
LINE
  8
0
 10
71.8936
 20
43.1064
 11
72.2188
 21
42.8975
  0
LINE
  8
0
 10
72.2188
 20
42.8975
 11
72.2812
 21
42.8623
  0
LINE
  8
0
 10
72.2812
 20
42.8623
 11
72.4316
 21
42.793
  0
LINE
  8
0
 10
72.4316
 20
42.793
 11
72.5156
 21
42.7627
  0
LINE
  8
0
 10
72.5156
 20
42.7627
 11
72.5801
 21
42.7432
  0
LINE
  8
0
 10
72.5801
 20
42.7432
 11
72.6416
 21
42.7285
  0
LINE
  8
0
 10
72.6416
 20
42.7285
 11
72.9248
 21
42.6895
  0
LINE
  8
0
 10
72.9248
 20
42.6895
 11
72.9307
 21
41.1201
  0
LINE
  8
0
 10
72.9307
 20
41.1201
 11
72.9395
 21
40.873
  0
LINE
  8
0
 10
72.9395
 20
40.873
 11
72.9561
 21
40.626
  0
LINE
  8
0
 10
72.9561
 20
40.626
 11
72.9707
 21
40.4854
  0
LINE
  8
0
 10
72.9707
 20
40.4854
 11
72.999
 21
40.3047
  0
LINE
  8
0
 10
72.999
 20
40.3047
 11
73.04
 21
40.0908
  0
LINE
  8
0
 10
73.04
 20
40.0908
 11
73.0557
 21
39.9678
  0
LINE
  8
0
 10
73.0557
 20
39.9678
 11
73.0586
 21
39.915
  0
LINE
  8
0
 10
73.0586
 20
39.915
 11
73.0586
 21
39.8818
  0
LINE
  8
0
 10
73.0586
 20
39.8818
 11
73.0557
 21
39.835
  0
LINE
  8
0
 10
73.0557
 20
39.835
 11
73.0498
 21
39.7881
  0
LINE
  8
0
 10
73.0498
 20
39.7881
 11
73.0293
 21
39.6924
  0
LINE
  8
0
 10
73.0293
 20
39.6924
 11
73.0127
 21
39.6367
  0
LINE
  8
0
 10
73.0127
 20
39.6367
 11
72.999
 21
39.5986
  0
LINE
  8
0
 10
72.999
 20
39.5986
 11
72.9668
 21
39.5283
  0
LINE
  8
0
 10
72.9668
 20
39.5283
 11
72.9492
 21
39.4941
  0
LINE
  8
0
 10
72.9492
 20
39.4941
 11
72.9092
 21
39.4316
  0
LINE
  8
0
 10
72.9092
 20
39.4316
 11
72.8633
 21
39.375
  0
LINE
  8
0
 10
72.8633
 20
39.375
 11
72.8389
 21
39.3496
  0
LINE
  8
0
 10
72.8389
 20
39.3496
 11
72.7861
 21
39.3018
  0
LINE
  8
0
 10
72.7861
 20
39.3018
 11
72.7578
 21
39.2803
  0
LINE
  8
0
 10
72.7578
 20
39.2803
 11
72.7285
 21
39.2607
  0
LINE
  8
0
 10
72.7285
 20
39.2607
 11
72.668
 21
39.2266
  0
LINE
  8
0
 10
72.668
 20
39.2266
 11
72.6035
 21
39.1992
  0
LINE
  8
0
 10
72.6035
 20
39.1992
 11
72.5352
 21
39.1787
  0
LINE
  8
0
 10
72.5352
 20
39.1787
 11
72.4648
 21
39.166
  0
LINE
  8
0
 10
72.4648
 20
39.166
 11
72.3926
 21
39.1602
  0
LINE
  8
0
 10
72.3926
 20
39.1602
 11
72.3555
 21
39.1602
  0
LINE
  8
0
 10
55.0049
 20
6.86035
 11
54.9053
 21
6.87598
  0
LINE
  8
0
 10
54.9053
 20
6.87598
 11
54.8281
 21
6.89648
  0
LINE
  8
0
 10
54.8281
 20
6.89648
 11
54.7764
 21
6.91406
  0
LINE
  8
0
 10
54.7764
 20
6.91406
 11
54.6855
 21
6.95215
  0
LINE
  8
0
 10
54.6855
 20
6.95215
 11
54.5879
 21
7.00391
  0
LINE
  8
0
 10
54.5879
 20
7.00391
 11
54.4697
 21
7.07812
  0
LINE
  8
0
 10
54.4697
 20
7.07812
 11
54.3613
 21
7.15723
  0
LINE
  8
0
 10
54.3613
 20
7.15723
 11
54.25
 21
7.24902
  0
LINE
  8
0
 10
54.25
 20
7.24902
 11
54.1191
 21
7.33984
  0
LINE
  8
0
 10
54.1191
 20
7.33984
 11
54.0049
 21
7.40527
  0
LINE
  8
0
 10
54.0049
 20
7.40527
 11
53.7783
 21
7.5127
  0
LINE
  8
0
 10
53.7783
 20
7.5127
 11
53.6211
 21
7.59473
  0
LINE
  8
0
 10
53.6211
 20
7.59473
 11
53.3828
 21
7.69727
  0
LINE
  8
0
 10
53.3828
 20
7.69727
 11
53.2246
 21
7.75781
  0
LINE
  8
0
 10
53.2246
 20
7.75781
 11
52.9004
 21
7.87793
  0
LINE
  8
0
 10
52.9004
 20
7.87793
 11
47.5322
 21
7.9043
  0
LINE
  8
0
 10
47.5322
 20
7.9043
 11
47.1455
 21
8.32422
  0
LINE
  8
0
 10
47.1455
 20
8.32422
 11
46.9795
 21
8.48828
  0
LINE
  8
0
 10
46.9795
 20
8.48828
 11
46.9111
 21
8.55176
  0
LINE
  8
0
 10
46.9111
 20
8.55176
 11
46.7705
 21
8.67578
  0
LINE
  8
0
 10
46.7705
 20
8.67578
 11
46.6631
 21
8.76465
  0
LINE
  8
0
 10
46.6631
 20
8.76465
 11
46.5547
 21
8.84961
  0
LINE
  8
0
 10
46.5547
 20
8.84961
 11
46.3711
 21
8.9834
  0
LINE
  8
0
 10
46.3711
 20
8.9834
 11
46.2236
 21
9.08105
  0
LINE
  8
0
 10
46.2236
 20
9.08105
 11
45.9385
 21
9.25781
  0
LINE
  8
0
 10
45.9385
 20
9.25781
 11
45.8457
 21
9.31836
  0
LINE
  8
0
 10
45.8457
 20
9.31836
 11
45.6777
 21
9.43652
  0
LINE
  8
0
 10
45.6777
 20
9.43652
 11
45.5186
 21
9.55957
  0
LINE
  8
0
 10
45.5186
 20
9.55957
 11
45.418
 21
9.64258
  0
LINE
  8
0
 10
45.418
 20
9.64258
 11
45.291
 21
9.7373
  0
LINE
  8
0
 10
45.291
 20
9.7373
 11
45.1562
 21
9.82617
  0
LINE
  8
0
 10
45.1562
 20
9.82617
 11
45.0605
 21
9.88281
  0
LINE
  8
0
 10
45.0605
 20
9.88281
 11
44.9619
 21
9.93652
  0
LINE
  8
0
 10
44.9619
 20
9.93652
 11
44.8594
 21
9.9873
  0
LINE
  8
0
 10
44.8594
 20
9.9873
 11
44.752
 21
10.0361
  0
LINE
  8
0
 10
44.752
 20
10.0361
 11
44.582
 21
10.1055
  0
LINE
  8
0
 10
44.582
 20
10.1055
 11
44.4023
 21
10.1699
  0
LINE
  8
0
 10
44.4023
 20
10.1699
 11
44.2764
 21
10.21
  0
LINE
  8
0
 10
44.2764
 20
10.21
 11
44.1455
 21
10.248
  0
LINE
  8
0
 10
44.1455
 20
10.248
 11
43.9404
 21
10.3008
  0
LINE
  8
0
 10
43.9404
 20
10.3008
 11
43.2988
 21
10.4453
  0
LINE
  8
0
 10
43.2988
 20
10.4453
 11
43.1826
 21
10.4756
  0
LINE
  8
0
 10
43.1826
 20
10.4756
 11
42.9834
 21
10.5352
  0
LINE
  8
0
 10
42.9834
 20
10.5352
 11
42.8242
 21
10.5957
  0
LINE
  8
0
 10
42.8242
 20
10.5957
 11
42.7266
 21
10.6436
  0
LINE
  8
0
 10
42.7266
 20
10.6436
 11
42.6709
 21
10.6768
  0
LINE
  8
0
 10
42.6709
 20
10.6768
 11
42.6221
 21
10.7119
  0
LINE
  8
0
 10
42.6221
 20
10.7119
 11
42.5791
 21
10.749
  0
LINE
  8
0
 10
42.5791
 20
10.749
 11
42.541
 21
10.7881
  0
LINE
  8
0
 10
42.541
 20
10.7881
 11
42.5068
 21
10.8301
  0
LINE
  8
0
 10
42.5068
 20
10.8301
 11
42.4395
 21
10.9297
  0
LINE
  8
0
 10
42.4395
 20
10.9297
 11
42.3936
 21
10.9893
  0
LINE
  8
0
 10
42.3936
 20
10.9893
 11
42.3096
 21
11.0859
  0
LINE
  8
0
 10
42.3096
 20
11.0859
 11
42.209
 21
11.1895
  0
LINE
  8
0
 10
42.209
 20
11.1895
 11
42.0557
 21
11.333
  0
LINE
  8
0
 10
42.0557
 20
11.333
 11
41.9287
 21
11.4434
  0
LINE
  8
0
 10
41.9287
 20
11.4434
 11
41.7939
 21
11.5527
  0
LINE
  8
0
 10
41.7939
 20
11.5527
 11
41.7021
 21
11.624
  0
LINE
  8
0
 10
41.7021
 20
11.624
 11
41.6084
 21
11.6934
  0
LINE
  8
0
 10
41.6084
 20
11.6934
 11
41.4199
 21
11.8232
  0
LINE
  8
0
 10
41.4199
 20
11.8232
 11
41.0684
 21
12.0391
  0
LINE
  8
0
 10
41.0684
 20
12.0391
 11
40.9102
 21
12.1396
  0
LINE
  8
0
 10
40.9102
 20
12.1396
 11
40.6377
 21
12.3203
  0
LINE
  8
0
 10
40.6377
 20
12.3203
 11
40.2207
 21
12.6123
  0
LINE
  8
0
 10
40.2207
 20
12.6123
 11
39.5801
 21
13.0869
  0
LINE
  8
0
 10
39.5801
 20
13.0869
 11
38.3467
 21
14.0273
  0
LINE
  8
0
 10
38.3467
 20
14.0273
 11
38.3008
 21
14.0684
  0
LINE
  8
0
 10
38.3008
 20
14.0684
 11
38.252
 21
14.1191
  0
LINE
  8
0
 10
38.252
 20
14.1191
 11
38.207
 21
14.1807
  0
LINE
  8
0
 10
38.207
 20
14.1807
 11
38.1797
 21
14.2324
  0
LINE
  8
0
 10
38.1797
 20
14.2324
 11
38.1611
 21
14.2861
  0
LINE
  8
0
 10
38.1611
 20
14.2861
 11
38.1514
 21
14.3271
  0
LINE
  8
0
 10
38.1514
 20
14.3271
 11
38.1338
 21
14.3701
  0
LINE
  8
0
 10
38.1338
 20
14.3701
 11
38.1045
 21
14.4209
  0
LINE
  8
0
 10
38.1045
 20
14.4209
 11
38.0645
 21
14.4795
  0
LINE
  8
0
 10
38.0645
 20
14.4795
 11
37.9844
 21
14.5811
  0
LINE
  8
0
 10
37.9844
 20
14.5811
 11
37.8789
 21
14.7012
  0
LINE
  8
0
 10
37.8789
 20
14.7012
 11
37.6992
 21
14.8877
  0
LINE
  8
0
 10
37.6992
 20
14.8877
 11
37.4756
 21
15.1064
  0
LINE
  8
0
 10
37.4756
 20
15.1064
 11
37.2783
 21
15.291
  0
LINE
  8
0
 10
37.2783
 20
15.291
 11
36.8926
 21
15.6387
  0
LINE
  8
0
 10
36.8926
 20
15.6387
 11
36.4912
 21
15.9951
  0
LINE
  8
0
 10
36.4912
 20
15.9951
 11
36.3418
 21
16.1406
  0
LINE
  8
0
 10
36.3418
 20
16.1406
 11
36.2646
 21
16.2227
  0
LINE
  8
0
 10
36.2646
 20
16.2227
 11
36.1699
 21
16.333
  0
LINE
  8
0
 10
36.1699
 20
16.333
 11
36.0596
 21
16.4795
  0
LINE
  8
0
 10
36.0596
 20
16.4795
 11
35.9219
 21
16.6865
  0
LINE
  8
0
 10
35.9219
 20
16.6865
 11
35.7725
 21
16.9248
  0
LINE
  8
0
 10
35.7725
 20
16.9248
 11
35.6377
 21
17.127
  0
LINE
  8
0
 10
35.6377
 20
17.127
 11
35.5039
 21
17.3174
  0
LINE
  8
0
 10
35.5039
 20
17.3174
 11
35.3408
 21
17.5332
  0
LINE
  8
0
 10
35.3408
 20
17.5332
 11
35.1895
 21
17.7178
  0
LINE
  8
0
 10
35.1895
 20
17.7178
 11
35.0781
 21
17.8398
  0
LINE
  8
0
 10
35.0781
 20
17.8398
 11
35.0029
 21
17.9141
  0
LINE
  8
0
 10
35.0029
 20
17.9141
 11
34.9355
 21
17.9717
  0
LINE
  8
0
 10
34.9355
 20
17.9717
 11
34.7197
 21
18.1426
  0
LINE
  8
0
 10
34.7197
 20
18.1426
 11
34.4707
 21
18.3535
  0
LINE
  8
0
 10
34.4707
 20
18.3535
 11
34.2451
 21
18.5586
  0
LINE
  8
0
 10
34.2451
 20
18.5586
 11
34.1777
 21
18.623
  0
LINE
  8
0
 10
34.1777
 20
18.623
 11
34.0049
 21
18.7998
  0
LINE
  8
0
 10
34.0049
 20
18.7998
 11
33.9209
 21
18.8975
  0
LINE
  8
0
 10
33.9209
 20
18.8975
 11
33.8135
 21
19.0371
  0
LINE
  8
0
 10
33.8135
 20
19.0371
 11
33.6846
 21
19.1836
  0
LINE
  8
0
 10
33.6846
 20
19.1836
 11
33.541
 21
19.3311
  0
LINE
  8
0
 10
33.541
 20
19.3311
 11
33.3311
 21
19.5283
  0
LINE
  8
0
 10
33.3311
 20
19.5283
 11
33.2236
 21
19.6436
  0
LINE
  8
0
 10
33.2236
 20
19.6436
 11
33.1475
 21
19.7344
  0
LINE
  8
0
 10
33.1475
 20
19.7344
 11
33.0527
 21
19.8809
  0
LINE
  8
0
 10
33.0527
 20
19.8809
 11
32.9863
 21
19.9697
  0
LINE
  8
0
 10
32.9863
 20
19.9697
 11
32.8008
 21
20.1904
  0
LINE
  8
0
 10
32.8008
 20
20.1904
 11
32.4258
 21
20.6055
  0
LINE
  8
0
 10
32.4258
 20
20.6055
 11
32.3096
 21
20.75
  0
LINE
  8
0
 10
32.3096
 20
20.75
 11
32.2695
 21
20.8125
  0
LINE
  8
0
 10
32.2695
 20
20.8125
 11
32.249
 21
20.874
  0
LINE
  8
0
 10
32.249
 20
20.874
 11
32.2236
 21
20.9971
  0
LINE
  8
0
 10
32.2236
 20
20.9971
 11
32.2061
 21
21.1309
  0
LINE
  8
0
 10
32.2061
 20
21.1309
 11
32.1973
 21
21.2344
  0
LINE
  8
0
 10
32.1973
 20
21.2344
 11
32.1787
 21
21.5576
  0
LINE
  8
0
 10
32.1787
 20
21.5576
 11
32.167
 21
21.6328
  0
LINE
  8
0
 10
32.167
 20
21.6328
 11
32.1445
 21
21.709
  0
LINE
  8
0
 10
32.1445
 20
21.709
 11
32.1191
 21
21.7637
  0
LINE
  8
0
 10
32.1191
 20
21.7637
 11
32.0947
 21
21.8027
  0
LINE
  8
0
 10
32.0947
 20
21.8027
 11
31.9697
 21
21.9688
  0
LINE
  8
0
 10
31.9697
 20
21.9688
 11
31.8926
 21
22.0957
  0
LINE
  8
0
 10
31.8926
 20
22.0957
 11
31.8457
 21
22.1855
  0
LINE
  8
0
 10
31.8457
 20
22.1855
 11
31.7627
 21
22.3828
  0
LINE
  8
0
 10
31.7627
 20
22.3828
 11
31.7031
 21
22.498
  0
LINE
  8
0
 10
31.7031
 20
22.498
 11
31.6172
 21
22.6387
  0
LINE
  8
0
 10
31.6172
 20
22.6387
 11
31.5352
 21
22.7559
  0
LINE
  8
0
 10
31.5352
 20
22.7559
 11
31.4385
 21
22.877
  0
LINE
  8
0
 10
31.4385
 20
22.877
 11
31.3584
 21
22.9893
  0
LINE
  8
0
 10
31.3584
 20
22.9893
 11
31.1963
 21
23.248
  0
LINE
  8
0
 10
31.1963
 20
23.248
 11
31.1162
 21
23.3955
  0
LINE
  8
0
 10
31.1162
 20
23.3955
 11
31.002
 21
23.6182
  0
LINE
  8
0
 10
31.002
 20
23.6182
 11
30.9141
 21
23.7666
  0
LINE
  8
0
 10
30.9141
 20
23.7666
 11
30.8555
 21
23.8477
  0
LINE
  8
0
 10
30.8555
 20
23.8477
 11
30.8223
 21
23.8799
  0
LINE
  8
0
 10
30.8223
 20
23.8799
 11
30.7568
 21
23.9629
  0
LINE
  8
0
 10
30.7568
 20
23.9629
 11
30.6387
 21
24.1484
  0
LINE
  8
0
 10
30.6387
 20
24.1484
 11
30.5928
 21
24.2256
  0
LINE
  8
0
 10
30.5928
 20
24.2256
 11
30.5215
 21
24.335
  0
LINE
  8
0
 10
30.5215
 20
24.335
 11
30.4209
 21
24.4707
  0
LINE
  8
0
 10
30.4209
 20
24.4707
 11
30.2939
 21
24.6211
  0
LINE
  8
0
 10
30.2939
 20
24.6211
 11
30.2266
 21
24.7178
  0
LINE
  8
0
 10
30.2266
 20
24.7178
 11
30.1777
 21
24.8008
  0
LINE
  8
0
 10
30.1777
 20
24.8008
 11
30.1338
 21
24.8906
  0
LINE
  8
0
 10
30.1338
 20
24.8906
 11
30.1133
 21
24.9385
  0
LINE
  8
0
 10
30.1133
 20
24.9385
 11
30.0547
 21
25.0986
  0
LINE
  8
0
 10
30.0547
 20
25.0986
 11
29.9922
 21
25.3135
  0
LINE
  8
0
 10
29.9922
 20
25.3135
 11
29.9609
 21
25.4043
  0
LINE
  8
0
 10
29.9609
 20
25.4043
 11
29.9248
 21
25.498
  0
LINE
  8
0
 10
29.9248
 20
25.498
 11
29.8369
 21
25.6914
  0
LINE
  8
0
 10
29.8369
 20
25.6914
 11
29.749
 21
25.8555
  0
LINE
  8
0
 10
29.749
 20
25.8555
 11
29.6709
 21
25.9863
  0
LINE
  8
0
 10
29.6709
 20
25.9863
 11
29.5859
 21
26.1152
  0
LINE
  8
0
 10
29.5859
 20
26.1152
 11
29.4697
 21
26.2764
  0
LINE
  8
0
 10
29.4697
 20
26.2764
 11
29.417
 21
26.3623
  0
LINE
  8
0
 10
29.417
 20
26.3623
 11
29.3555
 21
26.4795
  0
LINE
  8
0
 10
29.3555
 20
26.4795
 11
29.2793
 21
26.6553
  0
LINE
  8
0
 10
29.2793
 20
26.6553
 11
29.1836
 21
26.9316
  0
LINE
  8
0
 10
29.1836
 20
26.9316
 11
29.1182
 21
27.0742
  0
LINE
  8
0
 10
29.1182
 20
27.0742
 11
29.0654
 21
27.1553
  0
LINE
  8
0
 10
29.0654
 20
27.1553
 11
28.915
 21
27.4307
  0
LINE
  8
0
 10
28.915
 20
27.4307
 11
28.6533
 21
27.9463
  0
LINE
  8
0
 10
28.6533
 20
27.9463
 11
28.5293
 21
28.2109
  0
LINE
  8
0
 10
28.5293
 20
28.2109
 11
28.4697
 21
28.3574
  0
LINE
  8
0
 10
28.4697
 20
28.3574
 11
28.4307
 21
28.4824
  0
LINE
  8
0
 10
28.4307
 20
28.4824
 11
28.415
 21
28.5518
  0
LINE
  8
0
 10
28.415
 20
28.5518
 11
28.4072
 21
28.5977
  0
LINE
  8
0
 10
28.4072
 20
28.5977
 11
28.3984
 21
28.668
  0
LINE
  8
0
 10
28.3984
 20
28.668
 11
28.3838
 21
28.8428
  0
LINE
  8
0
 10
28.3838
 20
28.8428
 11
28.3604
 21
28.9697
  0
LINE
  8
0
 10
28.3604
 20
28.9697
 11
28.3467
 21
29.0254
  0
LINE
  8
0
 10
28.3467
 20
29.0254
 11
28.2969
 21
29.1826
  0
LINE
  8
0
 10
28.2969
 20
29.1826
 11
28.2393
 21
29.3359
  0
LINE
  8
0
 10
28.2393
 20
29.3359
 11
28.0361
 21
29.8135
  0
LINE
  8
0
 10
28.0361
 20
29.8135
 11
27.6006
 21
30.8135
  0
LINE
  8
0
 10
27.6006
 20
30.8135
 11
27.5771
 21
30.877
  0
LINE
  8
0
 10
27.5771
 20
30.877
 11
27.5713
 21
30.916
  0
LINE
  8
0
 10
27.5713
 20
30.916
 11
27.5518
 21
30.9814
  0
LINE
  8
0
 10
27.5518
 20
30.9814
 11
27.5312
 21
31.0361
  0
LINE
  8
0
 10
27.5312
 20
31.0361
 11
27.46
 21
31.1963
  0
LINE
  8
0
 10
27.46
 20
31.1963
 11
27.373
 21
31.3662
  0
LINE
  8
0
 10
27.373
 20
31.3662
 11
27.2695
 21
31.5439
  0
LINE
  8
0
 10
27.2695
 20
31.5439
 11
27.2256
 21
31.6074
  0
LINE
  8
0
 10
27.2256
 20
31.6074
 11
27.2012
 21
31.6357
  0
LINE
  8
0
 10
27.2012
 20
31.6357
 11
27.1826
 21
31.6514
  0
LINE
  8
0
 10
27.1826
 20
31.6514
 11
27.1416
 21
31.6582
  0
LINE
  8
0
 10
27.1416
 20
31.6582
 11
27.1162
 21
31.667
  0
LINE
  8
0
 10
27.1162
 20
31.667
 11
27.0889
 21
31.6807
  0
LINE
  8
0
 10
27.0889
 20
31.6807
 11
27.0596
 21
31.6982
  0
LINE
  8
0
 10
27.0596
 20
31.6982
 11
27.0127
 21
31.7324
  0
LINE
  8
0
 10
27.0127
 20
31.7324
 11
26.9453
 21
31.791
  0
LINE
  8
0
 10
26.9453
 20
31.791
 11
26.835
 21
31.9072
  0
LINE
  8
0
 10
26.835
 20
31.9072
 11
26.7178
 21
32.0518
  0
LINE
  8
0
 10
26.7178
 20
32.0518
 11
26.541
 21
32.3008
  0
LINE
  8
0
 10
26.541
 20
32.3008
 11
26.4941
 21
32.375
  0
LINE
  8
0
 10
26.4941
 20
32.375
 11
26.4551
 21
32.4473
  0
LINE
  8
0
 10
26.4551
 20
32.4473
 11
26.4375
 21
32.4844
  0
LINE
  8
0
 10
26.4375
 20
32.4844
 11
26.4072
 21
32.5635
  0
LINE
  8
0
 10
26.4072
 20
32.5635
 11
26.3818
 21
32.6494
  0
LINE
  8
0
 10
26.3818
 20
32.6494
 11
26.3623
 21
32.749
  0
LINE
  8
0
 10
26.3623
 20
32.749
 11
26.3535
 21
32.8047
  0
LINE
  8
0
 10
26.3535
 20
32.8047
 11
26.3398
 21
32.9287
  0
LINE
  8
0
 10
26.3398
 20
32.9287
 11
26.3291
 21
33.0762
  0
LINE
  8
0
 10
26.3291
 20
33.0762
 11
26.3154
 21
33.4512
  0
LINE
  8
0
 10
26.3154
 20
33.4512
 11
26.2959
 21
35.418
  0
LINE
  8
0
 10
26.2959
 20
35.418
 11
26.2871
 21
35.7861
  0
LINE
  8
0
 10
26.2871
 20
35.7861
 11
26.2754
 21
35.9814
  0
LINE
  8
0
 10
26.2754
 20
35.9814
 11
26.2637
 21
36.0859
  0
LINE
  8
0
 10
26.2637
 20
36.0859
 11
26.2539
 21
36.1387
  0
LINE
  8
0
 10
26.2539
 20
36.1387
 11
26.2363
 21
36.2021
  0
LINE
  8
0
 10
26.2363
 20
36.2021
 11
26.2217
 21
36.2363
  0
LINE
  8
0
 10
26.2217
 20
36.2363
 11
26.2061
 21
36.2676
  0
LINE
  8
0
 10
26.2061
 20
36.2676
 11
26.1543
 21
36.3564
  0
LINE
  8
0
 10
26.1543
 20
36.3564
 11
26.123
 21
36.4326
  0
LINE
  8
0
 10
26.123
 20
36.4326
 11
26.1094
 21
36.4863
  0
LINE
  8
0
 10
26.1094
 20
36.4863
 11
26.0938
 21
36.6016
  0
LINE
  8
0
 10
26.0938
 20
36.6016
 11
26.0869
 21
36.6914
  0
LINE
  8
0
 10
26.0869
 20
36.6914
 11
26.0791
 21
36.9844
  0
LINE
  8
0
 10
26.0791
 20
36.9844
 11
26.082
 21
37.6943
  0
LINE
  8
0
 10
26.082
 20
37.6943
 11
26.0869
 21
37.7939
  0
LINE
  8
0
 10
26.0869
 20
37.7939
 11
26.0967
 21
37.9053
  0
LINE
  8
0
 10
26.0967
 20
37.9053
 11
26.1113
 21
37.9961
  0
LINE
  8
0
 10
26.1113
 20
37.9961
 11
26.125
 21
38.0547
  0
LINE
  8
0
 10
26.125
 20
38.0547
 11
26.1553
 21
38.1445
  0
LINE
  8
0
 10
26.1553
 20
38.1445
 11
26.2051
 21
38.249
  0
LINE
  8
0
 10
26.2051
 20
38.249
 11
26.2451
 21
38.3115
  0
LINE
  8
0
 10
26.2451
 20
38.3115
 11
26.2891
 21
38.3662
  0
LINE
  8
0
 10
26.2891
 20
38.3662
 11
26.3389
 21
38.4141
  0
LINE
  8
0
 10
26.3389
 20
38.4141
 11
26.3936
 21
38.4551
  0
LINE
  8
0
 10
26.3936
 20
38.4551
 11
26.4326
 21
38.4785
  0
LINE
  8
0
 10
26.4326
 20
38.4785
 11
26.4961
 21
38.5068
  0
LINE
  8
0
 10
26.4961
 20
38.5068
 11
26.541
 21
38.5225
  0
LINE
  8
0
 10
26.541
 20
38.5225
 11
26.6133
 21
38.5391
  0
LINE
  8
0
 10
26.6133
 20
38.5391
 11
26.6914
 21
38.5498
  0
LINE
  8
0
 10
26.6914
 20
38.5498
 11
26.7461
 21
38.5527
  0
LINE
  8
0
 10
26.7461
 20
38.5527
 11
26.8193
 21
38.5518
  0
LINE
  8
0
 10
26.8193
 20
38.5518
 11
26.8623
 21
38.5488
  0
LINE
  8
0
 10
26.8623
 20
38.5488
 11
26.9043
 21
38.5439
  0
LINE
  8
0
 10
26.9043
 20
38.5439
 11
26.9824
 21
38.5293
  0
LINE
  8
0
 10
26.9824
 20
38.5293
 11
27.0195
 21
38.5186
  0
LINE
  8
0
 10
27.0195
 20
38.5186
 11
27.0898
 21
38.4922
  0
LINE
  8
0
 10
27.0898
 20
38.4922
 11
27.1221
 21
38.4756
  0
LINE
  8
0
 10
27.1221
 20
38.4756
 11
27.1836
 21
38.4375
  0
LINE
  8
0
 10
27.1836
 20
38.4375
 11
27.2119
 21
38.415
  0
LINE
  8
0
 10
27.2119
 20
38.415
 11
27.2637
 21
38.3652
  0
LINE
  8
0
 10
27.2637
 20
38.3652
 11
27.2881
 21
38.3369
  0
LINE
  8
0
 10
27.2881
 20
38.3369
 11
27.3105
 21
38.3076
  0
LINE
  8
0
 10
27.3105
 20
38.3076
 11
27.3506
 21
38.2422
  0
LINE
  8
0
 10
27.3506
 20
38.2422
 11
27.3691
 21
38.2061
  0
LINE
  8
0
 10
27.3691
 20
38.2061
 11
27.3857
 21
38.1689
  0
LINE
  8
0
 10
27.3857
 20
38.1689
 11
27.4141
 21
38.0879
  0
LINE
  8
0
 10
27.4141
 20
38.0879
 11
27.4268
 21
38.0439
  0
LINE
  8
0
 10
27.4268
 20
38.0439
 11
27.4473
 21
37.9512
  0
LINE
  8
0
 10
27.4473
 20
37.9512
 11
27.4619
 21
37.8506
  0
LINE
  8
0
 10
27.4619
 20
37.8506
 11
27.4707
 21
37.7422
  0
LINE
  8
0
 10
27.4707
 20
37.7422
 11
27.4775
 21
37.4893
  0
LINE
  8
0
 10
27.4775
 20
37.4893
 11
27.4902
 21
37.3584
  0
LINE
  8
0
 10
27.4902
 20
37.3584
 11
27.5049
 21
37.2832
  0
LINE
  8
0
 10
27.5049
 20
37.2832
 11
27.5166
 21
37.2461
  0
LINE
  8
0
 10
27.5166
 20
37.2461
 11
27.5303
 21
37.2188
  0
LINE
  8
0
 10
27.5303
 20
37.2188
 11
27.5459
 21
37.1992
  0
LINE
  8
0
 10
27.5459
 20
37.1992
 11
27.5576
 21
37.1699
  0
LINE
  8
0
 10
27.5576
 20
37.1699
 11
27.5713
 21
37.1074
  0
LINE
  8
0
 10
27.5713
 20
37.1074
 11
27.5859
 21
36.9922
  0
LINE
  8
0
 10
27.5859
 20
36.9922
 11
27.6074
 21
36.6191
  0
LINE
  8
0
 10
27.6074
 20
36.6191
 11
27.6396
 21
35.3965
  0
LINE
  8
0
 10
27.6396
 20
35.3965
 11
27.6611
 21
35.0371
  0
LINE
  8
0
 10
27.6611
 20
35.0371
 11
27.6807
 21
34.8633
  0
LINE
  8
0
 10
27.6807
 20
34.8633
 11
27.6992
 21
34.7568
  0
LINE
  8
0
 10
27.6992
 20
34.7568
 11
27.7217
 21
34.667
  0
LINE
  8
0
 10
27.7217
 20
34.667
 11
27.7578
 21
34.5625
  0
LINE
  8
0
 10
27.7578
 20
34.5625
 11
27.7959
 21
34.4756
  0
LINE
  8
0
 10
27.7959
 20
34.4756
 11
27.8564
 21
34.3057
  0
LINE
  8
0
 10
27.8564
 20
34.3057
 11
27.917
 21
34.1006
  0
LINE
  8
0
 10
27.917
 20
34.1006
 11
28.0273
 21
33.6543
  0
LINE
  8
0
 10
28.0273
 20
33.6543
 11
28.0654
 21
33.5342
  0
LINE
  8
0
 10
28.0654
 20
33.5342
 11
28.1152
 21
33.4424
  0
LINE
  8
0
 10
28.1152
 20
33.4424
 11
28.6289
 21
32.5811
  0
LINE
  8
0
 10
28.6289
 20
32.5811
 11
28.8359
 21
32.2119
  0
LINE
  8
0
 10
28.8359
 20
32.2119
 11
29.0459
 21
31.8135
  0
LINE
  8
0
 10
29.0459
 20
31.8135
 11
29.2422
 21
31.4824
  0
LINE
  8
0
 10
29.2422
 20
31.4824
 11
29.6387
 21
30.7402
  0
LINE
  8
0
 10
29.6387
 20
30.7402
 11
29.7949
 21
30.4004
  0
LINE
  8
0
 10
29.7949
 20
30.4004
 11
29.9805
 21
29.9248
  0
LINE
  8
0
 10
29.9805
 20
29.9248
 11
30.0176
 21
29.8398
  0
LINE
  8
0
 10
30.0176
 20
29.8398
 11
30.0811
 21
29.7129
  0
LINE
  8
0
 10
30.0811
 20
29.7129
 11
30.165
 21
29.5742
  0
LINE
  8
0
 10
30.165
 20
29.5742
 11
30.2471
 21
29.459
  0
LINE
  8
0
 10
30.2471
 20
29.459
 11
30.4922
 21
29.1445
  0
LINE
  8
0
 10
30.4922
 20
29.1445
 11
30.5752
 21
29.0293
  0
LINE
  8
0
 10
30.5752
 20
29.0293
 11
30.9619
 21
28.415
  0
LINE
  8
0
 10
30.9619
 20
28.415
 11
31.4473
 21
27.6104
  0
LINE
  8
0
 10
31.4473
 20
27.6104
 11
31.4717
 21
27.5791
  0
LINE
  8
0
 10
31.4717
 20
27.5791
 11
31.4951
 21
27.5391
  0
LINE
  8
0
 10
31.4951
 20
27.5391
 11
31.5146
 21
27.498
  0
LINE
  8
0
 10
31.5146
 20
27.498
 11
31.5684
 21
27.3408
  0
LINE
  8
0
 10
31.5684
 20
27.3408
 11
31.5996
 21
27.2783
  0
LINE
  8
0
 10
31.5996
 20
27.2783
 11
31.623
 21
27.2402
  0
LINE
  8
0
 10
31.623
 20
27.2402
 11
31.6689
 21
27.1836
  0
LINE
  8
0
 10
31.6689
 20
27.1836
 11
31.7266
 21
27.124
  0
LINE
  8
0
 10
31.7266
 20
27.124
 11
31.749
 21
27.0928
  0
LINE
  8
0
 10
31.749
 20
27.0928
 11
31.7607
 21
27.0732
  0
LINE
  8
0
 10
31.7607
 20
27.0732
 11
31.7705
 21
27.0498
  0
LINE
  8
0
 10
31.7705
 20
27.0498
 11
31.7832
 21
26.9971
  0
LINE
  8
0
 10
31.7832
 20
26.9971
 11
31.7979
 21
26.9678
  0
LINE
  8
0
 10
31.7979
 20
26.9678
 11
31.8457
 21
26.9062
  0
LINE
  8
0
 10
31.8457
 20
26.9062
 11
31.8965
 21
26.8555
  0
LINE
  8
0
 10
31.8965
 20
26.8555
 11
31.9355
 21
26.8008
  0
LINE
  8
0
 10
31.9355
 20
26.8008
 11
31.9707
 21
26.7383
  0
LINE
  8
0
 10
31.9707
 20
26.7383
 11
31.9873
 21
26.6992
  0
LINE
  8
0
 10
31.9873
 20
26.6992
 11
32.0195
 21
26.5889
  0
LINE
  8
0
 10
32.0195
 20
26.5889
 11
32.127
 21
26.3145
  0
LINE
  8
0
 10
32.127
 20
26.3145
 11
32.4023
 21
25.7207
  0
LINE
  8
0
 10
32.4023
 20
25.7207
 11
32.5361
 21
25.4551
  0
LINE
  8
0
 10
32.5361
 20
25.4551
 11
32.6152
 21
25.3271
  0
LINE
  8
0
 10
32.6152
 20
25.3271
 11
32.6602
 21
25.2344
  0
LINE
  8
0
 10
32.6602
 20
25.2344
 11
32.7812
 21
24.9287
  0
LINE
  8
0
 10
32.7812
 20
24.9287
 11
32.8311
 21
24.79
  0
LINE
  8
0
 10
32.8311
 20
24.79
 11
32.9678
 21
24.3711
  0
LINE
  8
0
 10
32.9678
 20
24.3711
 11
33.0537
 21
24.0596
  0
LINE
  8
0
 10
33.0537
 20
24.0596
 11
33.0928
 21
23.9521
  0
LINE
  8
0
 10
33.0928
 20
23.9521
 11
33.1182
 21
23.8965
  0
LINE
  8
0
 10
33.1182
 20
23.8965
 11
33.1416
 21
23.8574
  0
LINE
  8
0
 10
33.1416
 20
23.8574
 11
33.1807
 21
23.8037
  0
LINE
  8
0
 10
33.1807
 20
23.8037
 11
33.3037
 21
23.5791
  0
LINE
  8
0
 10
33.3037
 20
23.5791
 11
33.3574
 21
23.4668
  0
LINE
  8
0
 10
33.3574
 20
23.4668
 11
33.4521
 21
23.3027
  0
LINE
  8
0
 10
33.4521
 20
23.3027
 11
33.4932
 21
23.2568
  0
LINE
  8
0
 10
33.4932
 20
23.2568
 11
33.5312
 21
23.1748
  0
LINE
  8
0
 10
33.5312
 20
23.1748
 11
33.5527
 21
23.1025
  0
LINE
  8
0
 10
33.5527
 20
23.1025
 11
33.5781
 21
23.0498
  0
LINE
  8
0
 10
33.5781
 20
23.0498
 11
33.6104
 21
22.9961
  0
LINE
  8
0
 10
33.6104
 20
22.9961
 11
33.6504
 21
22.9346
  0
LINE
  8
0
 10
33.6504
 20
22.9346
 11
33.7109
 21
22.8506
  0
LINE
  8
0
 10
33.7109
 20
22.8506
 11
33.8389
 21
22.6904
  0
LINE
  8
0
 10
33.8389
 20
22.6904
 11
33.9678
 21
22.54
  0
LINE
  8
0
 10
33.9678
 20
22.54
 11
34.043
 21
22.4463
  0
LINE
  8
0
 10
34.043
 20
22.4463
 11
34.1689
 21
22.2783
  0
LINE
  8
0
 10
34.1689
 20
22.2783
 11
34.2451
 21
22.1729
  0
LINE
  8
0
 10
34.2451
 20
22.1729
 11
34.3672
 21
21.9932
  0
LINE
  8
0
 10
34.3672
 20
21.9932
 11
34.5244
 21
21.7412
  0
LINE
  8
0
 10
34.5244
 20
21.7412
 11
34.6328
 21
21.5547
  0
LINE
  8
0
 10
34.6328
 20
21.5547
 11
34.709
 21
21.4502
  0
LINE
  8
0
 10
34.709
 20
21.4502
 11
34.79
 21
21.3516
  0
LINE
  8
0
 10
34.79
 20
21.3516
 11
34.8184
 21
21.3018
  0
LINE
  8
0
 10
34.8184
 20
21.3018
 11
34.8252
 21
21.2793
  0
LINE
  8
0
 10
34.8252
 20
21.2793
 11
34.8262
 21
21.2686
  0
LINE
  8
0
 10
34.8262
 20
21.2686
 11
34.8486
 21
21.2266
  0
LINE
  8
0
 10
34.8486
 20
21.2266
 11
35.082
 21
20.9482
  0
LINE
  8
0
 10
35.082
 20
20.9482
 11
35.1338
 21
20.875
  0
LINE
  8
0
 10
35.1338
 20
20.875
 11
35.1895
 21
20.7754
  0
LINE
  8
0
 10
35.1895
 20
20.7754
 11
35.2383
 21
20.6934
  0
LINE
  8
0
 10
35.2383
 20
20.6934
 11
35.3184
 21
20.5664
  0
LINE
  8
0
 10
35.3184
 20
20.5664
 11
35.4395
 21
20.3877
  0
LINE
  8
0
 10
35.4395
 20
20.3877
 11
35.5811
 21
20.1943
  0
LINE
  8
0
 10
35.5811
 20
20.1943
 11
35.8379
 21
19.8662
  0
LINE
  8
0
 10
35.8379
 20
19.8662
 11
36.2217
 21
19.4062
  0
LINE
  8
0
 10
36.2217
 20
19.4062
 11
36.5049
 21
19.0771
  0
LINE
  8
0
 10
36.5049
 20
19.0771
 11
37.0371
 21
18.4736
  0
LINE
  8
0
 10
37.0371
 20
18.4736
 11
37.3477
 21
18.1357
  0
LINE
  8
0
 10
37.3477
 20
18.1357
 11
37.5645
 21
17.9111
  0
LINE
  8
0
 10
37.5645
 20
17.9111
 11
37.7139
 21
17.7637
  0
LINE
  8
0
 10
37.7139
 20
17.7637
 11
37.8994
 21
17.5908
  0
LINE
  8
0
 10
37.8994
 20
17.5908
 11
38.0771
 21
17.4385
  0
LINE
  8
0
 10
38.0771
 20
17.4385
 11
38.3496
 21
17.2197
  0
LINE
  8
0
 10
38.3496
 20
17.2197
 11
38.4521
 21
17.1279
  0
LINE
  8
0
 10
38.4521
 20
17.1279
 11
38.4922
 21
17.0889
  0
LINE
  8
0
 10
38.4922
 20
17.0889
 11
38.5371
 21
17.0371
  0
LINE
  8
0
 10
38.5371
 20
17.0371
 11
38.5576
 21
16.998
  0
LINE
  8
0
 10
38.5576
 20
16.998
 11
38.584
 21
16.9697
  0
LINE
  8
0
 10
38.584
 20
16.9697
 11
38.6055
 21
16.957
  0
LINE
  8
0
 10
38.6055
 20
16.957
 11
38.6367
 21
16.9512
  0
LINE
  8
0
 10
38.6367
 20
16.9512
 11
38.6699
 21
16.9336
  0
LINE
  8
0
 10
38.6699
 20
16.9336
 11
38.7529
 21
16.8633
  0
LINE
  8
0
 10
38.7529
 20
16.8633
 11
38.8398
 21
16.7676
  0
LINE
  8
0
 10
38.8398
 20
16.7676
 11
38.9746
 21
16.6436
  0
LINE
  8
0
 10
38.9746
 20
16.6436
 11
39.1309
 21
16.5176
  0
LINE
  8
0
 10
39.1309
 20
16.5176
 11
39.3311
 21
16.3711
  0
LINE
  8
0
 10
39.3311
 20
16.3711
 11
39.4346
 21
16.2881
  0
LINE
  8
0
 10
39.4346
 20
16.2881
 11
39.4766
 21
16.251
  0
LINE
  8
0
 10
39.4766
 20
16.251
 11
39.5332
 21
16.1924
  0
LINE
  8
0
 10
39.5332
 20
16.1924
 11
39.5596
 21
16.1445
  0
LINE
  8
0
 10
39.5596
 20
16.1445
 11
39.585
 21
16.1172
  0
LINE
  8
0
 10
39.585
 20
16.1172
 11
39.5986
 21
16.1084
  0
LINE
  8
0
 10
39.5986
 20
16.1084
 11
39.6182
 21
16.1025
  0
LINE
  8
0
 10
39.6182
 20
16.1025
 11
39.624
 21
16.1025
  0
LINE
  8
0
 10
39.624
 20
16.1025
 11
39.6523
 21
16.0869
  0
LINE
  8
0
 10
39.6523
 20
16.0869
 11
39.7627
 21
15.998
  0
LINE
  8
0
 10
39.7627
 20
15.998
 11
40.0098
 21
15.7656
  0
LINE
  8
0
 10
40.0098
 20
15.7656
 11
40.1445
 21
15.6328
  0
LINE
  8
0
 10
40.1445
 20
15.6328
 11
40.3838
 21
15.4111
  0
LINE
  8
0
 10
40.3838
 20
15.4111
 11
40.4561
 21
15.3477
  0
LINE
  8
0
 10
40.4561
 20
15.3477
 11
40.5938
 21
15.2354
  0
LINE
  8
0
 10
40.5938
 20
15.2354
 11
40.6924
 21
15.1611
  0
LINE
  8
0
 10
40.6924
 20
15.1611
 11
40.8223
 21
15.0742
  0
LINE
  8
0
 10
40.8223
 20
15.0742
 11
40.9531
 21
14.9971
  0
LINE
  8
0
 10
40.9531
 20
14.9971
 11
41.2686
 21
14.8359
  0
LINE
  8
0
 10
41.2686
 20
14.8359
 11
41.4121
 21
14.752
  0
LINE
  8
0
 10
41.4121
 20
14.752
 11
41.5225
 21
14.6787
  0
LINE
  8
0
 10
41.5225
 20
14.6787
 11
41.6064
 21
14.6133
  0
LINE
  8
0
 10
41.6064
 20
14.6133
 11
41.6768
 21
14.5508
  0
LINE
  8
0
 10
41.6768
 20
14.5508
 11
41.8066
 21
14.46
  0
LINE
  8
0
 10
41.8066
 20
14.46
 11
41.8271
 21
14.4531
  0
LINE
  8
0
 10
41.8271
 20
14.4531
 11
41.8486
 21
14.4482
  0
LINE
  8
0
 10
41.8486
 20
14.4482
 11
41.8604
 21
14.4414
  0
LINE
  8
0
 10
41.8604
 20
14.4414
 11
41.8867
 21
14.415
  0
LINE
  8
0
 10
41.8867
 20
14.415
 11
41.916
 21
14.3633
  0
LINE
  8
0
 10
41.916
 20
14.3633
 11
41.9258
 21
14.3496
  0
LINE
  8
0
 10
41.9258
 20
14.3496
 11
41.9766
 21
14.2979
  0
LINE
  8
0
 10
41.9766
 20
14.2979
 11
42.082
 21
14.2061
  0
LINE
  8
0
 10
42.082
 20
14.2061
 11
42.2168
 21
14.0996
  0
LINE
  8
0
 10
42.2168
 20
14.0996
 11
42.4385
 21
13.9316
  0
LINE
  8
0
 10
42.4385
 20
13.9316
 11
42.7705
 21
13.6494
  0
LINE
  8
0
 10
42.7705
 20
13.6494
 11
42.9609
 21
13.4707
  0
LINE
  8
0
 10
42.9609
 20
13.4707
 11
43.041
 21
13.3906
  0
LINE
  8
0
 10
43.041
 20
13.3906
 11
43.1416
 21
13.2979
  0
LINE
  8
0
 10
43.1416
 20
13.2979
 11
43.2549
 21
13.2041
  0
LINE
  8
0
 10
43.2549
 20
13.2041
 11
43.3438
 21
13.1406
  0
LINE
  8
0
 10
43.3438
 20
13.1406
 11
43.4092
 21
13.0996
  0
LINE
  8
0
 10
43.4092
 20
13.0996
 11
43.4717
 21
13.0664
  0
LINE
  8
0
 10
43.4717
 20
13.0664
 11
43.5156
 21
13.0479
  0
LINE
  8
0
 10
43.5156
 20
13.0479
 11
44.3613
 21
12.751
  0
LINE
  8
0
 10
44.3613
 20
12.751
 11
44.7695
 21
12.5957
  0
LINE
  8
0
 10
44.7695
 20
12.5957
 11
45.1104
 21
12.4805
  0
LINE
  8
0
 10
45.1104
 20
12.4805
 11
45.4189
 21
12.3809
  0
LINE
  8
0
 10
45.4189
 20
12.3809
 11
45.5977
 21
12.3125
  0
LINE
  8
0
 10
45.5977
 20
12.3125
 11
45.7939
 21
12.2266
  0
LINE
  8
0
 10
45.7939
 20
12.2266
 11
45.9404
 21
12.1543
  0
LINE
  8
0
 10
45.9404
 20
12.1543
 11
46.1885
 21
12.0127
  0
LINE
  8
0
 10
46.1885
 20
12.0127
 11
46.3018
 21
11.9561
  0
LINE
  8
0
 10
46.3018
 20
11.9561
 11
46.3623
 21
11.9385
  0
LINE
  8
0
 10
46.3623
 20
11.9385
 11
46.6641
 21
11.8008
  0
LINE
  8
0
 10
46.6641
 20
11.8008
 11
47.2646
 21
11.5049
  0
LINE
  8
0
 10
47.2646
 20
11.5049
 11
47.4062
 21
11.4229
  0
LINE
  8
0
 10
47.4062
 20
11.4229
 11
47.5391
 21
11.3389
  0
LINE
  8
0
 10
47.5391
 20
11.3389
 11
47.6504
 21
11.2637
  0
LINE
  8
0
 10
47.6504
 20
11.2637
 11
47.832
 21
11.1289
  0
LINE
  8
0
 10
47.832
 20
11.1289
 11
48.002
 21
10.999
  0
LINE
  8
0
 10
48.002
 20
10.999
 11
48.0791
 21
10.9463
  0
LINE
  8
0
 10
48.0791
 20
10.9463
 11
48.1709
 21
10.8926
  0
LINE
  8
0
 10
48.1709
 20
10.8926
 11
48.2422
 21
10.8584
  0
LINE
  8
0
 10
48.2422
 20
10.8584
 11
48.2949
 21
10.8369
  0
LINE
  8
0
 10
48.2949
 20
10.8369
 11
48.4199
 21
10.7998
  0
LINE
  8
0
 10
48.4199
 20
10.7998
 11
48.4961
 21
10.7832
  0
LINE
  8
0
 10
48.4961
 20
10.7832
 11
48.6445
 21
10.7422
  0
LINE
  8
0
 10
48.6445
 20
10.7422
 11
48.7539
 21
10.7051
  0
LINE
  8
0
 10
48.7539
 20
10.7051
 11
48.8389
 21
10.6699
  0
LINE
  8
0
 10
48.8389
 20
10.6699
 11
48.8916
 21
10.6445
  0
LINE
  8
0
 10
48.8916
 20
10.6445
 11
48.9443
 21
10.626
  0
LINE
  8
0
 10
48.9443
 20
10.626
 11
49.0088
 21
10.6162
  0
LINE
  8
0
 10
49.0088
 20
10.6162
 11
49.083
 21
10.6182
  0
LINE
  8
0
 10
49.083
 20
10.6182
 11
49.2334
 21
10.6445
  0
LINE
  8
0
 10
49.2334
 20
10.6445
 11
49.3232
 21
10.667
  0
LINE
  8
0
 10
49.3232
 20
10.667
 11
49.4189
 21
10.7002
  0
LINE
  8
0
 10
49.4189
 20
10.7002
 11
49.4932
 21
10.7324
  0
LINE
  8
0
 10
49.4932
 20
10.7324
 11
49.5449
 21
10.7607
  0
LINE
  8
0
 10
49.5449
 20
10.7607
 11
49.5781
 21
10.7832
  0
LINE
  8
0
 10
49.5781
 20
10.7832
 11
49.6025
 21
10.8047
  0
LINE
  8
0
 10
49.6025
 20
10.8047
 11
49.6367
 21
10.8398
  0
LINE
  8
0
 10
49.6367
 20
10.8398
 11
49.6738
 21
10.8691
  0
LINE
  8
0
 10
49.6738
 20
10.8691
 11
49.7139
 21
10.8926
  0
LINE
  8
0
 10
49.7139
 20
10.8926
 11
49.7275
 21
10.8984
  0
LINE
  8
0
 10
49.7275
 20
10.8984
 11
49.7432
 21
10.9023
  0
LINE
  8
0
 10
49.7432
 20
10.9023
 11
49.7676
 21
10.9043
  0
LINE
  8
0
 10
49.7676
 20
10.9043
 11
49.7959
 21
10.9141
  0
LINE
  8
0
 10
49.7959
 20
10.9141
 11
49.834
 21
10.9385
  0
LINE
  8
0
 10
49.834
 20
10.9385
 11
49.8721
 21
10.9746
  0
LINE
  8
0
 10
49.8721
 20
10.9746
 11
49.9082
 21
11.0195
  0
LINE
  8
0
 10
49.9082
 20
11.0195
 11
49.9424
 21
11.0723
  0
LINE
  8
0
 10
49.9424
 20
11.0723
 11
49.9785
 21
11.1465
  0
LINE
  8
0
 10
49.9785
 20
11.1465
 11
50
 21
11.21
  0
LINE
  8
0
 10
50
 20
11.21
 11
50.0303
 21
11.3145
  0
LINE
  8
0
 10
50.0303
 20
11.3145
 11
50.0674
 21
11.417
  0
LINE
  8
0
 10
50.0674
 20
11.417
 11
50.1133
 21
11.5283
  0
LINE
  8
0
 10
50.1133
 20
11.5283
 11
50.2041
 21
11.7246
  0
LINE
  8
0
 10
50.2041
 20
11.7246
 11
50.3037
 21
11.915
  0
LINE
  8
0
 10
50.3037
 20
11.915
 11
50.3838
 21
12.0527
  0
LINE
  8
0
 10
50.3838
 20
12.0527
 11
50.4404
 21
12.1396
  0
LINE
  8
0
 10
50.4404
 20
12.1396
 11
50.4912
 21
12.208
  0
LINE
  8
0
 10
50.4912
 20
12.208
 11
50.5225
 21
12.2422
  0
LINE
  8
0
 10
50.5225
 20
12.2422
 11
50.5684
 21
12.2861
  0
LINE
  8
0
 10
50.5684
 20
12.2861
 11
50.6172
 21
12.3281
  0
LINE
  8
0
 10
50.6172
 20
12.3281
 11
50.667
 21
12.3672
  0
LINE
  8
0
 10
50.667
 20
12.3672
 11
50.7188
 21
12.4033
  0
LINE
  8
0
 10
50.7188
 20
12.4033
 11
50.7715
 21
12.4375
  0
LINE
  8
0
 10
50.7715
 20
12.4375
 11
50.8262
 21
12.4688
  0
LINE
  8
0
 10
50.8262
 20
12.4688
 11
50.8818
 21
12.498
  0
LINE
  8
0
 10
50.8818
 20
12.498
 11
50.9395
 21
12.5244
  0
LINE
  8
0
 10
50.9395
 20
12.5244
 11
50.9971
 21
12.5479
  0
LINE
  8
0
 10
50.9971
 20
12.5479
 11
51.1162
 21
12.5869
  0
LINE
  8
0
 10
51.1162
 20
12.5869
 11
51.2393
 21
12.6162
  0
LINE
  8
0
 10
51.2393
 20
12.6162
 11
51.3643
 21
12.6338
  0
LINE
  8
0
 10
51.3643
 20
12.6338
 11
51.4277
 21
12.6396
  0
LINE
  8
0
 10
51.4277
 20
12.6396
 11
51.5547
 21
12.6416
  0
LINE
  8
0
 10
51.5547
 20
12.6416
 11
51.6182
 21
12.6387
  0
LINE
  8
0
 10
51.6182
 20
12.6387
 11
51.7451
 21
12.625
  0
LINE
  8
0
 10
51.7451
 20
12.625
 11
51.8721
 21
12.5996
  0
LINE
  8
0
 10
51.8721
 20
12.5996
 11
51.9346
 21
12.583
  0
LINE
  8
0
 10
51.9346
 20
12.583
 11
51.9961
 21
12.5645
  0
LINE
  8
0
 10
51.9961
 20
12.5645
 11
52.1191
 21
12.5176
  0
LINE
  8
0
 10
52.1191
 20
12.5176
 11
52.1787
 21
12.4902
  0
LINE
  8
0
 10
52.1787
 20
12.4902
 11
52.2373
 21
12.46
  0
LINE
  8
0
 10
52.2373
 20
12.46
 11
52.2959
 21
12.4268
  0
LINE
  8
0
 10
52.2959
 20
12.4268
 11
52.3789
 21
12.373
  0
LINE
  8
0
 10
52.3789
 20
12.373
 11
52.4531
 21
12.3174
  0
LINE
  8
0
 10
52.4531
 20
12.3174
 11
52.5215
 21
12.2588
  0
LINE
  8
0
 10
52.5215
 20
12.2588
 11
52.6035
 21
12.1738
  0
LINE
  8
0
 10
52.6035
 20
12.1738
 11
52.6592
 21
12.1035
  0
LINE
  8
0
 10
52.6592
 20
12.1035
 11
52.71
 21
12.0283
  0
LINE
  8
0
 10
52.71
 20
12.0283
 11
52.7412
 21
11.9746
  0
LINE
  8
0
 10
52.7412
 20
11.9746
 11
52.7852
 21
11.8877
  0
LINE
  8
0
 10
52.7852
 20
11.8877
 11
52.8379
 21
11.7598
  0
LINE
  8
0
 10
52.8379
 20
11.7598
 11
52.8867
 21
11.6162
  0
LINE
  8
0
 10
52.8867
 20
11.6162
 11
52.959
 21
11.3867
  0
LINE
  8
0
 10
52.959
 20
11.3867
 11
53.0361
 21
11.1826
  0
LINE
  8
0
 10
53.0361
 20
11.1826
 11
53.1191
 21
10.9912
  0
LINE
  8
0
 10
53.1191
 20
10.9912
 11
53.1436
 21
10.918
  0
LINE
  8
0
 10
53.1436
 20
10.918
 11
53.1904
 21
10.7295
  0
LINE
  8
0
 10
53.1904
 20
10.7295
 11
53.2051
 21
10.6279
  0
LINE
  8
0
 10
53.2051
 20
10.6279
 11
53.2217
 21
10.4746
  0
LINE
  8
0
 10
53.2217
 20
10.4746
 11
53.2412
 21
10.333
  0
LINE
  8
0
 10
53.2412
 20
10.333
 11
53.2627
 21
10.2041
  0
LINE
  8
0
 10
53.2627
 20
10.2041
 11
53.2881
 21
10.0869
  0
LINE
  8
0
 10
53.2881
 20
10.0869
 11
53.3164
 21
9.98145
  0
LINE
  8
0
 10
53.3164
 20
9.98145
 11
53.3486
 21
9.88672
  0
LINE
  8
0
 10
53.3486
 20
9.88672
 11
53.3652
 21
9.84277
  0
LINE
  8
0
 10
53.3652
 20
9.84277
 11
53.4033
 21
9.7627
  0
LINE
  8
0
 10
53.4033
 20
9.7627
 11
53.4453
 21
9.69238
  0
LINE
  8
0
 10
53.4453
 20
9.69238
 11
53.4678
 21
9.66016
  0
LINE
  8
0
 10
53.4678
 20
9.66016
 11
53.4912
 21
9.63086
  0
LINE
  8
0
 10
53.4912
 20
9.63086
 11
53.542
 21
9.57812
  0
LINE
  8
0
 10
53.542
 20
9.57812
 11
53.5693
 21
9.55469
  0
LINE
  8
0
 10
53.5693
 20
9.55469
 11
53.6279
 21
9.51465
  0
LINE
  8
0
 10
53.6279
 20
9.51465
 11
53.6592
 21
9.49707
  0
LINE
  8
0
 10
53.6592
 20
9.49707
 11
53.6914
 21
9.48145
  0
LINE
  8
0
 10
53.6914
 20
9.48145
 11
53.7256
 21
9.46777
  0
LINE
  8
0
 10
53.7256
 20
9.46777
 11
53.7979
 21
9.44531
  0
LINE
  8
0
 10
53.7979
 20
9.44531
 11
53.8359
 21
9.43652
  0
LINE
  8
0
 10
53.8359
 20
9.43652
 11
53.9062
 21
9.42383
  0
LINE
  8
0
 10
53.9062
 20
9.42383
 11
54.0059
 21
9.39551
  0
LINE
  8
0
 10
54.0059
 20
9.39551
 11
54.1162
 21
9.35254
  0
LINE
  8
0
 10
54.1162
 20
9.35254
 11
54.1953
 21
9.31641
  0
LINE
  8
0
 10
54.1953
 20
9.31641
 11
54.3623
 21
9.22559
  0
LINE
  8
0
 10
54.3623
 20
9.22559
 11
54.4951
 21
9.14355
  0
LINE
  8
0
 10
54.4951
 20
9.14355
 11
54.6309
 21
9.05078
  0
LINE
  8
0
 10
54.6309
 20
9.05078
 11
54.7695
 21
8.94824
  0
LINE
  8
0
 10
54.7695
 20
8.94824
 11
54.9082
 21
8.83691
  0
LINE
  8
0
 10
54.9082
 20
8.83691
 11
55.0459
 21
8.71777
  0
LINE
  8
0
 10
55.0459
 20
8.71777
 11
55.2402
 21
8.53516
  0
LINE
  8
0
 10
55.2402
 20
8.53516
 11
55.4238
 21
8.3457
  0
LINE
  8
0
 10
55.4238
 20
8.3457
 11
55.4873
 21
8.26855
  0
LINE
  8
0
 10
55.4873
 20
8.26855
 11
55.5479
 21
8.17871
  0
LINE
  8
0
 10
55.5479
 20
8.17871
 11
55.585
 21
8.10742
  0
LINE
  8
0
 10
55.585
 20
8.10742
 11
55.6084
 21
8.05078
  0
LINE
  8
0
 10
55.6084
 20
8.05078
 11
55.6436
 21
7.94434
  0
LINE
  8
0
 10
55.6436
 20
7.94434
 11
55.6807
 21
7.80273
  0
LINE
  8
0
 10
55.6807
 20
7.80273
 11
55.6992
 21
7.71582
  0
LINE
  8
0
 10
55.6992
 20
7.71582
 11
55.7168
 21
7.59473
  0
LINE
  8
0
 10
55.7168
 20
7.59473
 11
55.7217
 21
7.52148
  0
LINE
  8
0
 10
55.7217
 20
7.52148
 11
55.7207
 21
7.45215
  0
LINE
  8
0
 10
55.7207
 20
7.45215
 11
55.7188
 21
7.41895
  0
LINE
  8
0
 10
55.7188
 20
7.41895
 11
55.71
 21
7.35645
  0
LINE
  8
0
 10
55.71
 20
7.35645
 11
55.6953
 21
7.29688
  0
LINE
  8
0
 10
55.6953
 20
7.29688
 11
55.6748
 21
7.24219
  0
LINE
  8
0
 10
55.6748
 20
7.24219
 11
55.6484
 21
7.18945
  0
LINE
  8
0
 10
55.6484
 20
7.18945
 11
55.6172
 21
7.14062
  0
LINE
  8
0
 10
55.6172
 20
7.14062
 11
55.5791
 21
7.09375
  0
LINE
  8
0
 10
55.5791
 20
7.09375
 11
55.5352
 21
7.0498
  0
LINE
  8
0
 10
55.5352
 20
7.0498
 11
55.4854
 21
7.00781
  0
LINE
  8
0
 10
55.4854
 20
7.00781
 11
55.4297
 21
6.9668
  0
LINE
  8
0
 10
55.4297
 20
6.9668
 11
55.3887
 21
6.94141
  0
LINE
  8
0
 10
55.3887
 20
6.94141
 11
55.3262
 21
6.91016
  0
LINE
  8
0
 10
55.3262
 20
6.91016
 11
55.2617
 21
6.88574
  0
LINE
  8
0
 10
55.2617
 20
6.88574
 11
55.1943
 21
6.86914
  0
LINE
  8
0
 10
55.1943
 20
6.86914
 11
55.125
 21
6.85938
  0
LINE
  8
0
 10
55.125
 20
6.85938
 11
55.0781
 21
6.85742
  0
LINE
  8
0
 10
55.0781
 20
6.85742
 11
55.0049
 21
6.86035
  0
LINE
  8
0
 10
57.4912
 20
7.16016
 11
57.3955
 21
7.16211
  0
LINE
  8
0
 10
57.3955
 20
7.16211
 11
57.3076
 21
7.17188
  0
LINE
  8
0
 10
57.3076
 20
7.17188
 11
57.2666
 21
7.17969
  0
LINE
  8
0
 10
57.2666
 20
7.17969
 11
57.2119
 21
7.19531
  0
LINE
  8
0
 10
57.2119
 20
7.19531
 11
57.1572
 21
7.22168
  0
LINE
  8
0
 10
57.1572
 20
7.22168
 11
57.0781
 21
7.28223
  0
LINE
  8
0
 10
57.0781
 20
7.28223
 11
57.0176
 21
7.33789
  0
LINE
  8
0
 10
57.0176
 20
7.33789
 11
56.9404
 21
7.42383
  0
LINE
  8
0
 10
56.9404
 20
7.42383
 11
56.9043
 21
7.47266
  0
LINE
  8
0
 10
56.9043
 20
7.47266
 11
56.8848
 21
7.50586
  0
LINE
  8
0
 10
56.8848
 20
7.50586
 11
56.8691
 21
7.54004
  0
LINE
  8
0
 10
56.8691
 20
7.54004
 11
56.8555
 21
7.5752
  0
LINE
  8
0
 10
56.8555
 20
7.5752
 11
56.8457
 21
7.6123
  0
LINE
  8
0
 10
56.8457
 20
7.6123
 11
56.8369
 21
7.67188
  0
LINE
  8
0
 10
56.8369
 20
7.67188
 11
56.8369
 21
7.76367
  0
LINE
  8
0
 10
56.8369
 20
7.76367
 11
56.8486
 21
7.87109
  0
LINE
  8
0
 10
56.8486
 20
7.87109
 11
56.8809
 21
8.03516
  0
LINE
  8
0
 10
56.8809
 20
8.03516
 11
56.9141
 21
8.16992
  0
LINE
  8
0
 10
56.9141
 20
8.16992
 11
56.9258
 21
8.20312
  0
LINE
  8
0
 10
56.9258
 20
8.20312
 11
56.9414
 21
8.23535
  0
LINE
  8
0
 10
56.9414
 20
8.23535
 11
56.9736
 21
8.28223
  0
LINE
  8
0
 10
56.9736
 20
8.28223
 11
57.0176
 21
8.32812
  0
LINE
  8
0
 10
57.0176
 20
8.32812
 11
57.0771
 21
8.375
  0
LINE
  8
0
 10
57.0771
 20
8.375
 11
57.1826
 21
8.44141
  0
LINE
  8
0
 10
57.1826
 20
8.44141
 11
57.3252
 21
8.5166
  0
LINE
  8
0
 10
57.3252
 20
8.5166
 11
57.6201
 21
8.6543
  0
LINE
  8
0
 10
57.6201
 20
8.6543
 11
57.877
 21
8.76855
  0
LINE
  8
0
 10
57.877
 20
8.76855
 11
57.9541
 21
8.8125
  0
LINE
  8
0
 10
57.9541
 20
8.8125
 11
58.0117
 21
8.85156
  0
LINE
  8
0
 10
58.0117
 20
8.85156
 11
58.0791
 21
8.90723
  0
LINE
  8
0
 10
58.0791
 20
8.90723
 11
58.1182
 21
8.94434
  0
LINE
  8
0
 10
58.1182
 20
8.94434
 11
58.2061
 21
9.04492
  0
LINE
  8
0
 10
58.2061
 20
9.04492
 11
58.3027
 21
9.17188
  0
LINE
  8
0
 10
58.3027
 20
9.17188
 11
58.3984
 21
9.2832
  0
LINE
  8
0
 10
58.3984
 20
9.2832
 11
58.4688
 21
9.35059
  0
LINE
  8
0
 10
58.4688
 20
9.35059
 11
58.5371
 21
9.3916
  0
LINE
  8
0
 10
58.5371
 20
9.3916
 11
58.5596
 21
9.41406
  0
LINE
  8
0
 10
58.5596
 20
9.41406
 11
58.5703
 21
9.43262
  0
LINE
  8
0
 10
58.5703
 20
9.43262
 11
58.5791
 21
9.46973
  0
LINE
  8
0
 10
58.5791
 20
9.46973
 11
58.5889
 21
9.49023
  0
LINE
  8
0
 10
58.5889
 20
9.49023
 11
58.6172
 21
9.52832
  0
LINE
  8
0
 10
58.6172
 20
9.52832
 11
58.6758
 21
9.58984
  0
LINE
  8
0
 10
58.6758
 20
9.58984
 11
58.7559
 21
9.66211
  0
LINE
  8
0
 10
58.7559
 20
9.66211
 11
58.8262
 21
9.7207
  0
LINE
  8
0
 10
58.8262
 20
9.7207
 11
58.9629
 21
9.8252
  0
LINE
  8
0
 10
58.9629
 20
9.8252
 11
59.085
 21
9.91016
  0
LINE
  8
0
 10
59.085
 20
9.91016
 11
59.2148
 21
9.99512
  0
LINE
  8
0
 10
59.2148
 20
9.99512
 11
59.6631
 21
10.2764
  0
LINE
  8
0
 10
59.6631
 20
10.2764
 11
59.752
 21
10.3242
  0
LINE
  8
0
 10
59.752
 20
10.3242
 11
59.9473
 21
10.415
  0
LINE
  8
0
 10
59.9473
 20
10.415
 11
60.1797
 21
10.501
  0
LINE
  8
0
 10
60.1797
 20
10.501
 11
60.2812
 21
10.5312
  0
LINE
  8
0
 10
60.2812
 20
10.5312
 11
60.3877
 21
10.5576
  0
LINE
  8
0
 10
60.3877
 20
10.5576
 11
60.4863
 21
10.5898
  0
LINE
  8
0
 10
60.4863
 20
10.5898
 11
60.5986
 21
10.6416
  0
LINE
  8
0
 10
60.5986
 20
10.6416
 11
60.6309
 21
10.6592
  0
LINE
  8
0
 10
60.6309
 20
10.6592
 11
60.7422
 21
10.7324
  0
LINE
  8
0
 10
60.7422
 20
10.7324
 11
60.8223
 21
10.7939
  0
LINE
  8
0
 10
60.8223
 20
10.7939
 11
60.9053
 21
10.8643
  0
LINE
  8
0
 10
60.9053
 20
10.8643
 11
60.958
 21
10.9062
  0
LINE
  8
0
 10
60.958
 20
10.9062
 11
61.0664
 21
10.9854
  0
LINE
  8
0
 10
61.0664
 20
10.9854
 11
61.1221
 21
11.0234
  0
LINE
  8
0
 10
61.1221
 20
11.0234
 11
61.2363
 21
11.0947
  0
LINE
  8
0
 10
61.2363
 20
11.0947
 11
61.3545
 21
11.1602
  0
LINE
  8
0
 10
61.3545
 20
11.1602
 11
61.4766
 21
11.2197
  0
LINE
  8
0
 10
61.4766
 20
11.2197
 11
61.5391
 21
11.248
  0
LINE
  8
0
 10
61.5391
 20
11.248
 11
61.665
 21
11.2988
  0
LINE
  8
0
 10
61.665
 20
11.2988
 11
61.7939
 21
11.3438
  0
LINE
  8
0
 10
61.7939
 20
11.3438
 11
61.9902
 21
11.3994
  0
LINE
  8
0
 10
61.9902
 20
11.3994
 11
62.124
 21
11.4287
  0
LINE
  8
0
 10
62.124
 20
11.4287
 11
62.2588
 21
11.4512
  0
LINE
  8
0
 10
62.2588
 20
11.4512
 11
62.3262
 21
11.46
  0
LINE
  8
0
 10
62.3262
 20
11.46
 11
62.4629
 21
11.4727
  0
LINE
  8
0
 10
62.4629
 20
11.4727
 11
62.5986
 21
11.4785
  0
LINE
  8
0
 10
62.5986
 20
11.4785
 11
62.667
 21
11.4795
  0
LINE
  8
0
 10
62.667
 20
11.4795
 11
62.8535
 21
11.4717
  0
LINE
  8
0
 10
62.8535
 20
11.4717
 11
62.9541
 21
11.4629
  0
LINE
  8
0
 10
62.9541
 20
11.4629
 11
63.0547
 21
11.4512
  0
LINE
  8
0
 10
63.0547
 20
11.4512
 11
63.1543
 21
11.4375
  0
LINE
  8
0
 10
63.1543
 20
11.4375
 11
63.3535
 21
11.4004
  0
LINE
  8
0
 10
63.3535
 20
11.4004
 11
63.5518
 21
11.3525
  0
LINE
  8
0
 10
63.5518
 20
11.3525
 11
63.749
 21
11.293
  0
LINE
  8
0
 10
63.749
 20
11.293
 11
63.8955
 21
11.2422
  0
LINE
  8
0
 10
63.8955
 20
11.2422
 11
64.0898
 21
11.1641
  0
LINE
  8
0
 10
64.0898
 20
11.1641
 11
64.2334
 21
11.0977
  0
LINE
  8
0
 10
64.2334
 20
11.0977
 11
64.376
 21
11.0293
  0
LINE
  8
0
 10
64.376
 20
11.0293
 11
64.5146
 21
10.9824
  0
LINE
  8
0
 10
64.5146
 20
10.9824
 11
64.6758
 21
10.9434
  0
LINE
  8
0
 10
64.6758
 20
10.9434
 11
64.8018
 21
10.9229
  0
LINE
  8
0
 10
64.8018
 20
10.9229
 11
64.9619
 21
10.9014
  0
LINE
  8
0
 10
64.9619
 20
10.9014
 11
65.1191
 21
10.8691
  0
LINE
  8
0
 10
65.1191
 20
10.8691
 11
65.2539
 21
10.835
  0
LINE
  8
0
 10
65.2539
 20
10.835
 11
65.3984
 21
10.7871
  0
LINE
  8
0
 10
65.3984
 20
10.7871
 11
65.5186
 21
10.7422
  0
LINE
  8
0
 10
65.5186
 20
10.7422
 11
65.582
 21
10.7227
  0
LINE
  8
0
 10
65.582
 20
10.7227
 11
65.6426
 21
10.708
  0
LINE
  8
0
 10
65.6426
 20
10.708
 11
65.6836
 21
10.7012
  0
LINE
  8
0
 10
65.6836
 20
10.7012
 11
65.7676
 21
10.6943
  0
LINE
  8
0
 10
65.7676
 20
10.6943
 11
65.8906
 21
10.6963
  0
LINE
  8
0
 10
65.8906
 20
10.6963
 11
66.1582
 21
10.7236
  0
LINE
  8
0
 10
66.1582
 20
10.7236
 11
66.2979
 21
10.7441
  0
LINE
  8
0
 10
66.2979
 20
10.7441
 11
66.3857
 21
10.7637
  0
LINE
  8
0
 10
66.3857
 20
10.7637
 11
66.4502
 21
10.7832
  0
LINE
  8
0
 10
66.4502
 20
10.7832
 11
66.4951
 21
10.7998
  0
LINE
  8
0
 10
66.4951
 20
10.7998
 11
66.5654
 21
10.833
  0
LINE
  8
0
 10
66.5654
 20
10.833
 11
66.6182
 21
10.8643
  0
LINE
  8
0
 10
66.6182
 20
10.8643
 11
66.6816
 21
10.9102
  0
LINE
  8
0
 10
66.6816
 20
10.9102
 11
66.8633
 21
11.0518
  0
LINE
  8
0
 10
66.8633
 20
11.0518
 11
66.7529
 21
11.6064
  0
LINE
  8
0
 10
66.7529
 20
11.6064
 11
66.7207
 21
11.7236
  0
LINE
  8
0
 10
66.7207
 20
11.7236
 11
66.6963
 21
11.7939
  0
LINE
  8
0
 10
66.6963
 20
11.7939
 11
66.6875
 21
11.8135
  0
LINE
  8
0
 10
66.6875
 20
11.8135
 11
66.6729
 21
11.835
  0
LINE
  8
0
 10
66.6729
 20
11.835
 11
66.6406
 21
11.9131
  0
LINE
  8
0
 10
66.6406
 20
11.9131
 11
66.5977
 21
12.0381
  0
LINE
  8
0
 10
66.5977
 20
12.0381
 11
66.4141
 21
12.6543
  0
LINE
  8
0
 10
66.4141
 20
12.6543
 11
66.3506
 21
12.8262
  0
LINE
  8
0
 10
66.3506
 20
12.8262
 11
66.3145
 21
12.9082
  0
LINE
  8
0
 10
66.3145
 20
12.9082
 11
66.2754
 21
13.0195
  0
LINE
  8
0
 10
66.2754
 20
13.0195
 11
66.2686
 21
13.0508
  0
LINE
  8
0
 10
66.2686
 20
13.0508
 11
66.1855
 21
13.2549
  0
LINE
  8
0
 10
66.1855
 20
13.2549
 11
65.8281
 21
14.0371
  0
LINE
  8
0
 10
65.8281
 20
14.0371
 11
65.749
 21
14.2314
  0
LINE
  8
0
 10
65.749
 20
14.2314
 11
65.7051
 21
14.3525
  0
LINE
  8
0
 10
65.7051
 20
14.3525
 11
65.6514
 21
14.5244
  0
LINE
  8
0
 10
65.6514
 20
14.5244
 11
65.6123
 21
14.6865
  0
LINE
  8
0
 10
65.6123
 20
14.6865
 11
65.5938
 21
14.79
  0
LINE
  8
0
 10
65.5938
 20
14.79
 11
65.582
 21
14.8906
  0
LINE
  8
0
 10
65.582
 20
14.8906
 11
65.5762
 21
15.0381
  0
LINE
  8
0
 10
65.5762
 20
15.0381
 11
65.5791
 21
15.1348
  0
LINE
  8
0
 10
65.5791
 20
15.1348
 11
65.5889
 21
15.2305
  0
LINE
  8
0
 10
65.5889
 20
15.2305
 11
65.6035
 21
15.3271
  0
LINE
  8
0
 10
65.6035
 20
15.3271
 11
65.6133
 21
15.376
  0
LINE
  8
0
 10
65.6133
 20
15.376
 11
65.6367
 21
15.4736
  0
LINE
  8
0
 10
65.6367
 20
15.4736
 11
65.6504
 21
15.5234
  0
LINE
  8
0
 10
65.6504
 20
15.5234
 11
65.6719
 21
15.5879
  0
LINE
  8
0
 10
65.6719
 20
15.5879
 11
65.7168
 21
15.6943
  0
LINE
  8
0
 10
65.7168
 20
15.6943
 11
65.7744
 21
15.8096
  0
LINE
  8
0
 10
65.7744
 20
15.8096
 11
65.8672
 21
15.9717
  0
LINE
  8
0
 10
65.8672
 20
15.9717
 11
65.9453
 21
16.0938
  0
LINE
  8
0
 10
65.9453
 20
16.0938
 11
66.0283
 21
16.2129
  0
LINE
  8
0
 10
66.0283
 20
16.2129
 11
66.085
 21
16.2891
  0
LINE
  8
0
 10
66.085
 20
16.2891
 11
66.1982
 21
16.4268
  0
LINE
  8
0
 10
66.1982
 20
16.4268
 11
66.2803
 21
16.5137
  0
LINE
  8
0
 10
66.2803
 20
16.5137
 11
66.332
 21
16.5625
  0
LINE
  8
0
 10
66.332
 20
16.5625
 11
66.3809
 21
16.6025
  0
LINE
  8
0
 10
66.3809
 20
16.6025
 11
66.501
 21
16.6865
  0
LINE
  8
0
 10
66.501
 20
16.6865
 11
66.54
 21
16.7119
  0
LINE
  8
0
 10
66.54
 20
16.7119
 11
66.6182
 21
16.7588
  0
LINE
  8
0
 10
66.6182
 20
16.7588
 11
66.6973
 21
16.8008
  0
LINE
  8
0
 10
66.6973
 20
16.8008
 11
66.7793
 21
16.8379
  0
LINE
  8
0
 10
66.7793
 20
16.8379
 11
66.8662
 21
16.8721
  0
LINE
  8
0
 10
66.8662
 20
16.8721
 11
66.96
 21
16.9023
  0
LINE
  8
0
 10
66.96
 20
16.9023
 11
67.0625
 21
16.9297
  0
LINE
  8
0
 10
67.0625
 20
16.9297
 11
67.2354
 21
16.9658
  0
LINE
  8
0
 10
67.2354
 20
16.9658
 11
67.4365
 21
16.998
  0
LINE
  8
0
 10
67.4365
 20
16.998
 11
67.6738
 21
17.0273
  0
LINE
  8
0
 10
67.6738
 20
17.0273
 11
67.9512
 21
17.0557
  0
LINE
  8
0
 10
67.9512
 20
17.0557
 11
68.3643
 21
17.0938
  0
LINE
  8
0
 10
68.3643
 20
17.0938
 11
68.5469
 21
17.124
  0
LINE
  8
0
 10
68.5469
 20
17.124
 11
68.6924
 21
17.1592
  0
LINE
  8
0
 10
68.6924
 20
17.1592
 11
68.7754
 21
17.1885
  0
LINE
  8
0
 10
68.7754
 20
17.1885
 11
68.8105
 21
17.2051
  0
LINE
  8
0
 10
68.8105
 20
17.2051
 11
68.8662
 21
17.2383
  0
LINE
  8
0
 10
68.8662
 20
17.2383
 11
68.9248
 21
17.2773
  0
LINE
  8
0
 10
68.9248
 20
17.2773
 11
69.0215
 21
17.3535
  0
LINE
  8
0
 10
69.0215
 20
17.3535
 11
69.0918
 21
17.418
  0
LINE
  8
0
 10
69.0918
 20
17.418
 11
69.1523
 21
17.4814
  0
LINE
  8
0
 10
69.1523
 20
17.4814
 11
69.1973
 21
17.5391
  0
LINE
  8
0
 10
69.1973
 20
17.5391
 11
69.2178
 21
17.5762
  0
LINE
  8
0
 10
69.2178
 20
17.5762
 11
69.2246
 21
17.5967
  0
LINE
  8
0
 10
69.2246
 20
17.5967
 11
69.2266
 21
17.6182
  0
LINE
  8
0
 10
69.2266
 20
17.6182
 11
69.2422
 21
17.6416
  0
LINE
  8
0
 10
69.2422
 20
17.6416
 11
69.2617
 21
17.6514
  0
LINE
  8
0
 10
69.2617
 20
17.6514
 11
69.293
 21
17.6572
  0
LINE
  8
0
 10
69.293
 20
17.6572
 11
69.3145
 21
17.6807
  0
LINE
  8
0
 10
69.3145
 20
17.6807
 11
69.3213
 21
17.6963
  0
LINE
  8
0
 10
69.3213
 20
17.6963
 11
69.3252
 21
17.7178
  0
LINE
  8
0
 10
69.3252
 20
17.7178
 11
69.3262
 21
17.7412
  0
LINE
  8
0
 10
69.3262
 20
17.7412
 11
69.3389
 21
17.7783
  0
LINE
  8
0
 10
69.3389
 20
17.7783
 11
69.3623
 21
17.8125
  0
LINE
  8
0
 10
69.3623
 20
17.8125
 11
69.3887
 21
17.8359
  0
LINE
  8
0
 10
69.3887
 20
17.8359
 11
69.4043
 21
17.8457
  0
LINE
  8
0
 10
69.4043
 20
17.8457
 11
69.4404
 21
17.8877
  0
LINE
  8
0
 10
69.4404
 20
17.8877
 11
69.4727
 21
17.9414
  0
LINE
  8
0
 10
69.4727
 20
17.9414
 11
69.5068
 21
18.0195
  0
LINE
  8
0
 10
69.5068
 20
18.0195
 11
69.5254
 21
18.0703
  0
LINE
  8
0
 10
69.5254
 20
18.0703
 11
69.5557
 21
18.1211
  0
LINE
  8
0
 10
69.5557
 20
18.1211
 11
69.5703
 21
18.1396
  0
LINE
  8
0
 10
69.5703
 20
18.1396
 11
69.5967
 21
18.1641
  0
LINE
  8
0
 10
69.5967
 20
18.1641
 11
69.6143
 21
18.1758
  0
LINE
  8
0
 10
69.6143
 20
18.1758
 11
69.6436
 21
18.1895
  0
LINE
  8
0
 10
69.6436
 20
18.1895
 11
69.71
 21
18.2051
  0
LINE
  8
0
 10
69.71
 20
18.2051
 11
69.7578
 21
18.2266
  0
LINE
  8
0
 10
69.7578
 20
18.2266
 11
69.7852
 21
18.2432
  0
LINE
  8
0
 10
69.7852
 20
18.2432
 11
69.8047
 21
18.2578
  0
LINE
  8
0
 10
69.8047
 20
18.2578
 11
69.8604
 21
18.3135
  0
LINE
  8
0
 10
69.8604
 20
18.3135
 11
69.9004
 21
18.3408
  0
LINE
  8
0
 10
69.9004
 20
18.3408
 11
69.9375
 21
18.3545
  0
LINE
  8
0
 10
69.9375
 20
18.3545
 11
69.959
 21
18.3594
  0
LINE
  8
0
 10
69.959
 20
18.3594
 11
69.9863
 21
18.3789
  0
LINE
  8
0
 10
69.9863
 20
18.3789
 11
70.0195
 21
18.4111
  0
LINE
  8
0
 10
70.0195
 20
18.4111
 11
70.0918
 21
18.5049
  0
LINE
  8
0
 10
70.0918
 20
18.5049
 11
70.1279
 21
18.5586
  0
LINE
  8
0
 10
70.1279
 20
18.5586
 11
70.1709
 21
18.6328
  0
LINE
  8
0
 10
70.1709
 20
18.6328
 11
70.2041
 21
18.7021
  0
LINE
  8
0
 10
70.2041
 20
18.7021
 11
70.2197
 21
18.7461
  0
LINE
  8
0
 10
70.2197
 20
18.7461
 11
70.2324
 21
18.8193
  0
LINE
  8
0
 10
70.2324
 20
18.8193
 11
70.248
 21
18.8418
  0
LINE
  8
0
 10
70.248
 20
18.8418
 11
70.2646
 21
18.8516
  0
LINE
  8
0
 10
70.2646
 20
18.8516
 11
70.293
 21
18.8555
  0
LINE
  8
0
 10
70.293
 20
18.8555
 11
70.3115
 21
18.8672
  0
LINE
  8
0
 10
70.3115
 20
18.8672
 11
70.3213
 21
18.8809
  0
LINE
  8
0
 10
70.3213
 20
18.8809
 11
70.3281
 21
18.9131
  0
LINE
  8
0
 10
70.3281
 20
18.9131
 11
70.3447
 21
18.9424
  0
LINE
  8
0
 10
70.3447
 20
18.9424
 11
70.4258
 21
19.042
  0
LINE
  8
0
 10
70.4258
 20
19.042
 11
70.5273
 21
19.1455
  0
LINE
  8
0
 10
70.5273
 20
19.1455
 11
70.6396
 21
19.2471
  0
LINE
  8
0
 10
70.6396
 20
19.2471
 11
70.7461
 21
19.3301
  0
LINE
  8
0
 10
70.7461
 20
19.3301
 11
70.7832
 21
19.3564
  0
LINE
  8
0
 10
70.7832
 20
19.3564
 11
70.8047
 21
19.377
  0
LINE
  8
0
 10
70.8047
 20
19.377
 11
70.8271
 21
19.4014
  0
LINE
  8
0
 10
70.8271
 20
19.4014
 11
70.8496
 21
19.4297
  0
LINE
  8
0
 10
70.8496
 20
19.4297
 11
70.8965
 21
19.499
  0
LINE
  8
0
 10
70.8965
 20
19.499
 11
70.9209
 21
19.5391
  0
LINE
  8
0
 10
70.9209
 20
19.5391
 11
70.9932
 21
19.6758
  0
LINE
  8
0
 10
70.9932
 20
19.6758
 11
71.0654
 21
19.8359
  0
LINE
  8
0
 10
71.0654
 20
19.8359
 11
71.1348
 21
20.0127
  0
LINE
  8
0
 10
71.1348
 20
20.0127
 11
71.1982
 21
20.1992
  0
LINE
  8
0
 10
71.1982
 20
20.1992
 11
71.2373
 21
20.3271
  0
LINE
  8
0
 10
71.2373
 20
20.3271
 11
71.2871
 21
20.5176
  0
LINE
  8
0
 10
71.2871
 20
20.5176
 11
71.3145
 21
20.6416
  0
LINE
  8
0
 10
71.3145
 20
20.6416
 11
71.3369
 21
20.7607
  0
LINE
  8
0
 10
71.3369
 20
20.7607
 11
71.3525
 21
20.874
  0
LINE
  8
0
 10
71.3525
 20
20.874
 11
71.3662
 21
21.0137
  0
LINE
  8
0
 10
71.3662
 20
21.0137
 11
71.4043
 21
21.2275
  0
LINE
  8
0
 10
71.4043
 20
21.2275
 11
71.4375
 21
21.3613
  0
LINE
  8
0
 10
71.4375
 20
21.3613
 11
71.4727
 21
21.4775
  0
LINE
  8
0
 10
71.4727
 20
21.4775
 11
71.5127
 21
21.5996
  0
LINE
  8
0
 10
71.5127
 20
21.5996
 11
71.542
 21
21.7158
  0
LINE
  8
0
 10
71.542
 20
21.7158
 11
71.5586
 21
21.7979
  0
LINE
  8
0
 10
71.5586
 20
21.7979
 11
71.5742
 21
21.918
  0
LINE
  8
0
 10
71.5742
 20
21.918
 11
71.5938
 21
22.165
  0
LINE
  8
0
 10
71.5938
 20
22.165
 11
71.6426
 21
22.4492
  0
LINE
  8
0
 10
71.6426
 20
22.4492
 11
71.9902
 21
23.9668
  0
LINE
  8
0
 10
71.9902
 20
23.9668
 11
72.042
 21
24.2637
  0
LINE
  8
0
 10
72.042
 20
24.2637
 11
72.1689
 21
25.1055
  0
LINE
  8
0
 10
72.1689
 20
25.1055
 11
72.208
 21
25.2939
  0
LINE
  8
0
 10
72.208
 20
25.2939
 11
72.2314
 21
25.373
  0
LINE
  8
0
 10
72.2314
 20
25.373
 11
72.2393
 21
25.3936
  0
LINE
  8
0
 10
72.2393
 20
25.3936
 11
72.2461
 21
25.4189
  0
LINE
  8
0
 10
72.2461
 20
25.4189
 11
72.2549
 21
25.4844
  0
LINE
  8
0
 10
72.2549
 20
25.4844
 11
72.2598
 21
25.5664
  0
LINE
  8
0
 10
72.2598
 20
25.5664
 11
72.2588
 21
25.7148
  0
LINE
  8
0
 10
72.2588
 20
25.7148
 11
72.25
 21
25.8887
  0
LINE
  8
0
 10
72.25
 20
25.8887
 11
72.2393
 21
26.0137
  0
LINE
  8
0
 10
72.2393
 20
26.0137
 11
72.2178
 21
26.21
  0
LINE
  8
0
 10
72.2178
 20
26.21
 11
72.2002
 21
26.3438
  0
LINE
  8
0
 10
72.2002
 20
26.3438
 11
72.1797
 21
26.4756
  0
LINE
  8
0
 10
72.1797
 20
26.4756
 11
72.1572
 21
26.6035
  0
LINE
  8
0
 10
72.1572
 20
26.6035
 11
72.1328
 21
26.7266
  0
LINE
  8
0
 10
72.1328
 20
26.7266
 11
72.1064
 21
26.8418
  0
LINE
  8
0
 10
72.1064
 20
26.8418
 11
72.0645
 21
26.9932
  0
LINE
  8
0
 10
72.0645
 20
26.9932
 11
72.0029
 21
27.1787
  0
LINE
  8
0
 10
72.0029
 20
27.1787
 11
71.9248
 21
27.4727
  0
LINE
  8
0
 10
71.9248
 20
27.4727
 11
71.8984
 21
27.6094
  0
LINE
  8
0
 10
71.8984
 20
27.6094
 11
71.8828
 21
27.7217
  0
LINE
  8
0
 10
71.8828
 20
27.7217
 11
71.8594
 21
27.8477
  0
LINE
  8
0
 10
71.8594
 20
27.8477
 11
71.8291
 21
27.9717
  0
LINE
  8
0
 10
71.8291
 20
27.9717
 11
71.792
 21
28.0928
  0
LINE
  8
0
 10
71.792
 20
28.0928
 11
71.7637
 21
28.1729
  0
LINE
  8
0
 10
71.7637
 20
28.1729
 11
71.7158
 21
28.29
  0
LINE
  8
0
 10
71.7158
 20
28.29
 11
71.6611
 21
28.4062
  0
LINE
  8
0
 10
71.6611
 20
28.4062
 11
71.5771
 21
28.5586
  0
LINE
  8
0
 10
71.5771
 20
28.5586
 11
71.5059
 21
28.6699
  0
LINE
  8
0
 10
71.5059
 20
28.6699
 11
71.4277
 21
28.7803
  0
LINE
  8
0
 10
71.4277
 20
28.7803
 11
71.1924
 21
29.0957
  0
LINE
  8
0
 10
71.1924
 20
29.0957
 11
71.1123
 21
29.2383
  0
LINE
  8
0
 10
71.1123
 20
29.2383
 11
70.9053
 21
29.5781
  0
LINE
  8
0
 10
70.9053
 20
29.5781
 11
70.666
 21
30.1152
  0
LINE
  8
0
 10
70.666
 20
30.1152
 11
70.6289
 21
30.2148
  0
LINE
  8
0
 10
70.6289
 20
30.2148
 11
70.625
 21
30.2305
  0
LINE
  8
0
 10
70.625
 20
30.2305
 11
70.625
 21
30.2373
  0
LINE
  8
0
 10
70.625
 20
30.2373
 11
70.5996
 21
30.2881
  0
LINE
  8
0
 10
70.5996
 20
30.2881
 11
70.583
 21
30.3125
  0
LINE
  8
0
 10
70.583
 20
30.3125
 11
70.498
 21
30.4141
  0
LINE
  8
0
 10
70.498
 20
30.4141
 11
70.4287
 21
30.5127
  0
LINE
  8
0
 10
70.4287
 20
30.5127
 11
70.3594
 21
30.6357
  0
LINE
  8
0
 10
70.3594
 20
30.6357
 11
70.1006
 21
31.1455
  0
LINE
  8
0
 10
70.1006
 20
31.1455
 11
69.8037
 21
31.751
  0
LINE
  8
0
 10
69.8037
 20
31.751
 11
69.6035
 21
32.1846
  0
LINE
  8
0
 10
69.6035
 20
32.1846
 11
69.582
 21
32.2686
  0
LINE
  8
0
 10
69.582
 20
32.2686
 11
69.458
 21
32.8828
  0
LINE
  8
0
 10
69.458
 20
32.8828
 11
69.3594
 21
33.5264
  0
LINE
  8
0
 10
69.3594
 20
33.5264
 11
69.3213
 21
33.7441
  0
LINE
  8
0
 10
69.3213
 20
33.7441
 11
69.3076
 21
33.8623
  0
LINE
  8
0
 10
69.3076
 20
33.8623
 11
69.3018
 21
33.9463
  0
LINE
  8
0
 10
69.3018
 20
33.9463
 11
69.2998
 21
34.124
  0
LINE
  8
0
 10
69.2998
 20
34.124
 11
69.3027
 21
34.2148
  0
LINE
  8
0
 10
69.3027
 20
34.2148
 11
69.3086
 21
34.3066
  0
LINE
  8
0
 10
69.3086
 20
34.3066
 11
69.3213
 21
34.4414
  0
LINE
  8
0
 10
69.3213
 20
34.4414
 11
69.3467
 21
34.6123
  0
LINE
  8
0
 10
69.3467
 20
34.6123
 11
69.3711
 21
34.7285
  0
LINE
  8
0
 10
69.3711
 20
34.7285
 11
69.4004
 21
34.832
  0
LINE
  8
0
 10
69.4004
 20
34.832
 11
69.4229
 21
34.8916
  0
LINE
  8
0
 10
69.4229
 20
34.8916
 11
69.4541
 21
34.957
  0
LINE
  8
0
 10
69.4541
 20
34.957
 11
69.4961
 21
35.0137
  0
LINE
  8
0
 10
69.4961
 20
35.0137
 11
69.6436
 21
35.1816
  0
LINE
  8
0
 10
69.6436
 20
35.1816
 11
69.8135
 21
35.3574
  0
LINE
  8
0
 10
69.8135
 20
35.3574
 11
69.9678
 21
35.5088
  0
LINE
  8
0
 10
69.9678
 20
35.5088
 11
70.2471
 21
35.7686
  0
LINE
  8
0
 10
70.2471
 20
35.7686
 11
70.4521
 21
35.9443
  0
LINE
  8
0
 10
70.4521
 20
35.9443
 11
70.5117
 21
36.0039
  0
LINE
  8
0
 10
70.5117
 20
36.0039
 11
70.5986
 21
36.1094
  0
LINE
  8
0
 10
70.5986
 20
36.1094
 11
70.6553
 21
36.1943
  0
LINE
  8
0
 10
70.6553
 20
36.1943
 11
70.6914
 21
36.2627
  0
LINE
  8
0
 10
70.6914
 20
36.2627
 11
70.708
 21
36.3027
  0
LINE
  8
0
 10
70.708
 20
36.3027
 11
70.7402
 21
36.3662
  0
LINE
  8
0
 10
70.7402
 20
36.3662
 11
70.7803
 21
36.4346
  0
LINE
  8
0
 10
70.7803
 20
36.4346
 11
70.8262
 21
36.5068
  0
LINE
  8
0
 10
70.8262
 20
36.5068
 11
70.8779
 21
36.582
  0
LINE
  8
0
 10
70.8779
 20
36.582
 11
70.9639
 21
36.6973
  0
LINE
  8
0
 10
70.9639
 20
36.6973
 11
71.0566
 21
36.8125
  0
LINE
  8
0
 10
71.0566
 20
36.8125
 11
71.1855
 21
36.958
  0
LINE
  8
0
 10
71.1855
 20
36.958
 11
71.2803
 21
37.0566
  0
LINE
  8
0
 10
71.2803
 20
37.0566
 11
71.3721
 21
37.1416
  0
LINE
  8
0
 10
71.3721
 20
37.1416
 11
71.4287
 21
37.1885
  0
LINE
  8
0
 10
71.4287
 20
37.1885
 11
71.4805
 21
37.2266
  0
LINE
  8
0
 10
71.4805
 20
37.2266
 11
71.5273
 21
37.2539
  0
LINE
  8
0
 10
71.5273
 20
37.2539
 11
71.5576
 21
37.2695
  0
LINE
  8
0
 10
71.5576
 20
37.2695
 11
71.6787
 21
37.3213
  0
LINE
  8
0
 10
71.6787
 20
37.3213
 11
71.7383
 21
37.3418
  0
LINE
  8
0
 10
71.7383
 20
37.3418
 11
71.8271
 21
37.3652
  0
LINE
  8
0
 10
71.8271
 20
37.3652
 11
71.8867
 21
37.377
  0
LINE
  8
0
 10
71.8867
 20
37.377
 11
71.9775
 21
37.3867
  0
LINE
  8
0
 10
71.9775
 20
37.3867
 11
72.0391
 21
37.3887
  0
LINE
  8
0
 10
72.0391
 20
37.3887
 11
72.1348
 21
37.3848
  0
LINE
  8
0
 10
72.1348
 20
37.3848
 11
72.2354
 21
37.3721
  0
LINE
  8
0
 10
72.2354
 20
37.3721
 11
72.3047
 21
37.3604
  0
LINE
  8
0
 10
72.3047
 20
37.3604
 11
72.4521
 21
37.3242
  0
LINE
  8
0
 10
72.4521
 20
37.3242
 11
72.6094
 21
37.2754
  0
LINE
  8
0
 10
72.6094
 20
37.2754
 11
72.7158
 21
37.2354
  0
LINE
  8
0
 10
72.7158
 20
37.2354
 11
72.8408
 21
37.1768
  0
LINE
  8
0
 10
72.8408
 20
37.1768
 11
72.8955
 21
37.1455
  0
LINE
  8
0
 10
72.8955
 20
37.1455
 11
72.9688
 21
37.0957
  0
LINE
  8
0
 10
72.9688
 20
37.0957
 11
73.0312
 21
37.043
  0
LINE
  8
0
 10
73.0312
 20
37.043
 11
73.083
 21
36.9854
  0
LINE
  8
0
 10
73.083
 20
36.9854
 11
73.124
 21
36.9248
  0
LINE
  8
0
 10
73.124
 20
36.9248
 11
73.1465
 21
36.8818
  0
LINE
  8
0
 10
73.1465
 20
36.8818
 11
73.165
 21
36.8369
  0
LINE
  8
0
 10
73.165
 20
36.8369
 11
73.1787
 21
36.79
  0
LINE
  8
0
 10
73.1787
 20
36.79
 11
73.1924
 21
36.708
  0
LINE
  8
0
 10
73.1924
 20
36.708
 11
73.2148
 21
36.2715
  0
LINE
  8
0
 10
73.2148
 20
36.2715
 11
73.2246
 21
35.79
  0
LINE
  8
0
 10
73.2246
 20
35.79
 11
73.2207
 21
35.4717
  0
LINE
  8
0
 10
73.2207
 20
35.4717
 11
73.2158
 21
35.3984
  0
LINE
  8
0
 10
73.2158
 20
35.3984
 11
73.2051
 21
35.3203
  0
LINE
  8
0
 10
73.2051
 20
35.3203
 11
73.1895
 21
35.2578
  0
LINE
  8
0
 10
73.1895
 20
35.2578
 11
73.1689
 21
35.207
  0
LINE
  8
0
 10
73.1689
 20
35.207
 11
73.1494
 21
35.1729
  0
LINE
  8
0
 10
73.1494
 20
35.1729
 11
73.1221
 21
35.1328
  0
LINE
  8
0
 10
73.1221
 20
35.1328
 11
73.0869
 21
35.0723
  0
LINE
  8
0
 10
73.0869
 20
35.0723
 11
73.0713
 21
35.0381
  0
LINE
  8
0
 10
73.0713
 20
35.0381
 11
73.0566
 21
35
  0
LINE
  8
0
 10
73.0566
 20
35
 11
73.043
 21
34.9551
  0
LINE
  8
0
 10
73.043
 20
34.9551
 11
73.0303
 21
34.9043
  0
LINE
  8
0
 10
73.0303
 20
34.9043
 11
73.0186
 21
34.8438
  0
LINE
  8
0
 10
73.0186
 20
34.8438
 11
73.0078
 21
34.7734
  0
LINE
  8
0
 10
73.0078
 20
34.7734
 11
72.998
 21
34.6914
  0
LINE
  8
0
 10
72.998
 20
34.6914
 11
72.9893
 21
34.5967
  0
LINE
  8
0
 10
72.9893
 20
34.5967
 11
72.9736
 21
34.3613
  0
LINE
  8
0
 10
72.9736
 20
34.3613
 11
72.9609
 21
34.0576
  0
LINE
  8
0
 10
72.9609
 20
34.0576
 11
72.9512
 21
33.6719
  0
LINE
  8
0
 10
72.9512
 20
33.6719
 11
72.9434
 21
33.1943
  0
LINE
  8
0
 10
72.9434
 20
33.1943
 11
72.9355
 21
32.2803
  0
LINE
  8
0
 10
72.9355
 20
32.2803
 11
72.9297
 21
30.1309
  0
LINE
  8
0
 10
72.9297
 20
30.1309
 11
72.9209
 21
23.1768
  0
LINE
  8
0
 10
72.9209
 20
23.1768
 11
72.9121
 21
22.0635
  0
LINE
  8
0
 10
72.9121
 20
22.0635
 11
72.8984
 21
21.3994
  0
LINE
  8
0
 10
72.8984
 20
21.3994
 11
72.8828
 21
21.1191
  0
LINE
  8
0
 10
72.8828
 20
21.1191
 11
72.873
 21
21.043
  0
LINE
  8
0
 10
72.873
 20
21.043
 11
72.8682
 21
21.0186
  0
LINE
  8
0
 10
72.8682
 20
21.0186
 11
72.8623
 21
21.001
  0
LINE
  8
0
 10
72.8623
 20
21.001
 11
72.8564
 21
20.9902
  0
LINE
  8
0
 10
72.8564
 20
20.9902
 11
72.8506
 21
20.9844
  0
LINE
  8
0
 10
72.8506
 20
20.9844
 11
72.835
 21
20.9785
  0
LINE
  8
0
 10
72.835
 20
20.9785
 11
72.8057
 21
20.9609
  0
LINE
  8
0
 10
72.8057
 20
20.9609
 11
72.7637
 21
20.9258
  0
LINE
  8
0
 10
72.7637
 20
20.9258
 11
72.7373
 21
20.8965
  0
LINE
  8
0
 10
72.7373
 20
20.8965
 11
72.7012
 21
20.8438
  0
LINE
  8
0
 10
72.7012
 20
20.8438
 11
72.668
 21
20.7822
  0
LINE
  8
0
 10
72.668
 20
20.7822
 11
72.6484
 21
20.7373
  0
LINE
  8
0
 10
72.6484
 20
20.7373
 11
72.623
 21
20.6631
  0
LINE
  8
0
 10
72.623
 20
20.6631
 11
72.6025
 21
20.582
  0
LINE
  8
0
 10
72.6025
 20
20.582
 11
72.584
 21
20.4668
  0
LINE
  8
0
 10
72.584
 20
20.4668
 11
72.5781
 21
20.4072
  0
LINE
  8
0
 10
72.5781
 20
20.4072
 11
72.5752
 21
20.3447
  0
LINE
  8
0
 10
72.5752
 20
20.3447
 11
72.5752
 21
20.2793
  0
LINE
  8
0
 10
72.5752
 20
20.2793
 11
72.5703
 21
20.1904
  0
LINE
  8
0
 10
72.5703
 20
20.1904
 11
72.5635
 21
20.1172
  0
LINE
  8
0
 10
72.5635
 20
20.1172
 11
72.5449
 21
19.9941
  0
LINE
  8
0
 10
72.5449
 20
19.9941
 11
72.5127
 21
19.8594
  0
LINE
  8
0
 10
72.5127
 20
19.8594
 11
72.4961
 21
19.8135
  0
LINE
  8
0
 10
72.4961
 20
19.8135
 11
72.3926
 21
19.5605
  0
LINE
  8
0
 10
72.3926
 20
19.5605
 11
72.3096
 21
19.3291
  0
LINE
  8
0
 10
72.3096
 20
19.3291
 11
72.2686
 21
19.1963
  0
LINE
  8
0
 10
72.2686
 20
19.1963
 11
72.2334
 21
19.0674
  0
LINE
  8
0
 10
72.2334
 20
19.0674
 11
72.1953
 21
18.8955
  0
LINE
  8
0
 10
72.1953
 20
18.8955
 11
72.1797
 21
18.8096
  0
LINE
  8
0
 10
72.1797
 20
18.8096
 11
72.1543
 21
18.6328
  0
LINE
  8
0
 10
72.1543
 20
18.6328
 11
72.1396
 21
18.4951
  0
LINE
  8
0
 10
72.1396
 20
18.4951
 11
72.1182
 21
18.2285
  0
LINE
  8
0
 10
72.1182
 20
18.2285
 11
72.0977
 21
18.0557
  0
LINE
  8
0
 10
72.0977
 20
18.0557
 11
72.0771
 21
17.9355
  0
LINE
  8
0
 10
72.0771
 20
17.9355
 11
72.0479
 21
17.8154
  0
LINE
  8
0
 10
72.0479
 20
17.8154
 11
72.0186
 21
17.7314
  0
LINE
  8
0
 10
72.0186
 20
17.7314
 11
71.9688
 21
17.6299
  0
LINE
  8
0
 10
71.9688
 20
17.6299
 11
71.7256
 21
17.1797
  0
LINE
  8
0
 10
71.7256
 20
17.1797
 11
71.5674
 21
16.9053
  0
LINE
  8
0
 10
71.5674
 20
16.9053
 11
71.4189
 21
16.667
  0
LINE
  8
0
 10
71.4189
 20
16.667
 11
71.2617
 21
16.3408
  0
LINE
  8
0
 10
71.2617
 20
16.3408
 11
71.1631
 21
16.1104
  0
LINE
  8
0
 10
71.1631
 20
16.1104
 11
71.0186
 21
15.752
  0
LINE
  8
0
 10
71.0186
 20
15.752
 11
70.9141
 21
15.5156
  0
LINE
  8
0
 10
70.9141
 20
15.5156
 11
70.8672
 21
15.4238
  0
LINE
  8
0
 10
70.8672
 20
15.4238
 11
70.8047
 21
15.3193
  0
LINE
  8
0
 10
70.8047
 20
15.3193
 11
70.7549
 21
15.249
  0
LINE
  8
0
 10
70.7549
 20
15.249
 11
70.7002
 21
15.1807
  0
LINE
  8
0
 10
70.7002
 20
15.1807
 11
70.5645
 21
15.0352
  0
LINE
  8
0
 10
70.5645
 20
15.0352
 11
70.502
 21
14.9717
  0
LINE
  8
0
 10
70.502
 20
14.9717
 11
70.4434
 21
14.9072
  0
LINE
  8
0
 10
70.4434
 20
14.9072
 11
70.3252
 21
14.7617
  0
LINE
  8
0
 10
70.3252
 20
14.7617
 11
70.2822
 21
14.7021
  0
LINE
  8
0
 10
70.2822
 20
14.7021
 11
70.1396
 21
14.4668
  0
LINE
  8
0
 10
70.1396
 20
14.4668
 11
70.0322
 21
14.3232
  0
LINE
  8
0
 10
70.0322
 20
14.3232
 11
69.9775
 21
14.2344
  0
LINE
  8
0
 10
69.9775
 20
14.2344
 11
69.9287
 21
14.1348
  0
LINE
  8
0
 10
69.9287
 20
14.1348
 11
69.8662
 21
13.9766
  0
LINE
  8
0
 10
69.8662
 20
13.9766
 11
69.7588
 21
13.6426
  0
LINE
  8
0
 10
69.7588
 20
13.6426
 11
69.6543
 21
13.3564
  0
LINE
  8
0
 10
69.6543
 20
13.3564
 11
69.5752
 21
13.1582
  0
LINE
  8
0
 10
69.5752
 20
13.1582
 11
69.4395
 21
12.7764
  0
LINE
  8
0
 10
69.4395
 20
12.7764
 11
69.374
 21
12.5654
  0
LINE
  8
0
 10
69.374
 20
12.5654
 11
69.3154
 21
12.4121
  0
LINE
  8
0
 10
69.3154
 20
12.4121
 11
69.2344
 21
12.2354
  0
LINE
  8
0
 10
69.2344
 20
12.2354
 11
69.1689
 21
12.1172
  0
LINE
  8
0
 10
69.1689
 20
12.1172
 11
69.1025
 21
11.9756
  0
LINE
  8
0
 10
69.1025
 20
11.9756
 11
69.0225
 21
11.7832
  0
LINE
  8
0
 10
69.0225
 20
11.7832
 11
68.9512
 21
11.5859
  0
LINE
  8
0
 10
68.9512
 20
11.5859
 11
68.8789
 21
11.377
  0
LINE
  8
0
 10
68.8789
 20
11.377
 11
68.7734
 21
11.1201
  0
LINE
  8
0
 10
68.7734
 20
11.1201
 11
68.7207
 21
11.0195
  0
LINE
  8
0
 10
68.7207
 20
11.0195
 11
68.7031
 21
10.9893
  0
LINE
  8
0
 10
68.7031
 20
10.9893
 11
68.6484
 21
10.8789
  0
LINE
  8
0
 10
68.6484
 20
10.8789
 11
68.5166
 21
10.5684
  0
LINE
  8
0
 10
68.5166
 20
10.5684
 11
68.4619
 21
10.4258
  0
LINE
  8
0
 10
68.4619
 20
10.4258
 11
68.4199
 21
10.3281
  0
LINE
  8
0
 10
68.4199
 20
10.3281
 11
68.376
 21
10.2373
  0
LINE
  8
0
 10
68.376
 20
10.2373
 11
68.2959
 21
10.0957
  0
LINE
  8
0
 10
68.2959
 20
10.0957
 11
68.2227
 21
9.98535
  0
LINE
  8
0
 10
68.2227
 20
9.98535
 11
68.1133
 21
9.8457
  0
LINE
  8
0
 10
68.1133
 20
9.8457
 11
67.9814
 21
9.69531
  0
LINE
  8
0
 10
67.9814
 20
9.69531
 11
67.7949
 21
9.49316
  0
LINE
  8
0
 10
67.7949
 20
9.49316
 11
67.5742
 21
9.2207
  0
LINE
  8
0
 10
67.5742
 20
9.2207
 11
67.4834
 21
9.09863
  0
LINE
  8
0
 10
67.4834
 20
9.09863
 11
67.3535
 21
8.91699
  0
LINE
  8
0
 10
67.3535
 20
8.91699
 11
67.2754
 21
8.82031
  0
LINE
  8
0
 10
67.2754
 20
8.82031
 11
67.1943
 21
8.73047
  0
LINE
  8
0
 10
67.1943
 20
8.73047
 11
67.1377
 21
8.6748
  0
LINE
  8
0
 10
67.1377
 20
8.6748
 11
67.0781
 21
8.62012
  0
LINE
  8
0
 10
67.0781
 20
8.62012
 11
66.9824
 21
8.54297
  0
LINE
  8
0
 10
66.9824
 20
8.54297
 11
66.9141
 21
8.49316
  0
LINE
  8
0
 10
66.9141
 20
8.49316
 11
66.7637
 21
8.39551
  0
LINE
  8
0
 10
66.7637
 20
8.39551
 11
66.5928
 21
8.2998
  0
LINE
  8
0
 10
66.5928
 20
8.2998
 11
66.498
 21
8.25098
  0
LINE
  8
0
 10
66.498
 20
8.25098
 11
66.1475
 21
8.08008
  0
LINE
  8
0
 10
66.1475
 20
8.08008
 11
66.0361
 21
8.01758
  0
LINE
  8
0
 10
66.0361
 20
8.01758
 11
65.9951
 21
7.99219
  0
LINE
  8
0
 10
65.9951
 20
7.99219
 11
65.9541
 21
7.95996
  0
LINE
  8
0
 10
65.9541
 20
7.95996
 11
65.9521
 21
7.95605
  0
LINE
  8
0
 10
65.9521
 20
7.95605
 11
65.9355
 21
7.94922
  0
LINE
  8
0
 10
65.9355
 20
7.94922
 11
65.8643
 21
7.94043
  0
LINE
  8
0
 10
65.8643
 20
7.94043
 11
65.6797
 21
7.92871
  0
LINE
  8
0
 10
65.6797
 20
7.92871
 11
65.2061
 21
7.91602
  0
LINE
  8
0
 10
65.2061
 20
7.91602
 11
63.8574
 21
7.9043
  0
LINE
  8
0
 10
63.8574
 20
7.9043
 11
62.6934
 21
7.90234
  0
LINE
  8
0
 10
62.6934
 20
7.90234
 11
59.4688
 21
7.90234
  0
LINE
  8
0
 10
59.4688
 20
7.90234
 11
59.2666
 21
7.75
  0
LINE
  8
0
 10
59.2666
 20
7.75
 11
59.2041
 21
7.70801
  0
LINE
  8
0
 10
59.2041
 20
7.70801
 11
59.1377
 21
7.66797
  0
LINE
  8
0
 10
59.1377
 20
7.66797
 11
59.0664
 21
7.62988
  0
LINE
  8
0
 10
59.0664
 20
7.62988
 11
58.9062
 21
7.55762
  0
LINE
  8
0
 10
58.9062
 20
7.55762
 11
58.7861
 21
7.51172
  0
LINE
  8
0
 10
58.7861
 20
7.51172
 11
58.6172
 21
7.45605
  0
LINE
  8
0
 10
58.6172
 20
7.45605
 11
58.0918
 21
7.30176
  0
LINE
  8
0
 10
58.0918
 20
7.30176
 11
57.9004
 21
7.23535
  0
LINE
  8
0
 10
57.9004
 20
7.23535
 11
57.8789
 21
7.22656
  0
LINE
  8
0
 10
57.8789
 20
7.22656
 11
57.834
 21
7.21191
  0
LINE
  8
0
 10
57.834
 20
7.21191
 11
57.7637
 21
7.19336
  0
LINE
  8
0
 10
57.7637
 20
7.19336
 11
57.665
 21
7.1748
  0
LINE
  8
0
 10
57.665
 20
7.1748
 11
57.6152
 21
7.16797
  0
LINE
  8
0
 10
57.6152
 20
7.16797
 11
57.54
 21
7.16211
  0
LINE
  8
0
 10
57.54
 20
7.16211
 11
57.4912
 21
7.16016
  0
ENDSEC
  0
SECTION
  2
OBJECTS
  0
DICTIONARY
  0
ENDSEC
  0
EOF
